G04*
G04 #@! TF.GenerationSoftware,Altium Limited,Altium Designer,24.5.2 (23)*
G04*
G04 Layer_Color=255*
%FSLAX25Y25*%
%MOIN*%
G70*
G04*
G04 #@! TF.SameCoordinates,BE9660E5-E2A0-4720-87AB-8DA6D5481385*
G04*
G04*
G04 #@! TF.FilePolarity,Positive*
G04*
G01*
G75*
%ADD15R,0.02756X0.04331*%
%ADD16R,0.04488X0.07205*%
%ADD17R,0.03386X0.11024*%
%ADD18R,0.02756X0.13110*%
%ADD19R,0.03543X0.03661*%
%ADD20R,0.04134X0.03071*%
%ADD21R,0.05118X0.04724*%
%ADD22R,0.04724X0.05118*%
%ADD23C,0.03937*%
%ADD24R,0.04016X0.03701*%
%ADD25R,0.10236X0.14173*%
%ADD26R,0.03701X0.04016*%
%ADD27R,0.01378X0.01575*%
%ADD28R,0.01575X0.01575*%
%ADD29R,0.05512X0.08268*%
%ADD30R,0.05906X0.05906*%
%ADD31R,0.05906X0.03543*%
%ADD32R,0.03543X0.05906*%
%ADD33R,0.03543X0.03543*%
%ADD34R,0.01968X0.03150*%
%ADD35R,0.08661X0.04134*%
%ADD36R,0.04331X0.03937*%
%ADD37R,0.03937X0.05512*%
%ADD38R,0.05512X0.03937*%
%ADD39R,0.07677X0.04134*%
%ADD40R,0.04213X0.08504*%
%ADD41R,0.04100X0.15900*%
%ADD42R,0.08661X0.13780*%
%ADD43R,0.08661X0.04724*%
%ADD44R,0.09843X0.12992*%
%ADD45R,0.11417X0.21260*%
%ADD46R,0.05906X0.08661*%
%ADD47R,0.08661X0.05906*%
%ADD48R,0.08268X0.08268*%
%ADD49R,0.04724X0.01181*%
%ADD50R,0.01181X0.04724*%
%ADD51R,0.08661X0.16929*%
%ADD52R,0.08976X0.04724*%
%ADD53R,0.25197X0.22835*%
%ADD54R,0.08268X0.05906*%
G04:AMPARAMS|DCode=55|XSize=59.06mil|YSize=17.72mil|CornerRadius=1.97mil|HoleSize=0mil|Usage=FLASHONLY|Rotation=270.000|XOffset=0mil|YOffset=0mil|HoleType=Round|Shape=RoundedRectangle|*
%AMROUNDEDRECTD55*
21,1,0.05906,0.01378,0,0,270.0*
21,1,0.05512,0.01772,0,0,270.0*
1,1,0.00394,-0.00689,-0.02756*
1,1,0.00394,-0.00689,0.02756*
1,1,0.00394,0.00689,0.02756*
1,1,0.00394,0.00689,-0.02756*
%
%ADD55ROUNDEDRECTD55*%
G04:AMPARAMS|DCode=56|XSize=98.43mil|YSize=31.5mil|CornerRadius=15.75mil|HoleSize=0mil|Usage=FLASHONLY|Rotation=90.000|XOffset=0mil|YOffset=0mil|HoleType=Round|Shape=RoundedRectangle|*
%AMROUNDEDRECTD56*
21,1,0.09843,0.00000,0,0,90.0*
21,1,0.06693,0.03150,0,0,90.0*
1,1,0.03150,0.00000,0.03347*
1,1,0.03150,0.00000,-0.03347*
1,1,0.03150,0.00000,-0.03347*
1,1,0.03150,0.00000,0.03347*
%
%ADD56ROUNDEDRECTD56*%
G04:AMPARAMS|DCode=57|XSize=98.43mil|YSize=31.5mil|CornerRadius=15.75mil|HoleSize=0mil|Usage=FLASHONLY|Rotation=180.000|XOffset=0mil|YOffset=0mil|HoleType=Round|Shape=RoundedRectangle|*
%AMROUNDEDRECTD57*
21,1,0.09843,0.00000,0,0,180.0*
21,1,0.06693,0.03150,0,0,180.0*
1,1,0.03150,-0.03347,0.00000*
1,1,0.03150,0.03347,0.00000*
1,1,0.03150,0.03347,0.00000*
1,1,0.03150,-0.03347,0.00000*
%
%ADD57ROUNDEDRECTD57*%
%ADD58R,0.04331X0.04331*%
%ADD59R,0.11811X0.07874*%
%ADD60R,0.42300X0.32700*%
%ADD61R,0.21260X0.11417*%
%ADD62R,0.16929X0.08661*%
%ADD63R,0.02284X0.08268*%
%ADD64R,0.02559X0.04449*%
%ADD65R,0.02953X0.04449*%
%AMCUSTOMSHAPE136*
4,1,8,-0.21260,-0.15098,-0.21260,-0.09311,-0.17126,-0.09311,-0.17126,0.15098,0.17126,0.15098,0.17126,-0.09311,0.21260,-0.09311,0.21260,-0.15098,-0.21260,-0.15098,0.0*%
%ADD136CUSTOMSHAPE136*%

%ADD142C,0.05906*%
%ADD143R,0.05906X0.05906*%
%ADD144C,0.05118*%
%ADD145C,0.13780*%
%ADD146C,0.06496*%
%ADD147R,0.06496X0.06496*%
%ADD148R,0.11811X0.11811*%
%ADD149C,0.11811*%
%ADD150R,0.19685X0.07874*%
%ADD151R,0.07874X0.19685*%
%ADD152C,0.07874*%
%ADD153R,0.07874X0.07874*%
D15*
X408681Y67835D02*
D03*
X404350D02*
D03*
X400020D02*
D03*
X395689D02*
D03*
X391358D02*
D03*
X387028D02*
D03*
X382697D02*
D03*
X378366D02*
D03*
D16*
X423957Y67894D02*
D03*
D17*
X374114Y69803D02*
D03*
D18*
X424823Y112185D02*
D03*
X373799D02*
D03*
D19*
X415728Y116909D02*
D03*
D20*
X398937Y117205D02*
D03*
D21*
X114556Y141375D02*
D03*
Y133895D02*
D03*
X114556Y152565D02*
D03*
Y160046D02*
D03*
X121446Y141375D02*
D03*
Y133895D02*
D03*
X121446Y152565D02*
D03*
Y160046D02*
D03*
X279528Y244685D02*
D03*
Y237205D02*
D03*
X336614Y196063D02*
D03*
Y203543D02*
D03*
X341535Y90354D02*
D03*
Y82874D02*
D03*
X349409Y90354D02*
D03*
Y82874D02*
D03*
X357283Y90354D02*
D03*
Y82874D02*
D03*
X365158Y90354D02*
D03*
Y82874D02*
D03*
X222441Y71653D02*
D03*
Y64173D02*
D03*
X227362Y135433D02*
D03*
Y127953D02*
D03*
X234685Y135433D02*
D03*
Y127953D02*
D03*
X191929Y75787D02*
D03*
Y68307D02*
D03*
X183071Y75590D02*
D03*
Y68110D02*
D03*
X147638Y262992D02*
D03*
Y270472D02*
D03*
X173228Y68110D02*
D03*
Y75590D02*
D03*
X163386D02*
D03*
Y68110D02*
D03*
X443291Y138665D02*
D03*
Y131184D02*
D03*
X463592Y132874D02*
D03*
Y140354D02*
D03*
X476779Y132874D02*
D03*
Y140354D02*
D03*
X489854Y131184D02*
D03*
Y138665D02*
D03*
D22*
X81486Y164717D02*
D03*
X88967D02*
D03*
X252165Y212598D02*
D03*
X259646D02*
D03*
X252165Y204724D02*
D03*
X259646D02*
D03*
X252165Y196850D02*
D03*
X259646D02*
D03*
X252165Y188976D02*
D03*
X259646D02*
D03*
X66227Y76021D02*
D03*
X58746D02*
D03*
X428937Y168307D02*
D03*
X421457D02*
D03*
X334329Y236221D02*
D03*
X326849D02*
D03*
X334329Y243155D02*
D03*
X326849D02*
D03*
X341732Y264370D02*
D03*
X349213D02*
D03*
X341732Y256496D02*
D03*
X349213D02*
D03*
X341732Y248622D02*
D03*
X349213D02*
D03*
X364961Y248622D02*
D03*
X357480D02*
D03*
X364961Y256496D02*
D03*
X357480D02*
D03*
X364961Y264370D02*
D03*
X357480D02*
D03*
X349213Y293307D02*
D03*
X341732D02*
D03*
X349213Y301181D02*
D03*
X341732D02*
D03*
X349213Y309055D02*
D03*
X341732D02*
D03*
X357480Y309055D02*
D03*
X364961D02*
D03*
X357480Y301181D02*
D03*
X364961D02*
D03*
X357480Y293307D02*
D03*
X364961D02*
D03*
X181962Y295205D02*
D03*
X174481D02*
D03*
X181890Y285433D02*
D03*
X174409D02*
D03*
X421457Y160433D02*
D03*
X428937D02*
D03*
D23*
X68898Y267717D02*
D03*
X238189Y213583D02*
D03*
X32480Y99410D02*
D03*
X316929Y255906D02*
D03*
X421260Y150591D02*
D03*
X81879Y156882D02*
D03*
X31457Y224317D02*
D03*
X142126Y288386D02*
D03*
X47244Y11811D02*
D03*
X527559Y259842D02*
D03*
X11811Y220472D02*
D03*
X240158Y316122D02*
D03*
D24*
X216535Y166181D02*
D03*
Y172402D02*
D03*
Y154370D02*
D03*
Y160591D02*
D03*
X496673Y156610D02*
D03*
Y162831D02*
D03*
X387795Y143858D02*
D03*
Y137638D02*
D03*
X394685Y143858D02*
D03*
Y137638D02*
D03*
X380906Y143858D02*
D03*
Y137638D02*
D03*
X401575Y143858D02*
D03*
Y137638D02*
D03*
X14764Y99252D02*
D03*
Y105473D02*
D03*
X20669D02*
D03*
Y99252D02*
D03*
X229331Y71024D02*
D03*
Y64803D02*
D03*
X222441Y85276D02*
D03*
Y91496D02*
D03*
X229331Y85276D02*
D03*
Y91496D02*
D03*
X236653Y85276D02*
D03*
Y91496D02*
D03*
X220472Y128583D02*
D03*
Y134803D02*
D03*
X103690Y134677D02*
D03*
Y128457D02*
D03*
X31496Y212441D02*
D03*
Y218661D02*
D03*
X274232Y270827D02*
D03*
Y264606D02*
D03*
X332677Y316102D02*
D03*
Y309882D02*
D03*
Y303465D02*
D03*
Y297244D02*
D03*
Y290354D02*
D03*
Y284134D02*
D03*
X198819Y264606D02*
D03*
Y270827D02*
D03*
Y250827D02*
D03*
Y257047D02*
D03*
X496673Y138035D02*
D03*
Y131814D02*
D03*
X483290Y138035D02*
D03*
Y131814D02*
D03*
X470351Y138035D02*
D03*
Y131814D02*
D03*
X450019Y138035D02*
D03*
Y131814D02*
D03*
X456931Y138035D02*
D03*
Y131814D02*
D03*
D25*
X240158Y270098D02*
D03*
Y332264D02*
D03*
D26*
X522795Y117508D02*
D03*
X516575D02*
D03*
X522795Y146465D02*
D03*
X516575D02*
D03*
X522795Y139020D02*
D03*
X516575D02*
D03*
Y124646D02*
D03*
X522795D02*
D03*
Y131972D02*
D03*
X516575D02*
D03*
X103561Y56102D02*
D03*
X97342D02*
D03*
X151813Y56102D02*
D03*
X158031D02*
D03*
X172087D02*
D03*
X178307D02*
D03*
X306298Y242059D02*
D03*
X300077D02*
D03*
X306298Y236221D02*
D03*
X300077D02*
D03*
X285374Y203255D02*
D03*
X291594D02*
D03*
X521128Y192547D02*
D03*
X514907D02*
D03*
X521128Y215598D02*
D03*
X514907D02*
D03*
X54604Y164756D02*
D03*
X60824D02*
D03*
X60824Y157866D02*
D03*
X54604D02*
D03*
X74359Y164756D02*
D03*
X68138D02*
D03*
X60824Y150976D02*
D03*
X54604D02*
D03*
X78392Y76021D02*
D03*
X72172D02*
D03*
X60824Y144087D02*
D03*
X54604D02*
D03*
X45305Y68262D02*
D03*
X51525D02*
D03*
X51525Y62441D02*
D03*
X45305D02*
D03*
X45305Y56619D02*
D03*
X51525D02*
D03*
D27*
X341831Y13739D02*
D03*
X339272D02*
D03*
X432074Y332087D02*
D03*
X434633D02*
D03*
D28*
X336788Y13739D02*
D03*
Y10983D02*
D03*
X429134Y329331D02*
D03*
Y332087D02*
D03*
X437522Y332087D02*
D03*
Y329331D02*
D03*
X344488Y10983D02*
D03*
Y13739D02*
D03*
D29*
X229331Y54331D02*
D03*
X211614D02*
D03*
Y18504D02*
D03*
X229331D02*
D03*
X239173D02*
D03*
X256890D02*
D03*
Y54331D02*
D03*
X239173D02*
D03*
D30*
X526575Y93504D02*
D03*
X512795D02*
D03*
X526575Y85630D02*
D03*
X512795D02*
D03*
Y77756D02*
D03*
X526575D02*
D03*
X512795Y109252D02*
D03*
X526575D02*
D03*
X512795Y101378D02*
D03*
X526575D02*
D03*
D31*
X259842Y177677D02*
D03*
Y172677D02*
D03*
X259842Y167677D02*
D03*
X259842Y162677D02*
D03*
Y157677D02*
D03*
Y152677D02*
D03*
Y147677D02*
D03*
Y142677D02*
D03*
Y137677D02*
D03*
Y132677D02*
D03*
X259842Y127677D02*
D03*
X259842Y122677D02*
D03*
Y117677D02*
D03*
Y112677D02*
D03*
X328740D02*
D03*
Y117677D02*
D03*
Y122677D02*
D03*
X328740Y127677D02*
D03*
X328740Y132677D02*
D03*
Y137677D02*
D03*
Y142677D02*
D03*
Y147677D02*
D03*
Y152677D02*
D03*
Y157677D02*
D03*
Y162677D02*
D03*
X328740Y167677D02*
D03*
X328740Y172677D02*
D03*
Y177677D02*
D03*
D32*
X271811Y107756D02*
D03*
X276811Y107756D02*
D03*
X281811Y107756D02*
D03*
X286811D02*
D03*
X291811Y107756D02*
D03*
X296811Y107756D02*
D03*
X301811Y107756D02*
D03*
X306811Y107756D02*
D03*
X311811D02*
D03*
X316811Y107756D02*
D03*
D33*
X282874Y154291D02*
D03*
X288386D02*
D03*
X293898D02*
D03*
X282874Y148779D02*
D03*
X288386D02*
D03*
X293898Y148779D02*
D03*
X282874Y143268D02*
D03*
X288386D02*
D03*
X293898D02*
D03*
D34*
X224012Y107677D02*
D03*
X227555D02*
D03*
X231099D02*
D03*
X234642D02*
D03*
Y112401D02*
D03*
X231099D02*
D03*
X227555D02*
D03*
X224012D02*
D03*
D35*
X450198Y337841D02*
D03*
Y326227D02*
D03*
X355217Y19587D02*
D03*
Y7972D02*
D03*
D36*
X443702Y332034D02*
D03*
X348721Y13780D02*
D03*
D37*
X289173Y220276D02*
D03*
X292913Y211614D02*
D03*
X285433D02*
D03*
D38*
X512402Y203740D02*
D03*
X521063Y207480D02*
D03*
Y200000D02*
D03*
X512402Y226916D02*
D03*
X521063Y230656D02*
D03*
Y223175D02*
D03*
D39*
X272047Y68898D02*
D03*
Y61024D02*
D03*
Y53150D02*
D03*
Y45276D02*
D03*
Y37402D02*
D03*
Y29528D02*
D03*
Y21654D02*
D03*
Y13780D02*
D03*
X330315D02*
D03*
Y21654D02*
D03*
Y29528D02*
D03*
Y37402D02*
D03*
Y45276D02*
D03*
Y53150D02*
D03*
Y61024D02*
D03*
Y68898D02*
D03*
D40*
X186961Y271346D02*
D03*
X180268D02*
D03*
X173575D02*
D03*
X166882D02*
D03*
X160189D02*
D03*
D41*
X292520Y278350D02*
D03*
X285827D02*
D03*
X299213D02*
D03*
X305906D02*
D03*
X312598D02*
D03*
D42*
X245669Y236221D02*
D03*
D43*
X270079Y245276D02*
D03*
Y236221D02*
D03*
Y227165D02*
D03*
D44*
X172638Y199803D02*
D03*
X199409D02*
D03*
D45*
X104264Y94874D02*
D03*
X143241D02*
D03*
D46*
X39835Y126428D02*
D03*
X28024D02*
D03*
X39835Y114618D02*
D03*
X28024D02*
D03*
D47*
X145669Y152559D02*
D03*
Y140748D02*
D03*
X134843Y152559D02*
D03*
Y140748D02*
D03*
D48*
X78209Y137185D02*
D03*
D49*
X70138Y133346D02*
D03*
Y135906D02*
D03*
Y138465D02*
D03*
Y141024D02*
D03*
X86279Y138465D02*
D03*
Y135906D02*
D03*
Y133346D02*
D03*
Y141024D02*
D03*
D50*
X74370Y145256D02*
D03*
X76929D02*
D03*
X79488D02*
D03*
X82047D02*
D03*
Y129114D02*
D03*
X79488D02*
D03*
X76929D02*
D03*
X74370D02*
D03*
D51*
X88583Y94488D02*
D03*
X61024D02*
D03*
D52*
X41417Y200590D02*
D03*
Y218701D02*
D03*
D53*
X66417Y209646D02*
D03*
D54*
X9646Y79646D02*
D03*
Y89646D02*
D03*
X45472D02*
D03*
Y79646D02*
D03*
D55*
X329323Y226522D02*
D03*
X326764D02*
D03*
X324205D02*
D03*
X321646D02*
D03*
X319087D02*
D03*
X316528D02*
D03*
X313969D02*
D03*
X311410D02*
D03*
X308851D02*
D03*
X306292D02*
D03*
Y203688D02*
D03*
X308851D02*
D03*
X311410D02*
D03*
X313969D02*
D03*
X316528D02*
D03*
X319087D02*
D03*
X321646D02*
D03*
X324205D02*
D03*
X326764D02*
D03*
X329323D02*
D03*
D56*
X408268Y184449D02*
D03*
X413386D02*
D03*
X418504D02*
D03*
X435827D02*
D03*
X440945D02*
D03*
X446063D02*
D03*
X451181D02*
D03*
X456299D02*
D03*
X461417D02*
D03*
X466536D02*
D03*
X471654D02*
D03*
X476772D02*
D03*
X481890D02*
D03*
X487008D02*
D03*
Y308465D02*
D03*
X481890D02*
D03*
X476772D02*
D03*
X471654D02*
D03*
X466536D02*
D03*
X461417D02*
D03*
X440945D02*
D03*
X435827D02*
D03*
X418504D02*
D03*
X413386D02*
D03*
X408268D02*
D03*
X403150D02*
D03*
X398031D02*
D03*
X392913D02*
D03*
X387795D02*
D03*
X425591D02*
D03*
X430709D02*
D03*
Y184449D02*
D03*
X425591D02*
D03*
X446063Y308465D02*
D03*
X451181D02*
D03*
X456299D02*
D03*
X403150Y184449D02*
D03*
X398031D02*
D03*
X392913D02*
D03*
X387795D02*
D03*
D57*
X493504Y208858D02*
D03*
Y213976D02*
D03*
Y219094D02*
D03*
Y224213D02*
D03*
Y229331D02*
D03*
Y254921D02*
D03*
Y260039D02*
D03*
Y265158D02*
D03*
Y270276D02*
D03*
Y275394D02*
D03*
Y280512D02*
D03*
Y285630D02*
D03*
X493504Y295866D02*
D03*
X381299D02*
D03*
X381299Y290748D02*
D03*
Y285630D02*
D03*
Y280512D02*
D03*
Y275394D02*
D03*
Y270276D02*
D03*
Y265158D02*
D03*
Y234449D02*
D03*
Y229331D02*
D03*
Y224213D02*
D03*
Y219094D02*
D03*
Y213976D02*
D03*
Y208858D02*
D03*
X493504Y203740D02*
D03*
Y198622D02*
D03*
X381299D02*
D03*
Y203740D02*
D03*
Y239567D02*
D03*
Y244685D02*
D03*
Y249803D02*
D03*
Y254921D02*
D03*
Y260039D02*
D03*
X493504Y290748D02*
D03*
Y249803D02*
D03*
Y244685D02*
D03*
Y239567D02*
D03*
Y234449D02*
D03*
D58*
X431102Y249606D02*
D03*
X443701Y243307D02*
D03*
X431102Y237008D02*
D03*
X394094Y203150D02*
D03*
X409842D02*
D03*
X425591D02*
D03*
X433465D02*
D03*
X441339D02*
D03*
X449213D02*
D03*
X457087D02*
D03*
X457087Y195276D02*
D03*
X464961D02*
D03*
X480709D02*
D03*
X472835D02*
D03*
X449213D02*
D03*
X440945D02*
D03*
X433465D02*
D03*
X425591D02*
D03*
X417717D02*
D03*
X409842D02*
D03*
X401968D02*
D03*
X394094D02*
D03*
X480709Y203150D02*
D03*
X472835D02*
D03*
X464961D02*
D03*
X417717D02*
D03*
X401968D02*
D03*
X443701Y237008D02*
D03*
X437402D02*
D03*
Y243307D02*
D03*
X431102D02*
D03*
X443701Y249606D02*
D03*
X437402D02*
D03*
X443701Y255906D02*
D03*
X437402D02*
D03*
X431102D02*
D03*
D59*
X399606Y278740D02*
D03*
X418504D02*
D03*
X437402D02*
D03*
X456299D02*
D03*
X475197D02*
D03*
X399606Y266142D02*
D03*
X418504D02*
D03*
X437402D02*
D03*
X456299D02*
D03*
X475197D02*
D03*
X399606Y252756D02*
D03*
X418504D02*
D03*
X456299D02*
D03*
X475197D02*
D03*
X399606Y240158D02*
D03*
X418504Y239567D02*
D03*
X456299Y240158D02*
D03*
X475197D02*
D03*
X399606Y226772D02*
D03*
X418504D02*
D03*
X437402D02*
D03*
X456299D02*
D03*
X475197D02*
D03*
X399606Y214173D02*
D03*
X418504D02*
D03*
X437402D02*
D03*
X456299D02*
D03*
X475197D02*
D03*
D60*
X299213Y319094D02*
D03*
D61*
X184055Y178937D02*
D03*
Y139961D02*
D03*
D62*
X98110Y230315D02*
D03*
Y257874D02*
D03*
X128937Y230315D02*
D03*
Y257874D02*
D03*
D63*
X446850Y113218D02*
D03*
Y65974D02*
D03*
X498032D02*
D03*
Y113218D02*
D03*
D64*
X482205Y119065D02*
D03*
D65*
X458465D02*
D03*
X468465D02*
D03*
X478465D02*
D03*
X453465D02*
D03*
X463465D02*
D03*
X473465D02*
D03*
D136*
X173575Y230658D02*
D03*
D142*
X228346Y205354D02*
D03*
Y195354D02*
D03*
Y185354D02*
D03*
Y175354D02*
D03*
Y165354D02*
D03*
X174213Y110236D02*
D03*
X193898D02*
D03*
X157980Y329224D02*
D03*
Y309539D02*
D03*
X16732Y252953D02*
D03*
X36417D02*
D03*
D143*
X228346Y155354D02*
D03*
D144*
X240158Y286634D02*
D03*
D145*
X98110Y194882D02*
D03*
X118110D02*
D03*
X138110D02*
D03*
D146*
X484055Y48228D02*
D03*
X474055D02*
D03*
X464055D02*
D03*
X454055D02*
D03*
X444055D02*
D03*
X434055D02*
D03*
D147*
X494055D02*
D03*
D148*
X191890Y36417D02*
D03*
X103661D02*
D03*
D149*
X171890D02*
D03*
X151890D02*
D03*
X131890D02*
D03*
X83661D02*
D03*
X63661D02*
D03*
D150*
X70866Y285433D02*
D03*
Y309842D02*
D03*
D151*
X52362Y298031D02*
D03*
D152*
X104724Y328346D02*
D03*
X131496Y281890D02*
D03*
X112205Y292520D02*
D03*
Y305118D02*
D03*
Y317717D02*
D03*
X124016Y292520D02*
D03*
Y305118D02*
D03*
D153*
Y317717D02*
D03*
M02*
