G04*
G04 #@! TF.GenerationSoftware,Altium Limited,Altium Designer,24.5.2 (23)*
G04*
G04 Layer_Color=16711935*
%FSLAX25Y25*%
%MOIN*%
G70*
G04*
G04 #@! TF.SameCoordinates,BE9660E5-E2A0-4720-87AB-8DA6D5481385*
G04*
G04*
G04 #@! TF.FilePolarity,Negative*
G04*
G01*
G75*
%ADD74C,0.04737*%
%ADD114C,0.07874*%
%ADD119C,0.06706*%
%ADD120R,0.06706X0.06706*%
%ADD121C,0.05918*%
%ADD122C,0.14580*%
%ADD123C,0.07296*%
%ADD124R,0.07296X0.07296*%
%ADD125R,0.12611X0.12611*%
%ADD126C,0.12611*%
%ADD127R,0.20485X0.08674*%
%ADD128R,0.08674X0.20485*%
%ADD129C,0.08674*%
%ADD130R,0.08674X0.08674*%
G36*
X124007Y132260D02*
X84626D01*
Y132264D01*
X74272D01*
Y150965D01*
X84626D01*
Y171630D01*
X124007D01*
Y132260D01*
D02*
G37*
D74*
X240158Y316122D02*
D03*
D114*
X47244Y11811D02*
D03*
X527559Y259842D02*
D03*
X11811Y220472D02*
D03*
D119*
X228346Y205354D02*
D03*
Y195354D02*
D03*
Y185354D02*
D03*
Y175354D02*
D03*
Y165354D02*
D03*
X174213Y110236D02*
D03*
X193898D02*
D03*
X157980Y329224D02*
D03*
Y309539D02*
D03*
X16732Y252953D02*
D03*
X36417D02*
D03*
D120*
X228346Y155354D02*
D03*
D121*
X240158Y286634D02*
D03*
D122*
X98110Y194882D02*
D03*
X118110D02*
D03*
X138110D02*
D03*
D123*
X484055Y48228D02*
D03*
X474055D02*
D03*
X464055D02*
D03*
X454055D02*
D03*
X444055D02*
D03*
X434055D02*
D03*
D124*
X494055D02*
D03*
D125*
X191890Y36417D02*
D03*
X103661D02*
D03*
D126*
X171890D02*
D03*
X151890D02*
D03*
X131890D02*
D03*
X83661D02*
D03*
X63661D02*
D03*
D127*
X70866Y285433D02*
D03*
Y309842D02*
D03*
D128*
X52362Y298031D02*
D03*
D129*
X104724Y328346D02*
D03*
X131496Y281890D02*
D03*
X112205Y292520D02*
D03*
Y305118D02*
D03*
Y317717D02*
D03*
X124016Y292520D02*
D03*
Y305118D02*
D03*
D130*
Y317717D02*
D03*
M02*
