G04*
G04 #@! TF.GenerationSoftware,Altium Limited,Altium Designer,24.5.2 (23)*
G04*
G04 Layer_Physical_Order=4*
G04 Layer_Color=16711680*
%FSLAX25Y25*%
%MOIN*%
G70*
G04*
G04 #@! TF.SameCoordinates,BE9660E5-E2A0-4720-87AB-8DA6D5481385*
G04*
G04*
G04 #@! TF.FilePolarity,Positive*
G04*
G01*
G75*
%ADD23C,0.03937*%
%ADD131C,0.01320*%
%ADD133C,0.01968*%
%ADD135C,0.03150*%
%ADD139C,0.03937*%
%ADD142C,0.05906*%
%ADD143R,0.05906X0.05906*%
%ADD144C,0.05118*%
%ADD145C,0.13780*%
%ADD146C,0.06496*%
%ADD147R,0.06496X0.06496*%
%ADD148R,0.11811X0.11811*%
%ADD149C,0.11811*%
%ADD150R,0.19685X0.07874*%
%ADD151R,0.07874X0.19685*%
%ADD152C,0.07874*%
%ADD153R,0.07874X0.07874*%
%ADD154C,0.02000*%
%ADD155C,0.02756*%
%ADD156C,0.03150*%
%ADD157C,0.04724*%
G36*
X39370Y340312D02*
X404492D01*
Y303150D01*
X404570Y302759D01*
X404791Y302429D01*
X405122Y302208D01*
X405512Y302130D01*
X406957D01*
X407411Y301450D01*
X409391D01*
Y300950D01*
X409891D01*
Y298992D01*
X410050Y299058D01*
X410330Y298383D01*
X410893Y297820D01*
X411526Y297558D01*
Y299516D01*
X412526D01*
Y297558D01*
X413159Y297820D01*
X413567Y298229D01*
X413892Y297905D01*
X414525Y297642D01*
Y299600D01*
X415524D01*
Y297642D01*
X416157Y297905D01*
X416720Y298467D01*
X417025Y299202D01*
X417045Y299216D01*
X417090Y299197D01*
Y301155D01*
X417590D01*
Y301655D01*
X419659D01*
X419976Y302130D01*
X459646D01*
X460036Y302208D01*
X460367Y302429D01*
X460588Y302759D01*
X460665Y303150D01*
Y340312D01*
X499300D01*
X499315Y340312D01*
X500000Y340312D01*
X500657Y340207D01*
X500672Y340204D01*
X501241Y339824D01*
X501622Y339254D01*
X501625Y339239D01*
X501729Y338583D01*
X501741Y338523D01*
X501741Y337883D01*
X501743Y308057D01*
X501756Y307988D01*
X501736Y307571D01*
X501920Y303834D01*
X502469Y300132D01*
X503378Y296502D01*
X504638Y292979D01*
X506238Y289597D01*
X508162Y286387D01*
X510391Y283381D01*
X512904Y280609D01*
X515677Y278096D01*
X518682Y275867D01*
X521892Y273943D01*
X525275Y272343D01*
X528798Y271082D01*
X532428Y270173D01*
X536129Y269624D01*
X537162Y269573D01*
Y181735D01*
X533465D01*
X533465Y181735D01*
Y181735D01*
X533380Y181719D01*
X531827Y181596D01*
X530231Y181213D01*
X528713Y180585D01*
X527313Y179727D01*
X526064Y178660D01*
X524998Y177411D01*
X524140Y176011D01*
X523511Y174494D01*
X523128Y172897D01*
X522999Y171260D01*
X523128Y169623D01*
X523511Y168026D01*
X524140Y166509D01*
X524998Y165109D01*
X526064Y163860D01*
X527313Y162793D01*
X528713Y161935D01*
X530231Y161307D01*
X531827Y160923D01*
X533380Y160801D01*
X533465Y160784D01*
X537162D01*
Y72948D01*
X536130Y72897D01*
X532429Y72348D01*
X528798Y71439D01*
X525275Y70178D01*
X521892Y68578D01*
X518682Y66654D01*
X515676Y64425D01*
X512903Y61912D01*
X510390Y59139D01*
X508161Y56133D01*
X506237Y52923D01*
X504637Y49540D01*
X503376Y46016D01*
X502467Y42386D01*
X501918Y38685D01*
X501734Y34947D01*
X501755Y34530D01*
X501741Y34461D01*
Y3996D01*
X501729Y3937D01*
X501729D01*
X501625Y3280D01*
X501622Y3265D01*
X501241Y2696D01*
X500672Y2315D01*
X500066Y2195D01*
X500000Y2208D01*
X362240D01*
Y33465D01*
X362162Y33855D01*
X361941Y34185D01*
X361611Y34407D01*
X361221Y34484D01*
X323819D01*
X323429Y34407D01*
X323098Y34185D01*
X322877Y33855D01*
X322799Y33465D01*
Y2208D01*
X39370D01*
X39304Y2195D01*
X38698Y2315D01*
X38129Y2696D01*
X37748Y3265D01*
X37745Y3280D01*
X37641Y3937D01*
X37641D01*
X37629Y3996D01*
Y34461D01*
X37615Y34530D01*
X37636Y34947D01*
X37452Y38685D01*
X36903Y42386D01*
X35994Y46016D01*
X34733Y49540D01*
X33133Y52923D01*
X31209Y56133D01*
X28980Y59139D01*
X26467Y61912D01*
X23694Y64425D01*
X20688Y66654D01*
X17478Y68578D01*
X14095Y70178D01*
X10572Y71439D01*
X6942Y72348D01*
X3240Y72897D01*
X2208Y72948D01*
Y160784D01*
X5906D01*
X5906Y160784D01*
Y160784D01*
X5990Y160801D01*
X7543Y160923D01*
X9139Y161307D01*
X10657Y161935D01*
X12057Y162793D01*
X13306Y163860D01*
X14372Y165109D01*
X15230Y166509D01*
X15859Y168026D01*
X16242Y169623D01*
X16371Y171260D01*
X16242Y172897D01*
X15859Y174494D01*
X15230Y176011D01*
X14372Y177411D01*
X13306Y178660D01*
X12057Y179727D01*
X10657Y180585D01*
X9139Y181213D01*
X7543Y181596D01*
X5990Y181719D01*
X5906Y181735D01*
X2196D01*
Y269571D01*
X3240Y269623D01*
X6942Y270172D01*
X10572Y271081D01*
X14095Y272342D01*
X17478Y273942D01*
X20688Y275866D01*
X23694Y278095D01*
X26467Y280608D01*
X28980Y283381D01*
X31209Y286387D01*
X33133Y289597D01*
X34733Y292980D01*
X35994Y296503D01*
X36903Y300133D01*
X37452Y303835D01*
X37636Y307573D01*
X37615Y307990D01*
X37629Y308059D01*
Y338523D01*
X37641Y338583D01*
X37641D01*
X37745Y339239D01*
X37748Y339254D01*
X38129Y339824D01*
X38698Y340205D01*
X39304Y340325D01*
X39370Y340312D01*
D02*
G37*
%LPC*%
G36*
X158501Y333177D02*
X158480D01*
Y329724D01*
X161933D01*
Y329745D01*
X161664Y330750D01*
X161143Y331651D01*
X160407Y332387D01*
X159506Y332908D01*
X158501Y333177D01*
D02*
G37*
G36*
X157480D02*
X157460D01*
X156455Y332908D01*
X155553Y332387D01*
X154817Y331651D01*
X154297Y330750D01*
X154028Y329745D01*
Y329724D01*
X157480D01*
Y333177D01*
D02*
G37*
G36*
X105374Y333283D02*
X105225D01*
Y328846D01*
X109661D01*
Y328996D01*
X109325Y330252D01*
X108675Y331378D01*
X107756Y332297D01*
X106630Y332947D01*
X105374Y333283D01*
D02*
G37*
G36*
X104225D02*
X104074D01*
X102819Y332947D01*
X101693Y332297D01*
X100774Y331378D01*
X100124Y330252D01*
X99787Y328996D01*
Y328846D01*
X104225D01*
Y333283D01*
D02*
G37*
G36*
X161933Y328724D02*
X158480D01*
Y325272D01*
X158501D01*
X159506Y325541D01*
X160407Y326061D01*
X161143Y326797D01*
X161664Y327699D01*
X161933Y328704D01*
Y328724D01*
D02*
G37*
G36*
X157480D02*
X154028D01*
Y328704D01*
X154297Y327699D01*
X154817Y326797D01*
X155553Y326061D01*
X156455Y325541D01*
X157460Y325272D01*
X157480D01*
Y328724D01*
D02*
G37*
G36*
X104225Y327846D02*
X99787D01*
Y327696D01*
X100124Y326441D01*
X100774Y325315D01*
X101693Y324396D01*
X102819Y323746D01*
X104074Y323409D01*
X104225D01*
Y327846D01*
D02*
G37*
G36*
X240548Y319091D02*
X239767D01*
X239012Y318888D01*
X238335Y318497D01*
X237782Y317945D01*
X237391Y317268D01*
X237189Y316513D01*
Y315731D01*
X237391Y314976D01*
X237782Y314299D01*
X238335Y313747D01*
X239012Y313356D01*
X239767Y313154D01*
X240548D01*
X241303Y313356D01*
X241980Y313747D01*
X242533Y314299D01*
X242924Y314976D01*
X243126Y315731D01*
Y316513D01*
X242924Y317268D01*
X242533Y317945D01*
X241980Y318497D01*
X241303Y318888D01*
X240548Y319091D01*
D02*
G37*
G36*
X81709Y314779D02*
X71366D01*
Y310343D01*
X81709D01*
Y314779D01*
D02*
G37*
G36*
Y309343D02*
X71366D01*
Y304906D01*
X81709D01*
Y309343D01*
D02*
G37*
G36*
X419548Y300655D02*
X418090D01*
Y299197D01*
X418723Y299459D01*
X419286Y300022D01*
X419548Y300655D01*
D02*
G37*
G36*
X408891Y300450D02*
X407433D01*
X407695Y299817D01*
X408258Y299254D01*
X408891Y298992D01*
Y300450D01*
D02*
G37*
G36*
X326611Y307038D02*
X326379Y307008D01*
X326145D01*
X325919Y306947D01*
X325687Y306917D01*
X325470Y306827D01*
X325244Y306766D01*
X325041Y306649D01*
X324825Y306560D01*
X324639Y306417D01*
X324436Y306300D01*
X324270Y306134D01*
X324084Y305992D01*
X310090Y291997D01*
X309947Y291811D01*
X309782Y291646D01*
X309664Y291443D01*
X309522Y291257D01*
X309432Y291040D01*
X309315Y290838D01*
X309254Y290611D01*
X309165Y290395D01*
X309134Y290163D01*
X309074Y289936D01*
Y289702D01*
X309043Y289470D01*
X309074Y289238D01*
Y289003D01*
X309134Y288777D01*
X309165Y288545D01*
X309254Y288329D01*
X309315Y288102D01*
X309432Y287899D01*
X309522Y287683D01*
X309664Y287497D01*
X309782Y287294D01*
X309947Y287129D01*
X310090Y286943D01*
X310276Y286800D01*
X310441Y286635D01*
X310644Y286518D01*
X310830Y286375D01*
X311046Y286285D01*
X311249Y286168D01*
X311475Y286107D01*
X311692Y286018D01*
X311924Y285987D01*
X312150Y285927D01*
X312385D01*
X312617Y285896D01*
X312849Y285927D01*
X313083D01*
X313310Y285987D01*
X313542Y286018D01*
X313758Y286107D01*
X313984Y286168D01*
X314187Y286285D01*
X314404Y286375D01*
X314590Y286518D01*
X314792Y286635D01*
X314958Y286800D01*
X315144Y286943D01*
X329139Y300937D01*
X329281Y301123D01*
X329447Y301289D01*
X329564Y301492D01*
X329707Y301678D01*
X329796Y301894D01*
X329913Y302097D01*
X329974Y302323D01*
X330064Y302540D01*
X330094Y302772D01*
X330155Y302998D01*
Y303232D01*
X330185Y303465D01*
X330155Y303697D01*
Y303931D01*
X330094Y304157D01*
X330064Y304390D01*
X329974Y304606D01*
X329913Y304832D01*
X329796Y305035D01*
X329707Y305252D01*
X329564Y305437D01*
X329447Y305640D01*
X329281Y305806D01*
X329139Y305992D01*
X328953Y306134D01*
X328787Y306300D01*
X328584Y306417D01*
X328398Y306560D01*
X328182Y306649D01*
X327979Y306766D01*
X327753Y306827D01*
X327537Y306917D01*
X327304Y306947D01*
X327078Y307008D01*
X326844D01*
X326611Y307038D01*
D02*
G37*
G36*
X240626Y290193D02*
X239689D01*
X238784Y289950D01*
X237972Y289482D01*
X237310Y288819D01*
X236841Y288008D01*
X236598Y287102D01*
Y286165D01*
X236841Y285260D01*
X237310Y284449D01*
X237972Y283786D01*
X238784Y283317D01*
X239689Y283075D01*
X240626D01*
X241531Y283317D01*
X242343Y283786D01*
X243005Y284449D01*
X243474Y285260D01*
X243717Y286165D01*
Y287102D01*
X243474Y288008D01*
X243005Y288819D01*
X242343Y289482D01*
X241531Y289950D01*
X240626Y290193D01*
D02*
G37*
G36*
X132146Y286827D02*
X131996D01*
Y282390D01*
X136433D01*
Y282540D01*
X136097Y283795D01*
X135447Y284921D01*
X134527Y285840D01*
X133402Y286490D01*
X132146Y286827D01*
D02*
G37*
G36*
X109661Y327846D02*
X105225D01*
Y323409D01*
X105374D01*
X105918Y323555D01*
X106280Y322927D01*
X106089Y322736D01*
X105227Y321446D01*
X104633Y320013D01*
X104331Y318492D01*
Y316941D01*
X104633Y315420D01*
X104976Y314592D01*
X104587Y314010D01*
X104331D01*
X103303Y313875D01*
X102345Y313478D01*
X101523Y312847D01*
X100892Y312025D01*
X100495Y311067D01*
X100360Y310039D01*
Y300197D01*
X100495Y299169D01*
X100892Y298211D01*
X101523Y297389D01*
X102345Y296758D01*
X103303Y296361D01*
X104331Y296226D01*
X104587D01*
X104976Y295644D01*
X104633Y294816D01*
X104331Y293295D01*
Y291744D01*
X104633Y290223D01*
X105227Y288790D01*
X106089Y287500D01*
X107185Y286403D01*
X108475Y285542D01*
X109908Y284948D01*
X111429Y284646D01*
X112980D01*
X114502Y284948D01*
X115935Y285542D01*
X117224Y286403D01*
X118110Y287290D01*
X118996Y286403D01*
X120286Y285542D01*
X121719Y284948D01*
X123240Y284646D01*
X124791D01*
X126312Y284948D01*
X126891Y285188D01*
X127379Y284632D01*
X126895Y283795D01*
X126559Y282540D01*
Y282390D01*
X130996D01*
Y286827D01*
X130846D01*
X130303Y286681D01*
X129940Y287309D01*
X130132Y287500D01*
X130994Y288790D01*
X131587Y290223D01*
X131890Y291744D01*
Y293295D01*
X131587Y294816D01*
X131245Y295644D01*
X131633Y296226D01*
X169291D01*
X170319Y296361D01*
X171277Y296758D01*
X172099Y297389D01*
X172730Y298211D01*
X173127Y299169D01*
X173262Y300197D01*
Y316929D01*
X173127Y317957D01*
X172730Y318915D01*
X172099Y319737D01*
X171277Y320368D01*
X170319Y320765D01*
X169291Y320900D01*
X138780D01*
X138779Y320900D01*
X137752Y320765D01*
X136794Y320368D01*
X135972Y319737D01*
X132536Y316302D01*
X131890Y316570D01*
Y325590D01*
X116142D01*
Y325366D01*
X115442Y324899D01*
X114502Y325288D01*
X112980Y325590D01*
X111429D01*
X109908Y325288D01*
X109329Y325048D01*
X108842Y325604D01*
X109325Y326441D01*
X109661Y327696D01*
Y327846D01*
D02*
G37*
G36*
X70366Y314779D02*
X60024D01*
Y311811D01*
X44488D01*
Y284252D01*
X48391D01*
Y246920D01*
X29672Y228202D01*
X29041Y227379D01*
X28645Y226421D01*
X28509Y225394D01*
Y113189D01*
X28645Y112161D01*
X29041Y111204D01*
X29672Y110381D01*
X41607Y98447D01*
Y96501D01*
X41542Y96389D01*
X41247Y95288D01*
Y94147D01*
X41542Y93046D01*
X42112Y92058D01*
X42919Y91252D01*
X43906Y90682D01*
X45008Y90387D01*
X46148D01*
X47249Y90682D01*
X48237Y91252D01*
X49043Y92058D01*
X49613Y93046D01*
X49908Y94147D01*
Y95288D01*
X49613Y96389D01*
X49549Y96501D01*
Y100092D01*
X49413Y101119D01*
X49017Y102077D01*
X48386Y102899D01*
X36451Y114834D01*
Y223749D01*
X55170Y242468D01*
X55801Y243290D01*
X56198Y244248D01*
X56333Y245276D01*
Y284252D01*
X57087D01*
Y277559D01*
X84646D01*
Y293307D01*
X60236D01*
Y304906D01*
X70366D01*
Y309842D01*
Y314779D01*
D02*
G37*
G36*
X136433Y281390D02*
X131996D01*
Y276953D01*
X132146D01*
X133402Y277289D01*
X134527Y277939D01*
X135447Y278858D01*
X136097Y279984D01*
X136433Y281240D01*
Y281390D01*
D02*
G37*
G36*
X130996D02*
X126559D01*
Y281240D01*
X126895Y279984D01*
X127545Y278858D01*
X128465Y277939D01*
X129590Y277289D01*
X130846Y276953D01*
X130996D01*
Y281390D01*
D02*
G37*
G36*
X263600Y282922D02*
X262675Y282800D01*
X261813Y282443D01*
X261073Y281875D01*
X261073Y281875D01*
X254363Y275165D01*
X253795Y274425D01*
X253438Y273563D01*
X253316Y272638D01*
Y257158D01*
X252616Y256892D01*
X251986Y257376D01*
X251028Y257773D01*
X250000Y257908D01*
X226053D01*
X225785Y258555D01*
X234107Y266877D01*
X234266Y267084D01*
X234450Y267268D01*
X234580Y267493D01*
X234738Y267700D01*
X234838Y267940D01*
X234968Y268165D01*
X235035Y268417D01*
X235135Y268657D01*
X235169Y268915D01*
X235236Y269167D01*
Y269427D01*
X235270Y269685D01*
X235236Y269943D01*
Y270203D01*
X235169Y270455D01*
X235135Y270713D01*
X235035Y270953D01*
X234968Y271205D01*
X234838Y271430D01*
X234738Y271671D01*
X234580Y271877D01*
X234450Y272102D01*
X234266Y272286D01*
X234107Y272493D01*
X233901Y272651D01*
X233717Y272835D01*
X233491Y272966D01*
X233285Y273124D01*
X233044Y273224D01*
X232819Y273354D01*
X232568Y273421D01*
X232327Y273521D01*
X232069Y273555D01*
X231818Y273622D01*
X231557D01*
X231299Y273656D01*
X231041Y273622D01*
X230781D01*
X230529Y273555D01*
X230272Y273521D01*
X230031Y273421D01*
X229780Y273354D01*
X229554Y273224D01*
X229314Y273124D01*
X229107Y272966D01*
X228882Y272835D01*
X228698Y272651D01*
X228491Y272493D01*
X213727Y257729D01*
X213096Y256907D01*
X212700Y255949D01*
X212564Y254921D01*
Y215551D01*
X212700Y214523D01*
X213096Y213566D01*
X213727Y212743D01*
X217486Y208985D01*
Y179919D01*
X216976Y179527D01*
X216095D01*
X215244Y179299D01*
X214481Y178859D01*
X213858Y178236D01*
X213417Y177473D01*
X213189Y176622D01*
Y175741D01*
X213417Y174889D01*
X213858Y174126D01*
X214481Y173503D01*
X215244Y173063D01*
X216095Y172835D01*
X216976D01*
X217486Y172443D01*
Y150591D01*
X217621Y149563D01*
X218018Y148605D01*
X218649Y147783D01*
X225553Y140879D01*
Y133067D01*
X225688Y132039D01*
X226084Y131081D01*
X226715Y130259D01*
X230666Y126308D01*
Y124915D01*
X230444Y124823D01*
X229966Y124689D01*
X229133Y125170D01*
X228132Y125438D01*
X227095D01*
X226094Y125170D01*
X225196Y124652D01*
X224463Y123919D01*
X223945Y123021D01*
X223676Y122020D01*
Y120983D01*
X223945Y119982D01*
X224463Y119084D01*
X225196Y118351D01*
X226094Y117833D01*
X227095Y117564D01*
X228132D01*
X229133Y117833D01*
X230031Y118351D01*
X230626Y118946D01*
X230962Y119017D01*
X231053Y119011D01*
X231469Y118906D01*
X231487Y118876D01*
X231671Y118692D01*
X231830Y118485D01*
X232036Y118326D01*
X232220Y118142D01*
X232445Y118012D01*
X232652Y117854D01*
X232892Y117754D01*
X233118Y117624D01*
X233369Y117557D01*
X233193Y116872D01*
X231557D01*
X230786Y116771D01*
X230068Y116473D01*
X229451Y116000D01*
X229451Y116000D01*
X220335Y106884D01*
X218933Y105482D01*
X218460Y104865D01*
X218163Y104147D01*
X218061Y103376D01*
Y98095D01*
X210776Y90810D01*
X210303Y90193D01*
X210005Y89475D01*
X209904Y88704D01*
Y88597D01*
X209871Y88519D01*
X209770Y87748D01*
Y70237D01*
X203668Y64136D01*
X120852D01*
X120852Y64136D01*
X120081Y64034D01*
X119363Y63737D01*
X118746Y63263D01*
X113459Y57977D01*
X98790D01*
X98744Y58677D01*
X99008Y58711D01*
X99966Y59108D01*
X100788Y59739D01*
X106960Y65911D01*
X120079D01*
X121107Y66046D01*
X122064Y66443D01*
X122887Y67074D01*
X140918Y85106D01*
X141549Y85928D01*
X141946Y86886D01*
X142081Y87913D01*
Y184788D01*
X142266Y184848D01*
X143785Y185622D01*
X145163Y186624D01*
X146368Y187829D01*
X147370Y189207D01*
X148144Y190726D01*
X148670Y192347D01*
X148937Y194030D01*
Y195734D01*
X148670Y197417D01*
X148144Y199038D01*
X147370Y200556D01*
X146368Y201935D01*
X145163Y203140D01*
X143785Y204142D01*
X142266Y204915D01*
X140646Y205442D01*
X138962Y205709D01*
X137258D01*
X135575Y205442D01*
X133954Y204915D01*
X132436Y204142D01*
X131057Y203140D01*
X129852Y201935D01*
X128850Y200556D01*
X128077Y199038D01*
X127550Y197417D01*
X127284Y195734D01*
Y194030D01*
X127550Y192347D01*
X128077Y190726D01*
X128850Y189207D01*
X129852Y187829D01*
X131057Y186624D01*
X132436Y185622D01*
X133954Y184848D01*
X134139Y184788D01*
Y89558D01*
X118434Y73853D01*
X105315D01*
X104287Y73718D01*
X103330Y73321D01*
X102507Y72690D01*
X96335Y66518D01*
X58728D01*
X58617Y66583D01*
X57515Y66878D01*
X56375D01*
X55273Y66583D01*
X54286Y66013D01*
X53479Y65206D01*
X52909Y64219D01*
X52614Y63117D01*
Y61977D01*
X52909Y60875D01*
X53479Y59888D01*
X54286Y59082D01*
X54987Y58677D01*
X54800Y57977D01*
X50566D01*
X26712Y81830D01*
X26095Y82304D01*
X25377Y82601D01*
X24606Y82703D01*
X21847D01*
X21360Y83190D01*
X20372Y83760D01*
X19271Y84055D01*
X18131D01*
X17029Y83760D01*
X16042Y83190D01*
X15235Y82384D01*
X14665Y81396D01*
X14370Y80295D01*
Y79154D01*
X14665Y78053D01*
X15235Y77065D01*
X16042Y76259D01*
X17029Y75689D01*
X18131Y75394D01*
X19271D01*
X20372Y75689D01*
X21360Y76259D01*
X21847Y76746D01*
X23373D01*
X44116Y56003D01*
X43935Y55327D01*
X43633Y55246D01*
X42646Y54676D01*
X41840Y53870D01*
X41269Y52882D01*
X40974Y51781D01*
Y50640D01*
X41269Y49539D01*
X41840Y48551D01*
X42646Y47745D01*
X43633Y47175D01*
X44735Y46880D01*
X45875D01*
X46977Y47175D01*
X47964Y47745D01*
X48451Y48232D01*
X87399D01*
X87801Y47532D01*
X87598Y46778D01*
Y46198D01*
X86904Y45728D01*
X86532Y45882D01*
X84631Y46260D01*
X82692D01*
X80791Y45882D01*
X78999Y45140D01*
X77387Y44063D01*
X76016Y42692D01*
X74939Y41080D01*
X74197Y39288D01*
X73819Y37387D01*
Y35448D01*
X74197Y33546D01*
X74939Y31755D01*
X76016Y30143D01*
X77387Y28772D01*
X78999Y27695D01*
X80791Y26953D01*
X82692Y26575D01*
X84631D01*
X86532Y26953D01*
X88324Y27695D01*
X89936Y28772D01*
X91307Y30143D01*
X92384Y31755D01*
X93126Y33546D01*
X93819Y33443D01*
Y26575D01*
X113504D01*
Y42048D01*
X124297Y52841D01*
X153641D01*
X154178Y52141D01*
X154077Y51763D01*
Y50726D01*
X154345Y49725D01*
X154863Y48827D01*
X155596Y48094D01*
X156494Y47576D01*
X157495Y47307D01*
X157578D01*
X157868Y46607D01*
X156445Y45184D01*
X154761Y45882D01*
X152859Y46260D01*
X150920D01*
X149019Y45882D01*
X147228Y45140D01*
X145615Y44063D01*
X144245Y42692D01*
X143167Y41080D01*
X142426Y39288D01*
X142047Y37387D01*
Y35448D01*
X142426Y33546D01*
X143167Y31755D01*
X144245Y30143D01*
X145615Y28772D01*
X147228Y27695D01*
X149019Y26953D01*
X150920Y26575D01*
X152859D01*
X154761Y26953D01*
X156552Y27695D01*
X158164Y28772D01*
X159535Y30143D01*
X160612Y31755D01*
X161354Y33546D01*
X161533Y34446D01*
X162247D01*
X162425Y33546D01*
X163167Y31755D01*
X164245Y30143D01*
X165615Y28772D01*
X167228Y27695D01*
X169019Y26953D01*
X170920Y26575D01*
X172859D01*
X174761Y26953D01*
X176552Y27695D01*
X178164Y28772D01*
X179535Y30143D01*
X180612Y31755D01*
X181354Y33546D01*
X182047Y33443D01*
Y26575D01*
X201732D01*
Y46260D01*
X190701D01*
X190433Y46907D01*
X191028Y47502D01*
X209325D01*
X210095Y47604D01*
X210814Y47901D01*
X211431Y48374D01*
X225531Y62475D01*
X226486Y63429D01*
X226486Y63429D01*
X226959Y64046D01*
X227256Y64765D01*
X227358Y65535D01*
X227358Y65535D01*
Y75588D01*
X228058Y75990D01*
X228812Y75787D01*
X229849D01*
X230850Y76056D01*
X231748Y76574D01*
X232481Y77307D01*
X232655Y77608D01*
X233463D01*
X233565Y77432D01*
X234298Y76699D01*
X235196Y76180D01*
X236197Y75912D01*
X237233D01*
X238235Y76180D01*
X239133Y76699D01*
X239866Y77432D01*
X240384Y78329D01*
X240652Y79331D01*
Y80367D01*
X240384Y81369D01*
X239866Y82266D01*
X239133Y82999D01*
X238235Y83518D01*
X237233Y83786D01*
X236197D01*
X235196Y83518D01*
X234298Y82999D01*
X233565Y82266D01*
X233391Y81966D01*
X232583D01*
X232481Y82142D01*
X231748Y82875D01*
X230850Y83393D01*
X229849Y83661D01*
X228812D01*
X228478Y83572D01*
X228116Y84199D01*
X236692Y92776D01*
X237172D01*
X238173Y93044D01*
X239071Y93562D01*
X239804Y94295D01*
X240322Y95193D01*
X240590Y96194D01*
Y97231D01*
X240322Y98232D01*
X239804Y99130D01*
X239071Y99863D01*
X238173Y100381D01*
X237172Y100650D01*
X236135D01*
X235792Y100558D01*
X234968Y100929D01*
X234450Y101827D01*
X233717Y102560D01*
X233246Y102831D01*
X233116Y103691D01*
X235002Y105577D01*
X239191D01*
X239962Y105678D01*
X240680Y105976D01*
X241297Y106449D01*
X248058Y113210D01*
X248586Y113739D01*
X248586Y113739D01*
X249060Y114356D01*
X249357Y115074D01*
X249459Y115845D01*
Y121289D01*
X250875Y122705D01*
X251575Y122415D01*
Y122237D01*
X251803Y121386D01*
X252243Y120622D01*
X252867Y119999D01*
X253630Y119559D01*
X254481Y119331D01*
X255362D01*
X256213Y119559D01*
X256456Y119699D01*
X312113D01*
X327618Y104193D01*
X327619Y104193D01*
X328777Y103034D01*
X328509Y102388D01*
X321115D01*
X320120Y103383D01*
X320047Y103654D01*
X319607Y104417D01*
X318984Y105040D01*
X318221Y105481D01*
X317370Y105709D01*
X316489D01*
X315637Y105481D01*
X314874Y105040D01*
X314251Y104417D01*
X313811Y103654D01*
X313583Y102803D01*
Y101922D01*
X313811Y101070D01*
X314251Y100307D01*
X314874Y99684D01*
X315637Y99244D01*
X315908Y99171D01*
X317776Y97303D01*
X318393Y96830D01*
X319111Y96533D01*
X319882Y96431D01*
X319882Y96431D01*
X489173D01*
X489944Y96533D01*
X490662Y96830D01*
X491279Y97303D01*
X502330Y108354D01*
X503111Y108145D01*
X503221Y107732D01*
X503739Y106835D01*
X504472Y106102D01*
X505163Y105703D01*
X505207Y105563D01*
Y105066D01*
X505163Y104927D01*
X504472Y104528D01*
X503739Y103795D01*
X503221Y102898D01*
X502953Y101896D01*
Y100860D01*
X503221Y99858D01*
X503739Y98961D01*
X504472Y98228D01*
X505163Y97829D01*
X505207Y97689D01*
Y97192D01*
X505163Y97053D01*
X504472Y96654D01*
X503739Y95921D01*
X503221Y95024D01*
X502953Y94022D01*
Y92986D01*
X503221Y91984D01*
X503739Y91087D01*
X504472Y90354D01*
X505163Y89955D01*
X505207Y89815D01*
Y89318D01*
X505163Y89179D01*
X504472Y88780D01*
X503739Y88047D01*
X503221Y87150D01*
X502953Y86148D01*
Y85112D01*
X503221Y84110D01*
X503739Y83213D01*
X504472Y82480D01*
X505163Y82081D01*
X505207Y81941D01*
Y81444D01*
X505163Y81305D01*
X504472Y80906D01*
X503739Y80173D01*
X503221Y79276D01*
X502953Y78274D01*
Y77238D01*
X503221Y76236D01*
X503739Y75339D01*
X504472Y74606D01*
X505370Y74087D01*
X506371Y73819D01*
X507408D01*
X508409Y74087D01*
X509307Y74606D01*
X509479Y74778D01*
X512837D01*
X513608Y74879D01*
X514326Y75177D01*
X514943Y75650D01*
X530649Y91356D01*
X530649Y91356D01*
X531122Y91973D01*
X531420Y92691D01*
X531522Y93462D01*
Y114918D01*
X531694Y115091D01*
X532212Y115988D01*
X532480Y116990D01*
Y118026D01*
X532212Y119027D01*
X531694Y119925D01*
X530961Y120658D01*
X530842Y120727D01*
Y121427D01*
X530961Y121495D01*
X531694Y122228D01*
X532212Y123126D01*
X532480Y124127D01*
Y125164D01*
X532212Y126165D01*
X531694Y127063D01*
X530961Y127796D01*
X530678Y127959D01*
Y128659D01*
X530961Y128822D01*
X531694Y129555D01*
X532212Y130453D01*
X532480Y131454D01*
Y132491D01*
X532212Y133492D01*
X531694Y134390D01*
X531000Y135084D01*
X530920Y135236D01*
Y135756D01*
X531000Y135908D01*
X531694Y136602D01*
X532212Y137500D01*
X532480Y138501D01*
Y139538D01*
X532212Y140539D01*
X531694Y141437D01*
X530961Y142170D01*
X530670Y142338D01*
Y143146D01*
X530961Y143314D01*
X531694Y144047D01*
X532212Y144945D01*
X532480Y145946D01*
Y146983D01*
X532212Y147984D01*
X531694Y148882D01*
X530961Y149615D01*
X530063Y150133D01*
X529062Y150402D01*
X528025D01*
X527024Y150133D01*
X526126Y149615D01*
X525393Y148882D01*
X524875Y147984D01*
X524606Y146983D01*
Y146739D01*
X515125Y137258D01*
X514539Y137662D01*
X514764Y138501D01*
Y139538D01*
X514496Y140539D01*
X513977Y141437D01*
X513244Y142170D01*
X512953Y142338D01*
Y143146D01*
X513244Y143314D01*
X513977Y144047D01*
X514496Y144945D01*
X514764Y145946D01*
Y146983D01*
X514496Y147984D01*
X513977Y148882D01*
X513244Y149615D01*
X512346Y150133D01*
X511345Y150402D01*
X510308D01*
X510140Y150356D01*
X509585Y150783D01*
Y153665D01*
X509483Y154436D01*
X509186Y155154D01*
X508712Y155771D01*
X508712Y155771D01*
X490416Y174067D01*
X489799Y174540D01*
X489081Y174837D01*
X488310Y174939D01*
X479557D01*
X479117Y175121D01*
X478346Y175222D01*
X417191D01*
X417055Y175732D01*
X416536Y176630D01*
X415803Y177363D01*
X414906Y177881D01*
X413904Y178150D01*
X412867D01*
X411866Y177881D01*
X410968Y177363D01*
X410236Y176630D01*
X409717Y175732D01*
X409449Y174731D01*
Y173694D01*
X409596Y173143D01*
X408914Y172960D01*
X408016Y172442D01*
X407283Y171709D01*
X406764Y170811D01*
X406496Y169810D01*
Y168773D01*
X406764Y167772D01*
X407283Y166874D01*
X408016Y166141D01*
X408914Y165623D01*
X409915Y165354D01*
X410951D01*
X411953Y165623D01*
X412850Y166141D01*
X413023Y166313D01*
X448481D01*
X448819Y165873D01*
Y164836D01*
X449087Y163835D01*
X449606Y162937D01*
X450339Y162204D01*
X451236Y161686D01*
X452238Y161417D01*
X453274D01*
X454276Y161686D01*
X454440Y161781D01*
X469976D01*
X482647Y149110D01*
Y111920D01*
X482552Y111756D01*
X482283Y110755D01*
Y109718D01*
X482552Y108717D01*
X483070Y107819D01*
X483803Y107086D01*
X483909Y107025D01*
X483721Y106325D01*
X333911D01*
X331830Y108405D01*
X331830Y108405D01*
X315452Y124783D01*
X314836Y125256D01*
X314117Y125554D01*
X313347Y125655D01*
X258318D01*
X257968Y126262D01*
X258040Y126385D01*
X258268Y127237D01*
Y128118D01*
X258040Y128969D01*
X257599Y129732D01*
X256976Y130355D01*
X256213Y130796D01*
X255362Y131024D01*
X254481D01*
X253630Y130796D01*
X253387Y130655D01*
X251635D01*
X251635Y130655D01*
X251250Y130605D01*
X250864Y130554D01*
X250146Y130256D01*
X249529Y129783D01*
X247436Y127690D01*
X246789Y127958D01*
Y142886D01*
X248602Y144699D01*
X251524D01*
X251874Y144093D01*
X251803Y143969D01*
X251575Y143118D01*
Y142237D01*
X251803Y141385D01*
X252243Y140622D01*
X252689Y140177D01*
X252243Y139732D01*
X251803Y138969D01*
X251575Y138118D01*
Y137237D01*
X251803Y136386D01*
X252243Y135622D01*
X252867Y134999D01*
X253630Y134559D01*
X254481Y134331D01*
X255362D01*
X256213Y134559D01*
X256456Y134699D01*
X269567D01*
X270338Y134800D01*
X271056Y135098D01*
X271673Y135571D01*
X302477Y166376D01*
X303124Y166108D01*
Y140910D01*
X303226Y140139D01*
X303523Y139421D01*
X303996Y138804D01*
X325812Y116989D01*
X325812Y116989D01*
X326429Y116515D01*
X327147Y116218D01*
X327918Y116116D01*
X327918Y116116D01*
X331828D01*
X332114Y115622D01*
X332737Y114999D01*
X333500Y114559D01*
X334351Y114331D01*
X335232D01*
X336083Y114559D01*
X336846Y114999D01*
X337469Y115622D01*
X337910Y116385D01*
X338138Y117237D01*
Y118118D01*
X337910Y118969D01*
X337703Y119326D01*
X338108Y120026D01*
X388220D01*
Y120010D01*
X390202Y120166D01*
X392135Y120630D01*
X393971Y121390D01*
X395666Y122429D01*
X397177Y123720D01*
X397166Y123731D01*
X399419Y125984D01*
X400125D01*
X401126Y126253D01*
X402024Y126771D01*
X402757Y127504D01*
X403275Y128402D01*
X403543Y129403D01*
Y130440D01*
X403275Y131441D01*
X402757Y132339D01*
X402024Y133072D01*
X401126Y133590D01*
X400125Y133858D01*
X399088D01*
X398087Y133590D01*
X398004Y133542D01*
X397153Y133785D01*
X396851Y134307D01*
X396118Y135040D01*
X395220Y135558D01*
X394219Y135827D01*
X393861D01*
X393271Y136092D01*
X392028Y137112D01*
X390610Y137870D01*
X389072Y138337D01*
X387472Y138495D01*
Y138478D01*
X386032D01*
X385997Y138473D01*
X384597Y138611D01*
X383217Y139030D01*
X381945Y139710D01*
X380857Y140602D01*
X380836Y140630D01*
X349843Y171623D01*
X349854Y171634D01*
X348343Y172925D01*
X346648Y173964D01*
X344812Y174725D01*
X342879Y175189D01*
X340897Y175345D01*
Y175328D01*
X339602D01*
Y183071D01*
X339525Y183461D01*
X339304Y183792D01*
X338973Y184013D01*
X338583Y184090D01*
X319138D01*
X318870Y184737D01*
X321237Y187104D01*
X321711Y187721D01*
X322008Y188439D01*
X322110Y189210D01*
Y208319D01*
X322566Y209110D01*
X322835Y210112D01*
Y211148D01*
X322566Y212150D01*
X322158Y212857D01*
X322446Y213557D01*
X358018D01*
X362067Y209508D01*
X362067Y209508D01*
X362684Y209035D01*
X363402Y208737D01*
X364173Y208636D01*
X505656D01*
X507849Y206444D01*
Y195137D01*
X507676Y194965D01*
X507158Y194067D01*
X506890Y193066D01*
Y192029D01*
X507158Y191028D01*
X507676Y190130D01*
X508409Y189397D01*
X509307Y188879D01*
X510308Y188610D01*
X511345D01*
X512346Y188879D01*
X513244Y189397D01*
X513977Y190130D01*
X514496Y191028D01*
X514764Y192029D01*
Y193066D01*
X514496Y194067D01*
X513977Y194965D01*
X513805Y195137D01*
Y207677D01*
X513805Y207677D01*
X513703Y208448D01*
X513406Y209166D01*
X512933Y209783D01*
X511687Y211028D01*
X511897Y211809D01*
X512346Y211930D01*
X513244Y212448D01*
X513977Y213181D01*
X514496Y214079D01*
X514764Y215080D01*
Y216117D01*
X514496Y217118D01*
X513977Y218016D01*
X513244Y218749D01*
X512346Y219267D01*
X511345Y219535D01*
X510308D01*
X509307Y219267D01*
X508409Y218749D01*
X508237Y218577D01*
X367328D01*
X364693Y221211D01*
X364698Y222170D01*
X364882Y222355D01*
X365323Y223118D01*
X365396Y223389D01*
X391870Y249863D01*
X391870Y249863D01*
X392343Y250479D01*
X392640Y251198D01*
X392742Y251969D01*
X392742Y251969D01*
Y261261D01*
X392882Y261504D01*
X393110Y262355D01*
Y263236D01*
X392882Y264087D01*
X392442Y264850D01*
X391819Y265473D01*
X391055Y265914D01*
X390204Y266142D01*
X389323D01*
X388472Y265914D01*
X387709Y265473D01*
X387086Y264850D01*
X386645Y264087D01*
X386417Y263236D01*
Y262355D01*
X386645Y261504D01*
X386786Y261261D01*
Y253202D01*
X361184Y227600D01*
X360913Y227528D01*
X360150Y227087D01*
X359527Y226464D01*
X359086Y225701D01*
X358858Y224850D01*
Y223969D01*
X358461Y223451D01*
X312008D01*
X311237Y223349D01*
X310519Y223052D01*
X309902Y222578D01*
X296406Y209082D01*
X295933Y208466D01*
X295635Y207747D01*
X295534Y206976D01*
Y173599D01*
X267590Y145655D01*
X258318D01*
X257968Y146262D01*
X258040Y146386D01*
X258268Y147237D01*
Y148118D01*
X258040Y148969D01*
X257599Y149732D01*
X257154Y150177D01*
X257599Y150622D01*
X258040Y151385D01*
X258268Y152237D01*
Y153118D01*
X258040Y153969D01*
X257599Y154732D01*
X257154Y155177D01*
X257599Y155622D01*
X258040Y156386D01*
X258268Y157237D01*
Y158118D01*
X258040Y158969D01*
X257599Y159732D01*
X257154Y160177D01*
X257599Y160622D01*
X258040Y161386D01*
X258268Y162237D01*
Y163118D01*
X258040Y163969D01*
X257599Y164732D01*
X256976Y165355D01*
X256213Y165796D01*
X255362Y166024D01*
X254481D01*
X253630Y165796D01*
X253387Y165655D01*
X243660D01*
X243418Y165796D01*
X242566Y166024D01*
X241685D01*
X240834Y165796D01*
X240071Y165355D01*
X239448Y164732D01*
X239008Y163969D01*
X238779Y163118D01*
Y162237D01*
X239008Y161386D01*
X239448Y160622D01*
X240071Y159999D01*
X240834Y159559D01*
X241685Y159331D01*
X242566D01*
X243418Y159559D01*
X243660Y159699D01*
X247439D01*
X247706Y159052D01*
X241004Y152350D01*
X241004Y152350D01*
X239036Y150382D01*
X238562Y149765D01*
X238265Y149047D01*
X238163Y148276D01*
Y143701D01*
Y130975D01*
X237463Y130737D01*
X237445Y130761D01*
X233494Y134712D01*
Y142524D01*
X233359Y143552D01*
X232962Y144509D01*
X232331Y145332D01*
X229845Y147818D01*
X230113Y148465D01*
X235236D01*
Y162244D01*
X231741D01*
X231473Y162891D01*
X231509Y162927D01*
X232030Y163829D01*
X232299Y164834D01*
Y164854D01*
X228346D01*
Y165854D01*
X232299D01*
Y165875D01*
X232030Y166880D01*
X231509Y167781D01*
X231037Y168254D01*
X231154Y169060D01*
X231610Y169249D01*
X232738Y170003D01*
X233698Y170962D01*
X234452Y172091D01*
X234971Y173345D01*
X235236Y174676D01*
Y176033D01*
X234971Y177364D01*
X234452Y178618D01*
X233698Y179746D01*
X233090Y180354D01*
X233698Y180962D01*
X234452Y182091D01*
X234971Y183345D01*
X235236Y184676D01*
Y186033D01*
X234971Y187364D01*
X234452Y188618D01*
X233698Y189746D01*
X233090Y190354D01*
X233698Y190962D01*
X234452Y192091D01*
X234971Y193345D01*
X235236Y194676D01*
Y194856D01*
X270420D01*
X280274Y185003D01*
X280346Y184732D01*
X280787Y183969D01*
X281410Y183346D01*
X282173Y182905D01*
X283024Y182677D01*
X283905D01*
X284756Y182905D01*
X285519Y183346D01*
X285979Y183805D01*
X286417Y183906D01*
X286856Y183805D01*
X287315Y183346D01*
X288078Y182905D01*
X288930Y182677D01*
X289811D01*
X290662Y182905D01*
X291425Y183346D01*
X292048Y183969D01*
X292489Y184732D01*
X292717Y185583D01*
Y186464D01*
X292489Y187315D01*
X292048Y188078D01*
X291425Y188701D01*
X290662Y189142D01*
X290391Y189215D01*
X274744Y204862D01*
X274127Y205335D01*
X273409Y205633D01*
X272638Y205734D01*
X235236D01*
Y206033D01*
X234971Y207364D01*
X234452Y208618D01*
X233698Y209746D01*
X232738Y210706D01*
X231610Y211460D01*
X230633Y211864D01*
X230773Y212564D01*
X250000D01*
X251028Y212700D01*
X251986Y213096D01*
X252808Y213727D01*
X253439Y214550D01*
X253836Y215508D01*
X253971Y216535D01*
Y229284D01*
X254671Y229574D01*
X261404Y222841D01*
X262144Y222273D01*
X263006Y221916D01*
X263931Y221794D01*
X263931Y221794D01*
X289246D01*
X289478Y221824D01*
X289712D01*
X289938Y221885D01*
X290171Y221916D01*
X290387Y222005D01*
X290613Y222066D01*
X290816Y222183D01*
X291033Y222273D01*
X291218Y222415D01*
X291421Y222532D01*
X291587Y222698D01*
X291773Y222841D01*
X291915Y223026D01*
X292081Y223192D01*
X292198Y223395D01*
X292341Y223581D01*
X292430Y223797D01*
X292547Y224000D01*
X292608Y224226D01*
X292698Y224443D01*
X292728Y224675D01*
X292789Y224901D01*
Y225135D01*
X292819Y225368D01*
X292789Y225600D01*
Y225834D01*
X292728Y226061D01*
X292698Y226293D01*
X292608Y226509D01*
X292547Y226735D01*
X292430Y226938D01*
X292341Y227155D01*
X292198Y227341D01*
X292081Y227543D01*
X291915Y227709D01*
X291773Y227895D01*
X291587Y228037D01*
X291421Y228203D01*
X291218Y228320D01*
X291033Y228463D01*
X290816Y228552D01*
X290613Y228670D01*
X290387Y228730D01*
X290171Y228820D01*
X289938Y228850D01*
X289712Y228911D01*
X289478D01*
X289246Y228942D01*
X265412D01*
X260464Y233890D01*
Y242264D01*
X261046Y242653D01*
X261161Y242605D01*
X262189Y242470D01*
X294617D01*
X295644Y242605D01*
X296602Y243002D01*
X297425Y243633D01*
X297619Y243886D01*
X297779Y243897D01*
X298677Y243378D01*
X299678Y243110D01*
X300715D01*
X301716Y243378D01*
X302614Y243897D01*
X303347Y244630D01*
X303866Y245528D01*
X304134Y246529D01*
Y247566D01*
X303866Y248567D01*
X303347Y249465D01*
X302614Y250198D01*
X301716Y250716D01*
X300715Y250984D01*
X299678D01*
X299288Y250880D01*
X298588Y251417D01*
Y266732D01*
X298452Y267760D01*
X298056Y268718D01*
X297425Y269540D01*
X296602Y270171D01*
X295644Y270568D01*
X294617Y270703D01*
X262189D01*
X261556Y270620D01*
X260882Y271097D01*
X260833Y271190D01*
X260806Y271500D01*
X265081Y275774D01*
X274267D01*
X274499Y275805D01*
X274733D01*
X274959Y275866D01*
X275191Y275896D01*
X275408Y275986D01*
X275634Y276046D01*
X275837Y276164D01*
X276054Y276253D01*
X276239Y276396D01*
X276442Y276513D01*
X276608Y276678D01*
X276794Y276821D01*
X276936Y277007D01*
X277102Y277173D01*
X277219Y277376D01*
X277362Y277561D01*
X277451Y277778D01*
X277568Y277981D01*
X277629Y278207D01*
X277719Y278423D01*
X277749Y278656D01*
X277810Y278882D01*
Y279116D01*
X277840Y279348D01*
X277810Y279580D01*
Y279815D01*
X277749Y280041D01*
X277719Y280273D01*
X277629Y280490D01*
X277568Y280716D01*
X277451Y280919D01*
X277362Y281135D01*
X277219Y281321D01*
X277102Y281524D01*
X276936Y281690D01*
X276794Y281875D01*
X276608Y282018D01*
X276442Y282184D01*
X276239Y282301D01*
X276054Y282443D01*
X275837Y282533D01*
X275634Y282650D01*
X275408Y282711D01*
X275191Y282800D01*
X274959Y282831D01*
X274733Y282892D01*
X274499D01*
X274267Y282922D01*
X263600D01*
X263600Y282922D01*
D02*
G37*
G36*
X528077Y263779D02*
X527041D01*
X526039Y263511D01*
X525142Y262993D01*
X524409Y262260D01*
X523890Y261362D01*
X523622Y260361D01*
Y259324D01*
X523890Y258323D01*
X524409Y257425D01*
X525142Y256692D01*
X526039Y256174D01*
X527041Y255906D01*
X528077D01*
X529079Y256174D01*
X529976Y256692D01*
X530709Y257425D01*
X531228Y258323D01*
X531496Y259324D01*
Y260361D01*
X531228Y261362D01*
X530709Y262260D01*
X529976Y262993D01*
X529079Y263511D01*
X528077Y263779D01*
D02*
G37*
G36*
X17253Y256906D02*
X17232D01*
Y253453D01*
X20685D01*
Y253473D01*
X20416Y254479D01*
X19895Y255380D01*
X19159Y256116D01*
X18258Y256636D01*
X17253Y256906D01*
D02*
G37*
G36*
X16232D02*
X16212D01*
X15207Y256636D01*
X14305Y256116D01*
X13569Y255380D01*
X13049Y254479D01*
X12779Y253473D01*
Y253453D01*
X16232D01*
Y256906D01*
D02*
G37*
G36*
X20685Y252453D02*
X17232D01*
Y249000D01*
X17253D01*
X18258Y249269D01*
X19159Y249790D01*
X19895Y250526D01*
X20416Y251427D01*
X20685Y252432D01*
Y252453D01*
D02*
G37*
G36*
X16232D02*
X12779D01*
Y252432D01*
X13049Y251427D01*
X13569Y250526D01*
X14305Y249790D01*
X15207Y249269D01*
X16212Y249000D01*
X16232D01*
Y252453D01*
D02*
G37*
G36*
X37096Y259842D02*
X35739D01*
X34408Y259578D01*
X33154Y259058D01*
X32025Y258304D01*
X31066Y257345D01*
X30312Y256216D01*
X29792Y254962D01*
X29528Y253631D01*
Y252274D01*
X29792Y250943D01*
X30312Y249689D01*
X31066Y248561D01*
X32025Y247601D01*
X33154Y246847D01*
X34408Y246328D01*
X35739Y246063D01*
X37096D01*
X38427Y246328D01*
X39681Y246847D01*
X40809Y247601D01*
X41769Y248561D01*
X42523Y249689D01*
X43042Y250943D01*
X43307Y252274D01*
Y253631D01*
X43042Y254962D01*
X42523Y256216D01*
X41769Y257345D01*
X40809Y258304D01*
X39681Y259058D01*
X38427Y259578D01*
X37096Y259842D01*
D02*
G37*
G36*
X321385Y247047D02*
X320348D01*
X319346Y246779D01*
X318449Y246261D01*
X317716Y245528D01*
X317197Y244630D01*
X316929Y243629D01*
Y242592D01*
X317197Y241591D01*
X317716Y240693D01*
X318449Y239960D01*
X319346Y239441D01*
X320348Y239173D01*
X321385D01*
X322386Y239441D01*
X323284Y239960D01*
X324016Y240693D01*
X324535Y241591D01*
X324803Y242592D01*
Y243629D01*
X324535Y244630D01*
X324016Y245528D01*
X323284Y246261D01*
X322386Y246779D01*
X321385Y247047D01*
D02*
G37*
G36*
X12329Y224409D02*
X11293D01*
X10291Y224141D01*
X9394Y223623D01*
X8661Y222890D01*
X8142Y221992D01*
X7874Y220991D01*
Y219954D01*
X8142Y218953D01*
X8661Y218055D01*
X9394Y217322D01*
X10291Y216804D01*
X11293Y216535D01*
X12329D01*
X13331Y216804D01*
X14228Y217322D01*
X14961Y218055D01*
X15480Y218953D01*
X15748Y219954D01*
Y220991D01*
X15480Y221992D01*
X14961Y222890D01*
X14228Y223623D01*
X13331Y224141D01*
X12329Y224409D01*
D02*
G37*
G36*
X118887Y202772D02*
X118610D01*
Y195382D01*
X126000D01*
Y195659D01*
X125697Y197183D01*
X125102Y198619D01*
X124239Y199911D01*
X123140Y201010D01*
X121847Y201874D01*
X120412Y202468D01*
X118887Y202772D01*
D02*
G37*
G36*
X117610D02*
X117333D01*
X115809Y202468D01*
X114373Y201874D01*
X113081Y201010D01*
X111982Y199911D01*
X111118Y198619D01*
X110524Y197183D01*
X110221Y195659D01*
Y195382D01*
X117610D01*
Y202772D01*
D02*
G37*
G36*
X343286Y200000D02*
X342250D01*
X341248Y199732D01*
X340351Y199213D01*
X339618Y198480D01*
X339099Y197583D01*
X338831Y196581D01*
Y195545D01*
X339099Y194543D01*
X339618Y193646D01*
X340351Y192913D01*
X341248Y192394D01*
X342250Y192126D01*
X343286D01*
X344288Y192394D01*
X345185Y192913D01*
X345918Y193646D01*
X346437Y194543D01*
X346705Y195545D01*
Y196581D01*
X346437Y197583D01*
X345918Y198480D01*
X345185Y199213D01*
X344288Y199732D01*
X343286Y200000D01*
D02*
G37*
G36*
X126000Y194382D02*
X118610D01*
Y186992D01*
X118887D01*
X120412Y187295D01*
X121847Y187890D01*
X123140Y188753D01*
X124239Y189852D01*
X125102Y191145D01*
X125697Y192580D01*
X126000Y194105D01*
Y194382D01*
D02*
G37*
G36*
X117610D02*
X110221D01*
Y194105D01*
X110524Y192580D01*
X111118Y191145D01*
X111982Y189852D01*
X113081Y188753D01*
X114373Y187890D01*
X115809Y187295D01*
X117333Y186992D01*
X117610D01*
Y194382D01*
D02*
G37*
G36*
X98962Y205709D02*
X97258D01*
X95575Y205442D01*
X93954Y204915D01*
X92436Y204142D01*
X91057Y203140D01*
X89852Y201935D01*
X88850Y200556D01*
X88077Y199038D01*
X87888Y198456D01*
X86614D01*
X85689Y198334D01*
X84827Y197977D01*
X84087Y197409D01*
X62886Y176208D01*
X62318Y175468D01*
X61961Y174606D01*
X61839Y173681D01*
Y152648D01*
X61745Y152484D01*
X61476Y151483D01*
Y150446D01*
X61745Y149445D01*
X62263Y148547D01*
X62996Y147814D01*
X63894Y147296D01*
X64895Y147028D01*
X65932D01*
X66933Y147296D01*
X67831Y147814D01*
X68564Y148547D01*
X69082Y149445D01*
X69350Y150446D01*
Y151483D01*
X69082Y152484D01*
X68987Y152648D01*
Y172201D01*
X87434Y190648D01*
X88220Y190444D01*
X88850Y189207D01*
X89852Y187829D01*
X91057Y186624D01*
X92436Y185622D01*
X93954Y184848D01*
X95575Y184322D01*
X97258Y184055D01*
X98962D01*
X100645Y184322D01*
X102266Y184848D01*
X103785Y185622D01*
X105163Y186624D01*
X106368Y187829D01*
X107370Y189207D01*
X108144Y190726D01*
X108670Y192347D01*
X108937Y194030D01*
Y195734D01*
X108670Y197417D01*
X108144Y199038D01*
X107370Y200556D01*
X106368Y201935D01*
X105163Y203140D01*
X103785Y204142D01*
X102266Y204915D01*
X100645Y205442D01*
X98962Y205709D01*
D02*
G37*
G36*
X79711Y174587D02*
X78675D01*
X77673Y174318D01*
X76775Y173800D01*
X76042Y173067D01*
X75524Y172169D01*
X75256Y171168D01*
Y170131D01*
X75524Y169130D01*
X76042Y168232D01*
X76775Y167499D01*
X77673Y166981D01*
X78675Y166713D01*
X79711D01*
X80712Y166981D01*
X81610Y167499D01*
X82343Y168232D01*
X82862Y169130D01*
X83130Y170131D01*
Y171168D01*
X82862Y172169D01*
X82343Y173067D01*
X81610Y173800D01*
X80712Y174318D01*
X79711Y174587D01*
D02*
G37*
G36*
X49444Y161791D02*
X48408D01*
X47406Y161523D01*
X46509Y161005D01*
X45776Y160272D01*
X45257Y159374D01*
X44989Y158373D01*
Y157336D01*
X45257Y156335D01*
X45776Y155437D01*
X46509Y154704D01*
X47406Y154186D01*
X48408Y153917D01*
X49444D01*
X50446Y154186D01*
X51343Y154704D01*
X52076Y155437D01*
X52595Y156335D01*
X52863Y157336D01*
Y158373D01*
X52595Y159374D01*
X52076Y160272D01*
X51343Y161005D01*
X50446Y161523D01*
X49444Y161791D01*
D02*
G37*
G36*
X74790Y160807D02*
X73753D01*
X72752Y160539D01*
X71854Y160020D01*
X71121Y159287D01*
X70603Y158390D01*
X70335Y157388D01*
Y156352D01*
X70603Y155350D01*
X71121Y154453D01*
X71854Y153720D01*
X72752Y153201D01*
X73753Y152933D01*
X74790D01*
X75791Y153201D01*
X76689Y153720D01*
X77422Y154453D01*
X77940Y155350D01*
X78209Y156352D01*
Y157388D01*
X77940Y158390D01*
X77422Y159287D01*
X76689Y160020D01*
X75791Y160539D01*
X74790Y160807D01*
D02*
G37*
G36*
X402093Y153543D02*
X401056D01*
X400055Y153275D01*
X399157Y152757D01*
X398564Y152163D01*
X398130Y152080D01*
X397696Y152163D01*
X397102Y152757D01*
X396205Y153275D01*
X395203Y153543D01*
X394167D01*
X393165Y153275D01*
X392268Y152757D01*
X391674Y152163D01*
X391240Y152080D01*
X390807Y152163D01*
X390213Y152757D01*
X389315Y153275D01*
X388314Y153543D01*
X387277D01*
X386276Y153275D01*
X385378Y152757D01*
X384784Y152163D01*
X384350Y152080D01*
X383917Y152163D01*
X383323Y152757D01*
X382425Y153275D01*
X381424Y153543D01*
X380387D01*
X379386Y153275D01*
X378488Y152757D01*
X377755Y152024D01*
X377237Y151126D01*
X376969Y150125D01*
Y149088D01*
X377237Y148087D01*
X377755Y147189D01*
X378488Y146456D01*
X379386Y145938D01*
X380387Y145669D01*
X381424D01*
X382425Y145938D01*
X383323Y146456D01*
X383917Y147050D01*
X384350Y147133D01*
X384784Y147050D01*
X385378Y146456D01*
X386276Y145938D01*
X387277Y145669D01*
X388314D01*
X389315Y145938D01*
X390213Y146456D01*
X390807Y147050D01*
X391240Y147133D01*
X391674Y147050D01*
X392268Y146456D01*
X393165Y145938D01*
X394167Y145669D01*
X395203D01*
X396205Y145938D01*
X397102Y146456D01*
X397696Y147050D01*
X398130Y147133D01*
X398564Y147050D01*
X399157Y146456D01*
X400055Y145938D01*
X401056Y145669D01*
X402093D01*
X403094Y145938D01*
X403992Y146456D01*
X404725Y147189D01*
X405243Y148087D01*
X405512Y149088D01*
Y150125D01*
X405243Y151126D01*
X404725Y152024D01*
X403992Y152757D01*
X403094Y153275D01*
X402093Y153543D01*
D02*
G37*
G36*
X421778Y159449D02*
X420742D01*
X419740Y159180D01*
X418843Y158662D01*
X418110Y157929D01*
X417591Y157031D01*
X417323Y156030D01*
Y154993D01*
X417591Y153992D01*
X418110Y153094D01*
X418843Y152361D01*
X419740Y151843D01*
X420742Y151575D01*
X421778D01*
X422780Y151843D01*
X423677Y152361D01*
X424410Y153094D01*
X424929Y153992D01*
X425197Y154993D01*
Y156030D01*
X424929Y157031D01*
X424410Y157929D01*
X423677Y158662D01*
X422780Y159180D01*
X421778Y159449D01*
D02*
G37*
G36*
X443432Y147638D02*
X442395D01*
X441394Y147370D01*
X440496Y146851D01*
X439763Y146118D01*
X439245Y145220D01*
X438976Y144219D01*
Y143183D01*
X439245Y142181D01*
X439763Y141283D01*
X440496Y140550D01*
X441394Y140032D01*
X442395Y139764D01*
X443432D01*
X444433Y140032D01*
X445331Y140550D01*
X446064Y141283D01*
X446582Y142181D01*
X446850Y143183D01*
Y144219D01*
X446582Y145220D01*
X446064Y146118D01*
X445331Y146851D01*
X444433Y147370D01*
X443432Y147638D01*
D02*
G37*
G36*
X49444Y148012D02*
X48408D01*
X47406Y147743D01*
X46509Y147225D01*
X45776Y146492D01*
X45257Y145595D01*
X44989Y144593D01*
Y143556D01*
X45257Y142555D01*
X45776Y141657D01*
X46509Y140925D01*
X47347Y140440D01*
X47474Y140260D01*
X47618Y139722D01*
X47499Y139602D01*
X46981Y138705D01*
X46713Y137703D01*
Y136667D01*
X46981Y135665D01*
X47499Y134768D01*
X48232Y134035D01*
X49130Y133516D01*
X50131Y133248D01*
X51168D01*
X52169Y133516D01*
X53067Y134035D01*
X53800Y134768D01*
X54318Y135665D01*
X54587Y136667D01*
Y137703D01*
X54318Y138705D01*
X53800Y139602D01*
X53067Y140335D01*
X52228Y140820D01*
X52101Y141000D01*
X51957Y141538D01*
X52076Y141657D01*
X52595Y142555D01*
X52863Y143556D01*
Y144593D01*
X52595Y145595D01*
X52076Y146492D01*
X51343Y147225D01*
X50446Y147743D01*
X49444Y148012D01*
D02*
G37*
G36*
X69817Y131870D02*
X68884D01*
X67983Y131629D01*
X67382Y131282D01*
X66781Y131629D01*
X65880Y131870D01*
X64947D01*
X64046Y131629D01*
X63445Y131282D01*
X62844Y131629D01*
X61943Y131870D01*
X61010D01*
X60109Y131629D01*
X59508Y131282D01*
X58907Y131629D01*
X58006Y131870D01*
X57073D01*
X56172Y131629D01*
X55571Y131282D01*
X54970Y131629D01*
X54069Y131870D01*
X53136D01*
X52235Y131629D01*
X51634Y131282D01*
X51033Y131629D01*
X50132Y131870D01*
X49199D01*
X48298Y131629D01*
X47697Y131282D01*
X47096Y131629D01*
X46195Y131870D01*
X45262D01*
X44361Y131629D01*
X43553Y131162D01*
X42893Y130502D01*
X42426Y129694D01*
X42185Y128793D01*
Y127860D01*
X42426Y126959D01*
X42773Y126358D01*
X42426Y125757D01*
X42185Y124856D01*
Y123923D01*
X42426Y123022D01*
X42773Y122421D01*
X42426Y121820D01*
X42185Y120919D01*
Y119986D01*
X42426Y119085D01*
X42773Y118484D01*
X42426Y117883D01*
X42185Y116982D01*
Y116049D01*
X42426Y115148D01*
X42893Y114340D01*
X43553Y113680D01*
X44361Y113214D01*
X45262Y112972D01*
X46195D01*
X47096Y113214D01*
X47697Y113561D01*
X48298Y113214D01*
X49199Y112972D01*
X50132D01*
X51033Y113214D01*
X51634Y113561D01*
X52235Y113214D01*
X53136Y112972D01*
X54069D01*
X54970Y113214D01*
X55571Y113561D01*
X56172Y113214D01*
X57073Y112972D01*
X58006D01*
X58907Y113214D01*
X59508Y113561D01*
X60109Y113214D01*
X61010Y112972D01*
X61943D01*
X62844Y113214D01*
X63445Y113561D01*
X64046Y113214D01*
X64947Y112972D01*
X65880D01*
X66781Y113214D01*
X67382Y113561D01*
X67983Y113214D01*
X68884Y112972D01*
X69817D01*
X70718Y113214D01*
X71319Y113561D01*
X71920Y113214D01*
X72821Y112972D01*
X73754D01*
X74655Y113214D01*
X75463Y113680D01*
X76123Y114340D01*
X76589Y115148D01*
X76831Y116049D01*
Y116982D01*
X76589Y117883D01*
X76242Y118484D01*
X76589Y119085D01*
X76831Y119986D01*
Y120919D01*
X76589Y121820D01*
X76242Y122421D01*
X76589Y123022D01*
X76831Y123923D01*
Y124856D01*
X76589Y125757D01*
X76123Y126565D01*
X75463Y127225D01*
X74655Y127692D01*
X73754Y127933D01*
X72894D01*
Y128793D01*
X72652Y129694D01*
X72186Y130502D01*
X71526Y131162D01*
X70718Y131629D01*
X69817Y131870D01*
D02*
G37*
G36*
X95734Y131677D02*
X94801D01*
X93900Y131436D01*
X93299Y131089D01*
X92698Y131436D01*
X91797Y131677D01*
X90864D01*
X89963Y131436D01*
X89362Y131089D01*
X88761Y131436D01*
X87860Y131677D01*
X86927D01*
X86026Y131436D01*
X85218Y130969D01*
X84558Y130309D01*
X84092Y129501D01*
X83850Y128600D01*
Y127667D01*
X84092Y126766D01*
X84439Y126165D01*
X84092Y125565D01*
X83850Y124663D01*
Y123730D01*
X84092Y122829D01*
X84558Y122021D01*
X85218Y121361D01*
X86026Y120895D01*
X86927Y120653D01*
X87860D01*
X88761Y120895D01*
X89362Y121242D01*
X89963Y120895D01*
X90864Y120653D01*
X91797D01*
X92698Y120895D01*
X93300Y121242D01*
X93900Y120896D01*
X94801Y120654D01*
X95734D01*
X96635Y120896D01*
X97443Y121362D01*
X98103Y122022D01*
X98570Y122830D01*
X98811Y123731D01*
Y124664D01*
X98570Y125565D01*
X98223Y126166D01*
X98570Y126766D01*
X98811Y127667D01*
Y128600D01*
X98570Y129501D01*
X98103Y130309D01*
X97443Y130969D01*
X96635Y131436D01*
X95734Y131677D01*
D02*
G37*
G36*
X194418Y114189D02*
X194398D01*
Y110736D01*
X197850D01*
Y110757D01*
X197581Y111762D01*
X197061Y112663D01*
X196325Y113399D01*
X195423Y113920D01*
X194418Y114189D01*
D02*
G37*
G36*
X193398D02*
X193377D01*
X192372Y113920D01*
X191471Y113399D01*
X190735Y112663D01*
X190214Y111762D01*
X189945Y110757D01*
Y110736D01*
X193398D01*
Y114189D01*
D02*
G37*
G36*
X466070Y116142D02*
X465033D01*
X464032Y115873D01*
X463134Y115355D01*
X462401Y114622D01*
X461882Y113724D01*
X461614Y112723D01*
Y111686D01*
X461882Y110685D01*
X462401Y109787D01*
X463134Y109054D01*
X464032Y108536D01*
X465033Y108268D01*
X466070D01*
X467071Y108536D01*
X467969Y109054D01*
X468702Y109787D01*
X469220Y110685D01*
X469488Y111686D01*
Y112723D01*
X469220Y113724D01*
X468702Y114622D01*
X467969Y115355D01*
X467071Y115873D01*
X466070Y116142D01*
D02*
G37*
G36*
X197850Y109736D02*
X194398D01*
Y106283D01*
X194418D01*
X195423Y106553D01*
X196325Y107073D01*
X197061Y107809D01*
X197581Y108711D01*
X197850Y109716D01*
Y109736D01*
D02*
G37*
G36*
X193398D02*
X189945D01*
Y109716D01*
X190214Y108711D01*
X190735Y107809D01*
X191471Y107073D01*
X192372Y106553D01*
X193377Y106283D01*
X193398D01*
Y109736D01*
D02*
G37*
G36*
X28077Y103347D02*
X27041D01*
X26039Y103078D01*
X25142Y102560D01*
X24409Y101827D01*
X23890Y100929D01*
X23622Y99928D01*
Y98891D01*
X23890Y97890D01*
X24409Y96992D01*
X25142Y96259D01*
X26039Y95741D01*
X27041Y95473D01*
X28077D01*
X29079Y95741D01*
X29976Y96259D01*
X30709Y96992D01*
X31228Y97890D01*
X31496Y98891D01*
Y99928D01*
X31228Y100929D01*
X30709Y101827D01*
X29976Y102560D01*
X29079Y103078D01*
X28077Y103347D01*
D02*
G37*
G36*
X198819Y249637D02*
X198587Y249606D01*
X198352D01*
X198126Y249546D01*
X197894Y249515D01*
X197678Y249426D01*
X197451Y249365D01*
X197248Y249248D01*
X197032Y249158D01*
X196846Y249015D01*
X196643Y248898D01*
X196478Y248733D01*
X196292Y248590D01*
X196149Y248404D01*
X195984Y248239D01*
X195867Y248036D01*
X195724Y247850D01*
X195634Y247634D01*
X195517Y247431D01*
X195456Y247204D01*
X195367Y246988D01*
X195336Y246756D01*
X195276Y246530D01*
Y246295D01*
X195245Y246063D01*
Y215551D01*
X195367Y214626D01*
X195724Y213764D01*
X196292Y213024D01*
X202135Y207181D01*
Y97937D01*
X197058Y92860D01*
X196867Y93006D01*
X195910Y93403D01*
X194882Y93538D01*
X186664D01*
Y102362D01*
X186529Y103390D01*
X186132Y104348D01*
X185501Y105170D01*
X184678Y105801D01*
X183721Y106198D01*
X182693Y106333D01*
X180633D01*
X180513Y106559D01*
X180343Y107033D01*
X180838Y108227D01*
X181102Y109558D01*
Y110915D01*
X180838Y112246D01*
X180318Y113500D01*
X179564Y114628D01*
X178605Y115588D01*
X177476Y116342D01*
X176222Y116861D01*
X174891Y117126D01*
X173534D01*
X172203Y116861D01*
X170949Y116342D01*
X169821Y115588D01*
X168861Y114628D01*
X168107Y113500D01*
X167588Y112246D01*
X167323Y110915D01*
Y109558D01*
X167588Y108227D01*
X168082Y107033D01*
X167913Y106559D01*
X167792Y106333D01*
X161417D01*
X160390Y106198D01*
X159432Y105801D01*
X158609Y105170D01*
X157978Y104348D01*
X157582Y103390D01*
X157446Y102362D01*
Y76772D01*
X157582Y75744D01*
X157978Y74786D01*
X158609Y73964D01*
X159432Y73333D01*
X160390Y72936D01*
X161417Y72801D01*
X194882D01*
X195910Y72936D01*
X196867Y73333D01*
X197690Y73964D01*
X198321Y74786D01*
X198718Y75744D01*
X198853Y76772D01*
Y84669D01*
X199378Y85071D01*
X208236Y93930D01*
X208236Y93930D01*
X208804Y94670D01*
X209161Y95532D01*
X209282Y96457D01*
X209282Y96457D01*
Y208661D01*
X209161Y209586D01*
X208804Y210448D01*
X208236Y211189D01*
X202393Y217032D01*
Y246063D01*
X202362Y246295D01*
Y246530D01*
X202302Y246756D01*
X202271Y246988D01*
X202181Y247204D01*
X202121Y247431D01*
X202004Y247634D01*
X201914Y247850D01*
X201771Y248036D01*
X201654Y248239D01*
X201489Y248404D01*
X201346Y248590D01*
X201160Y248733D01*
X200994Y248898D01*
X200792Y249015D01*
X200606Y249158D01*
X200390Y249248D01*
X200187Y249365D01*
X199960Y249426D01*
X199744Y249515D01*
X199512Y249546D01*
X199285Y249606D01*
X199051D01*
X198819Y249637D01*
D02*
G37*
G36*
X305559Y85039D02*
X304678D01*
X303826Y84811D01*
X303584Y84671D01*
X281062D01*
X280819Y84811D01*
X279968Y85039D01*
X279087D01*
X278236Y84811D01*
X277473Y84371D01*
X276850Y83748D01*
X276458Y83069D01*
X276083Y83023D01*
X275707Y83069D01*
X275316Y83748D01*
X274693Y84371D01*
X273930Y84811D01*
X273078Y85039D01*
X272197D01*
X271346Y84811D01*
X270583Y84371D01*
X270124Y83912D01*
X269685Y83811D01*
X269246Y83912D01*
X268787Y84371D01*
X268024Y84811D01*
X267173Y85039D01*
X266292D01*
X265441Y84811D01*
X264678Y84371D01*
X264054Y83748D01*
X263614Y82985D01*
X263386Y82134D01*
Y81252D01*
X263614Y80401D01*
X263754Y80159D01*
Y46260D01*
X263856Y45489D01*
X264153Y44771D01*
X264626Y44154D01*
X268563Y40217D01*
X268563Y40217D01*
X269180Y39744D01*
X269899Y39446D01*
X270669Y39345D01*
X270669Y39345D01*
X287402D01*
X288172Y39446D01*
X288891Y39744D01*
X289508Y40217D01*
X299462Y50171D01*
X319261D01*
X319433Y49999D01*
X320331Y49481D01*
X321332Y49213D01*
X322369D01*
X323370Y49481D01*
X324268Y49999D01*
X325001Y50732D01*
X325519Y51630D01*
X325787Y52631D01*
Y53668D01*
X325519Y54669D01*
X325001Y55567D01*
X324268Y56300D01*
X323370Y56818D01*
X322369Y57087D01*
X321332D01*
X320331Y56818D01*
X319433Y56300D01*
X319261Y56128D01*
X298228D01*
X298228Y56128D01*
X297458Y56026D01*
X296739Y55729D01*
X296122Y55256D01*
X286168Y45301D01*
X284060D01*
X283772Y46001D01*
X284180Y46709D01*
X284449Y47710D01*
Y48747D01*
X284180Y49748D01*
X283662Y50646D01*
X282929Y51379D01*
X282031Y51897D01*
X281030Y52165D01*
X280787D01*
X275616Y57336D01*
Y79884D01*
X275841Y80050D01*
X276713Y79876D01*
X276850Y79638D01*
X277473Y79015D01*
X278236Y78575D01*
X279087Y78347D01*
X279968D01*
X280819Y78575D01*
X281062Y78715D01*
X303584D01*
X303826Y78575D01*
X304678Y78347D01*
X305559D01*
X306410Y78575D01*
X307173Y79015D01*
X307796Y79638D01*
X308237Y80401D01*
X308465Y81252D01*
Y82134D01*
X308237Y82985D01*
X307796Y83748D01*
X307173Y84371D01*
X306410Y84811D01*
X305559Y85039D01*
D02*
G37*
G36*
X474763Y55413D02*
X473348D01*
X471959Y55137D01*
X470652Y54596D01*
X469475Y53809D01*
X469055Y53390D01*
X468635Y53809D01*
X467458Y54596D01*
X466151Y55137D01*
X464763Y55413D01*
X463347D01*
X461959Y55137D01*
X460652Y54596D01*
X459475Y53809D01*
X459055Y53390D01*
X458635Y53809D01*
X457458Y54596D01*
X456151Y55137D01*
X454763Y55413D01*
X453347D01*
X451959Y55137D01*
X450652Y54596D01*
X449475Y53809D01*
X449055Y53390D01*
X448635Y53809D01*
X447459Y54596D01*
X446151Y55137D01*
X444763Y55413D01*
X443348D01*
X441959Y55137D01*
X440652Y54596D01*
X439475Y53809D01*
X439055Y53390D01*
X438635Y53809D01*
X437459Y54596D01*
X436151Y55137D01*
X434763Y55413D01*
X433348D01*
X431959Y55137D01*
X430652Y54596D01*
X429475Y53809D01*
X428474Y52809D01*
X427688Y51632D01*
X427146Y50324D01*
X426870Y48936D01*
Y47521D01*
X427146Y46132D01*
X427688Y44825D01*
X428474Y43648D01*
X429475Y42647D01*
X430652Y41861D01*
X431959Y41319D01*
X433348Y41043D01*
X434763D01*
X436151Y41319D01*
X437459Y41861D01*
X438635Y42647D01*
X439055Y43067D01*
X439475Y42647D01*
X440652Y41861D01*
X441959Y41319D01*
X443348Y41043D01*
X444763D01*
X446151Y41319D01*
X447459Y41861D01*
X448635Y42647D01*
X449055Y43067D01*
X449475Y42647D01*
X450652Y41861D01*
X451959Y41319D01*
X453347Y41043D01*
X454763D01*
X456151Y41319D01*
X457458Y41861D01*
X458635Y42647D01*
X459055Y43067D01*
X459475Y42647D01*
X460652Y41861D01*
X461959Y41319D01*
X463347Y41043D01*
X464763D01*
X466151Y41319D01*
X467458Y41861D01*
X468635Y42647D01*
X469055Y43067D01*
X469475Y42647D01*
X470652Y41861D01*
X471959Y41319D01*
X473348Y41043D01*
X474763D01*
X476151Y41319D01*
X477458Y41861D01*
X478635Y42647D01*
X479636Y43648D01*
X480422Y44825D01*
X480483Y44970D01*
X481169Y45107D01*
X481447Y44829D01*
X482415Y44270D01*
X483496Y43980D01*
X483555D01*
Y48228D01*
Y52476D01*
X483496D01*
X482415Y52187D01*
X481447Y51628D01*
X481169Y51350D01*
X480483Y51486D01*
X480422Y51632D01*
X479636Y52809D01*
X478635Y53809D01*
X477458Y54596D01*
X476151Y55137D01*
X474763Y55413D01*
D02*
G37*
G36*
X501240D02*
X486870D01*
Y52317D01*
X486170Y51912D01*
X485695Y52187D01*
X484614Y52476D01*
X484555D01*
Y48228D01*
Y43980D01*
X484614D01*
X485695Y44270D01*
X486170Y44544D01*
X486870Y44140D01*
Y41043D01*
X501240D01*
Y55413D01*
D02*
G37*
G36*
X64341Y43323D02*
X64161D01*
Y36917D01*
X70567D01*
Y37097D01*
X70302Y38432D01*
X69781Y39688D01*
X69025Y40819D01*
X68063Y41781D01*
X66932Y42537D01*
X65676Y43058D01*
X64341Y43323D01*
D02*
G37*
G36*
X132570D02*
X132390D01*
Y36917D01*
X138795D01*
Y37097D01*
X138530Y38432D01*
X138009Y39688D01*
X137254Y40819D01*
X136292Y41781D01*
X135161Y42537D01*
X133904Y43058D01*
X132570Y43323D01*
D02*
G37*
G36*
X131390D02*
X131210D01*
X129876Y43058D01*
X128619Y42537D01*
X127488Y41781D01*
X126526Y40819D01*
X125770Y39688D01*
X125250Y38432D01*
X124984Y37097D01*
Y36917D01*
X131390D01*
Y43323D01*
D02*
G37*
G36*
X63161D02*
X62981D01*
X61647Y43058D01*
X60390Y42537D01*
X59259Y41781D01*
X58298Y40819D01*
X57542Y39688D01*
X57021Y38432D01*
X56756Y37097D01*
Y36917D01*
X63161D01*
Y43323D01*
D02*
G37*
G36*
X359252Y61058D02*
X337598D01*
X336571Y60922D01*
X335613Y60526D01*
X334790Y59895D01*
X334159Y59072D01*
X333763Y58114D01*
X333627Y57087D01*
Y39370D01*
X333763Y38342D01*
X334159Y37385D01*
X334790Y36562D01*
X335613Y35931D01*
X336571Y35534D01*
X337598Y35399D01*
X359252D01*
X360280Y35534D01*
X361238Y35931D01*
X362060Y36562D01*
X362691Y37385D01*
X363088Y38342D01*
X363223Y39370D01*
Y57087D01*
X363088Y58114D01*
X362691Y59072D01*
X362060Y59895D01*
X361238Y60526D01*
X360280Y60922D01*
X359252Y61058D01*
D02*
G37*
G36*
X138795Y35917D02*
X132390D01*
Y29512D01*
X132570D01*
X133904Y29777D01*
X135161Y30298D01*
X136292Y31054D01*
X137254Y32015D01*
X138009Y33146D01*
X138530Y34403D01*
X138795Y35737D01*
Y35917D01*
D02*
G37*
G36*
X131390D02*
X124984D01*
Y35737D01*
X125250Y34403D01*
X125770Y33146D01*
X126526Y32015D01*
X127488Y31054D01*
X128619Y30298D01*
X129876Y29777D01*
X131210Y29512D01*
X131390D01*
Y35917D01*
D02*
G37*
G36*
X70567D02*
X64161D01*
Y29512D01*
X64341D01*
X65676Y29777D01*
X66932Y30298D01*
X68063Y31054D01*
X69025Y32015D01*
X69781Y33146D01*
X70302Y34403D01*
X70567Y35737D01*
Y35917D01*
D02*
G37*
G36*
X63161D02*
X56756D01*
Y35737D01*
X57021Y34403D01*
X57542Y33146D01*
X58298Y32015D01*
X59259Y31054D01*
X60390Y30298D01*
X61647Y29777D01*
X62981Y29512D01*
X63161D01*
Y35917D01*
D02*
G37*
G36*
X47762Y15748D02*
X46726D01*
X45724Y15480D01*
X44827Y14961D01*
X44094Y14228D01*
X43575Y13331D01*
X43307Y12329D01*
Y11293D01*
X43575Y10291D01*
X44094Y9394D01*
X44827Y8661D01*
X45724Y8142D01*
X46726Y7874D01*
X47762D01*
X48764Y8142D01*
X49661Y8661D01*
X50394Y9394D01*
X50913Y10291D01*
X51181Y11293D01*
Y12329D01*
X50913Y13331D01*
X50394Y14228D01*
X49661Y14961D01*
X48764Y15480D01*
X47762Y15748D01*
D02*
G37*
%LPD*%
G36*
X169291Y300197D02*
X126766D01*
X126578Y300897D01*
X127047Y301167D01*
X127966Y302087D01*
X128616Y303212D01*
X128953Y304468D01*
Y304618D01*
X124016D01*
X119079D01*
Y304468D01*
X119415Y303212D01*
X120065Y302087D01*
X120984Y301167D01*
X121453Y300897D01*
X121266Y300197D01*
X114955D01*
X114767Y300897D01*
X115236Y301167D01*
X116155Y302087D01*
X116805Y303212D01*
X117142Y304468D01*
Y304618D01*
X112205D01*
X107268D01*
Y304468D01*
X107604Y303212D01*
X108254Y302087D01*
X109173Y301167D01*
X109642Y300897D01*
X109455Y300197D01*
X104331D01*
Y310039D01*
X109455D01*
X109642Y309339D01*
X109173Y309069D01*
X108254Y308150D01*
X107604Y307024D01*
X107268Y305768D01*
Y305618D01*
X112205D01*
X117142D01*
Y305768D01*
X116805Y307024D01*
X116155Y308150D01*
X115236Y309069D01*
X114767Y309339D01*
X114955Y310039D01*
X116142D01*
Y309842D01*
X120925D01*
X121112Y309142D01*
X120984Y309069D01*
X120065Y308150D01*
X119415Y307024D01*
X119079Y305768D01*
Y305618D01*
X124016D01*
X128953D01*
Y305768D01*
X128616Y307024D01*
X127966Y308150D01*
X127047Y309069D01*
X126919Y309142D01*
X127107Y309842D01*
X131890D01*
Y310039D01*
X138779Y316929D01*
X169291D01*
Y300197D01*
D02*
G37*
%LPC*%
G36*
X158501Y313492D02*
X158480D01*
Y310039D01*
X161933D01*
Y310060D01*
X161664Y311065D01*
X161143Y311966D01*
X160407Y312702D01*
X159506Y313223D01*
X158501Y313492D01*
D02*
G37*
G36*
X157480D02*
X157460D01*
X156455Y313223D01*
X155553Y312702D01*
X154817Y311966D01*
X154297Y311065D01*
X154028Y310060D01*
Y310039D01*
X157480D01*
Y313492D01*
D02*
G37*
G36*
X161933Y309039D02*
X158480D01*
Y305587D01*
X158501D01*
X159506Y305856D01*
X160407Y306376D01*
X161143Y307112D01*
X161664Y308014D01*
X161933Y309019D01*
Y309039D01*
D02*
G37*
G36*
X157480D02*
X154028D01*
Y309019D01*
X154297Y308014D01*
X154817Y307112D01*
X155553Y306376D01*
X156455Y305856D01*
X157460Y305587D01*
X157480D01*
Y309039D01*
D02*
G37*
%LPD*%
G36*
X294617Y246441D02*
X262189D01*
Y266732D01*
X294617D01*
Y246441D01*
D02*
G37*
G36*
X250000Y216535D02*
X224410D01*
Y253937D01*
X250000D01*
Y216535D01*
D02*
G37*
G36*
X182693Y89567D02*
X194882D01*
Y76772D01*
X161417D01*
Y102362D01*
X182693D01*
Y89567D01*
D02*
G37*
G36*
X359252Y39370D02*
X337598D01*
Y57087D01*
X359252D01*
Y39370D01*
D02*
G37*
D23*
X47244Y11811D02*
D03*
X527559Y259842D02*
D03*
X11811Y220472D02*
D03*
X240158Y316122D02*
D03*
X374114Y78651D02*
D03*
X313976Y194882D02*
D03*
X178356Y51552D02*
D03*
X158014Y51244D02*
D03*
X91535Y46260D02*
D03*
X348425Y230315D02*
D03*
X341535D02*
D03*
X348425Y236221D02*
D03*
X341535D02*
D03*
X342768Y196063D02*
D03*
X231299Y99410D02*
D03*
X510827Y117508D02*
D03*
Y124646D02*
D03*
Y131972D02*
D03*
Y146465D02*
D03*
Y139020D02*
D03*
X410433Y169291D02*
D03*
X413386Y174213D02*
D03*
X506890Y109252D02*
D03*
Y101378D02*
D03*
Y93504D02*
D03*
Y85630D02*
D03*
Y77756D02*
D03*
X528543Y117508D02*
D03*
Y124646D02*
D03*
Y131972D02*
D03*
Y139020D02*
D03*
Y146465D02*
D03*
X27559Y99410D02*
D03*
X8858Y104331D02*
D03*
X236715Y79849D02*
D03*
X229331Y79724D02*
D03*
X387028Y74240D02*
D03*
X318898Y210630D02*
D03*
X380906Y149606D02*
D03*
X387795D02*
D03*
X394685D02*
D03*
X401575D02*
D03*
X388797Y127716D02*
D03*
X399606Y129921D02*
D03*
X393701Y131890D02*
D03*
X382874Y130905D02*
D03*
X321850Y53150D02*
D03*
X280512Y48228D02*
D03*
X236653Y96713D02*
D03*
X227613Y121502D02*
D03*
X234637Y121293D02*
D03*
X231299Y269685D02*
D03*
X340551Y54134D02*
D03*
X344488D02*
D03*
X348425D02*
D03*
X352362D02*
D03*
X356299D02*
D03*
X340551Y50197D02*
D03*
X344488D02*
D03*
X348425D02*
D03*
X352362D02*
D03*
X356299D02*
D03*
X340551Y46260D02*
D03*
X344488D02*
D03*
X348425D02*
D03*
X352362D02*
D03*
X356299D02*
D03*
Y42323D02*
D03*
X352362D02*
D03*
X348425D02*
D03*
X344488D02*
D03*
X340551D02*
D03*
X300197Y247047D02*
D03*
X320866Y243110D02*
D03*
X510827Y192547D02*
D03*
Y215598D02*
D03*
X486221Y110236D02*
D03*
X421260Y155512D02*
D03*
X496673Y144685D02*
D03*
X452756Y165354D02*
D03*
X476318Y147074D02*
D03*
X463522D02*
D03*
X442913Y143701D02*
D03*
X465551Y112205D02*
D03*
X74272Y156870D02*
D03*
X48926Y157854D02*
D03*
X79193Y170650D02*
D03*
X50650Y137185D02*
D03*
X48926Y144075D02*
D03*
X65413Y150965D02*
D03*
D131*
X388220Y122677D02*
X389200Y122725D01*
X390171Y122869D01*
X391123Y123108D01*
X392047Y123438D01*
X392934Y123858D01*
X393776Y124363D01*
X394564Y124947D01*
X395291Y125606D01*
X348449Y127929D02*
X349176Y127270D01*
X349964Y126685D01*
X350806Y126181D01*
X351693Y125761D01*
X352617Y125431D01*
X353569Y125192D01*
X354540Y125048D01*
X355520Y125000D01*
X382239D02*
X383278Y125058D01*
X384303Y125233D01*
X385302Y125520D01*
X386263Y125918D01*
X387173Y126421D01*
X388021Y127023D01*
X388797Y127716D01*
X341465Y134913D02*
X340676Y135618D01*
X339813Y136231D01*
X338886Y136742D01*
X337909Y137147D01*
X336892Y137441D01*
X335848Y137618D01*
X334791Y137677D01*
X391385Y134206D02*
X390546Y134894D01*
X389589Y135406D01*
X388551Y135720D01*
X387472Y135827D01*
X378961Y138756D02*
X379688Y138097D01*
X380476Y137512D01*
X381318Y137008D01*
X382205Y136588D01*
X383129Y136257D01*
X384081Y136019D01*
X385052Y135875D01*
X386032Y135827D01*
X347968Y169748D02*
X347241Y170407D01*
X346453Y170992D01*
X345611Y171496D01*
X344724Y171916D01*
X343800Y172247D01*
X342848Y172485D01*
X341877Y172629D01*
X340897Y172677D01*
X334791D02*
X340897D01*
X334791Y122677D02*
X388220D01*
X395291Y125606D02*
X399606Y129921D01*
X355520Y125000D02*
X382239D01*
X341465Y134913D02*
X348449Y127929D01*
X386032Y135827D02*
X387472D01*
X391385Y134206D02*
X393701Y131890D01*
X347968Y169748D02*
X378961Y138756D01*
D133*
X242126Y162677D02*
X254921D01*
X212882Y88704D02*
X221039Y96862D01*
Y103376D02*
X222441Y104778D01*
X231557Y113894D01*
X221039Y96862D02*
Y103376D01*
X212748Y69003D02*
Y87748D01*
X212882Y87882D01*
Y88704D01*
X215551Y68032D02*
Y87598D01*
X206008Y58488D02*
X215551Y68032D01*
Y87598D02*
X223709Y95756D01*
Y102271D02*
X224410Y102971D01*
X223709Y95756D02*
Y102271D01*
X224410Y102971D02*
X232663Y111224D01*
X226378Y94488D02*
Y101165D01*
X218504Y86614D02*
X226378Y94488D01*
Y101165D02*
X233768Y108555D01*
X218504Y67210D02*
Y86614D01*
X207113Y55819D02*
X218504Y67210D01*
X220125Y65055D02*
X221457Y66387D01*
Y85527D02*
X231299Y95370D01*
X221457Y66387D02*
Y85527D01*
X231299Y95370D02*
Y99410D01*
X224380Y84675D02*
X236417Y96713D01*
X223425Y64581D02*
X224380Y65535D01*
Y84675D01*
X241142Y118056D02*
Y145225D01*
Y148276D01*
Y143701D02*
Y145225D01*
Y148276D02*
X243110Y150244D01*
X272638Y202756D02*
X289370Y186024D01*
Y186024D02*
Y186024D01*
X230945Y202756D02*
X272638D01*
X271654Y197835D02*
X283465Y186024D01*
X230827Y197835D02*
X271654D01*
X228346Y205354D02*
X230945Y202756D01*
X228346Y195354D02*
X230827Y197835D01*
X306102Y140910D02*
Y187008D01*
X313976Y194882D01*
X478346Y172244D02*
X478630Y171961D01*
X506606Y146775D02*
Y153665D01*
X488310Y171961D02*
X506606Y153665D01*
X478630Y171961D02*
X488310D01*
X415354Y172244D02*
X478346D01*
X506917Y146465D02*
X510827D01*
X506606Y146775D02*
X506917Y146465D01*
X250543Y157677D02*
X254921D01*
X243110Y150244D02*
X250543Y157677D01*
X246480Y122522D02*
X251635Y127677D01*
X239191Y108555D02*
X245952Y115316D01*
X246480Y115845D01*
Y122522D01*
X251635Y127677D02*
X254921D01*
X243811Y144120D02*
X247369Y147677D01*
X243811Y116950D02*
Y144120D01*
X243199Y116338D02*
X243811Y116950D01*
X238085Y111224D02*
X243199Y116338D01*
X247369Y147677D02*
X254921D01*
X231557Y113894D02*
X236980D01*
X241142Y118056D01*
X232663Y111224D02*
X237298D01*
X238085D01*
X233768Y108555D02*
X239191D01*
X236417Y96713D02*
X236653D01*
X208219Y53150D02*
X220125Y65055D01*
X220756Y65687D01*
X175732Y36417D02*
X189795Y50480D01*
X209325D02*
X223425Y64581D01*
X189795Y50480D02*
X209325D01*
X181798Y46258D02*
X188689Y53150D01*
X208219D01*
X123063Y55819D02*
X207113D01*
X121957Y58488D02*
X206008D01*
X24606Y79724D02*
X49332Y54998D01*
X114693D02*
X120852Y61158D01*
X49332Y54998D02*
X114693D01*
X120852Y61158D02*
X204902D01*
X212748Y69003D01*
X114680Y51210D02*
X121957Y58488D01*
X45305Y51210D02*
X114680D01*
X103661Y36417D02*
X123063Y55819D01*
X161731Y46258D02*
X181798D01*
X171890Y36417D02*
X175732D01*
X151890D02*
X161731Y46258D01*
X254921Y137677D02*
X269567D01*
X302165Y170276D02*
Y205709D01*
X269567Y137677D02*
X302165Y170276D01*
Y205709D02*
X312992Y216535D01*
X359252D02*
X364173Y211614D01*
X312992Y216535D02*
X359252D01*
X361221Y220472D02*
X366094Y215598D01*
X312008Y220472D02*
X361221D01*
X298512Y206976D02*
X312008Y220472D01*
X298512Y172365D02*
Y206976D01*
X254921Y142677D02*
X268824D01*
X298512Y172365D01*
X364173Y211614D02*
X506890D01*
X319131Y189210D02*
Y210396D01*
X318898Y210630D02*
X319131Y210396D01*
X310039Y180118D02*
X319131Y189210D01*
X319882Y99410D02*
X489173D01*
X316929Y102362D02*
X319882Y99410D01*
X487205Y103347D02*
X498032Y114173D01*
X332677Y103347D02*
X487205D01*
X329724Y106299D02*
X332677Y103347D01*
X254921Y122677D02*
X313347D01*
X329724Y106299D01*
X366094Y215598D02*
X510827D01*
X506890Y211614D02*
X510827Y207677D01*
X310039Y142717D02*
Y180118D01*
X321850Y130905D02*
X333020D01*
X310039Y142717D02*
X321850Y130905D01*
X327918Y119095D02*
X333374D01*
X334791Y117677D01*
X333020Y130905D02*
X334791Y132677D01*
X306102Y140910D02*
X327918Y119095D01*
X508504Y124646D02*
X510827D01*
X498032Y114173D02*
Y114173D01*
X508504Y124646D01*
X507272Y117508D02*
X510827D01*
X489173Y99410D02*
X507272Y117508D01*
X279528Y81693D02*
X305118D01*
X515300Y113173D02*
Y133221D01*
X511379Y109252D02*
X515300Y113173D01*
X506890Y109252D02*
X511379D01*
X512421Y101378D02*
X518701Y107658D01*
Y129177D01*
X506890Y101378D02*
X512421D01*
X521654Y102658D02*
Y125083D01*
X512500Y93504D02*
X521654Y102658D01*
X506890Y93504D02*
X512500D01*
X506890Y85630D02*
X513421D01*
X524606Y96815D01*
Y115855D01*
X528543Y93462D02*
Y117508D01*
X512837Y77756D02*
X528543Y93462D01*
X506890Y77756D02*
X512837D01*
X515300Y133221D02*
X528543Y146465D01*
X518701Y129177D02*
X528543Y139020D01*
X521654Y125083D02*
X528543Y131972D01*
X524590Y115871D02*
Y119145D01*
X524606Y119161D01*
Y120709D01*
X524590Y115871D02*
X524606Y115855D01*
Y120709D02*
X528543Y124646D01*
X503937Y145669D02*
Y152559D01*
X454409Y169291D02*
X487205D01*
X503937Y152559D01*
Y145669D02*
X510827Y138779D01*
X451103Y169291D02*
X451119Y169307D01*
X454393D01*
X410433Y169291D02*
X451103D01*
X454393Y169307D02*
X454409Y169291D01*
X413386Y174213D02*
X415354Y172244D01*
X266732Y46260D02*
Y81693D01*
X270669Y42323D02*
X287402D01*
X266732Y46260D02*
X270669Y42323D01*
X287402D02*
X298228Y53150D01*
X321850D01*
X272638Y56102D02*
Y81693D01*
Y56102D02*
X280512Y48228D01*
X510827Y192547D02*
Y207677D01*
X389764Y251969D02*
Y262795D01*
X362205Y224410D02*
X389764Y251969D01*
X18701Y79724D02*
X24606D01*
D135*
X65413Y173681D02*
X86614Y194882D01*
X98110D01*
X191929Y87598D02*
X196850D01*
X205709Y96457D02*
Y208661D01*
X196850Y87598D02*
X205709Y96457D01*
X256890Y232409D02*
Y272638D01*
Y232409D02*
X263931Y225368D01*
X289246D01*
X256890Y272638D02*
X263600Y279348D01*
X274267D01*
X471457Y165354D02*
X486221Y150591D01*
Y110236D02*
Y150591D01*
X452756Y165354D02*
X471457D01*
X180118Y87598D02*
X187992D01*
Y87598D02*
X191929D01*
X65413Y150965D02*
Y173681D01*
X198819Y215551D02*
X205709Y208661D01*
X198819Y215551D02*
Y246063D01*
X312617Y289470D02*
X326611Y303465D01*
D139*
X229523Y133067D02*
X234637Y127953D01*
X221457Y150591D02*
Y210630D01*
X229523Y133067D02*
Y142524D01*
X221457Y150591D02*
X229523Y142524D01*
X216535Y254921D02*
X231299Y269685D01*
X216535Y215551D02*
Y254921D01*
Y215551D02*
X221457Y210630D01*
X234637Y121293D02*
Y127953D01*
X97980Y62547D02*
X105315Y69882D01*
X56945Y62547D02*
X97980D01*
X105315Y69882D02*
X120079D01*
X138110Y87913D01*
Y198556D01*
X32480Y113189D02*
Y225394D01*
X45578Y94717D02*
Y100092D01*
X32480Y113189D02*
X45578Y100092D01*
X52362Y245276D02*
Y298031D01*
X32480Y225394D02*
X52362Y245276D01*
D142*
X228346Y205354D02*
D03*
Y195354D02*
D03*
Y185354D02*
D03*
Y175354D02*
D03*
Y165354D02*
D03*
X174213Y110236D02*
D03*
X193898D02*
D03*
X157980Y329224D02*
D03*
Y309539D02*
D03*
X16732Y252953D02*
D03*
X36417D02*
D03*
D143*
X228346Y155354D02*
D03*
D144*
X240158Y286634D02*
D03*
D145*
X98110Y194882D02*
D03*
X118110D02*
D03*
X138110D02*
D03*
D146*
X484055Y48228D02*
D03*
X474055D02*
D03*
X464055D02*
D03*
X454055D02*
D03*
X444055D02*
D03*
X434055D02*
D03*
D147*
X494055D02*
D03*
D148*
X191890Y36417D02*
D03*
X103661D02*
D03*
D149*
X171890D02*
D03*
X151890D02*
D03*
X131890D02*
D03*
X83661D02*
D03*
X63661D02*
D03*
D150*
X70866Y285433D02*
D03*
Y309842D02*
D03*
D151*
X52362Y298031D02*
D03*
D152*
X104724Y328346D02*
D03*
X131496Y281890D02*
D03*
X112205Y292520D02*
D03*
Y305118D02*
D03*
Y317717D02*
D03*
X124016Y292520D02*
D03*
Y305118D02*
D03*
D153*
Y317717D02*
D03*
D154*
X409391Y300950D02*
D03*
X412026Y299516D02*
D03*
X415025Y299600D02*
D03*
X417590Y301155D02*
D03*
D155*
X216535Y150591D02*
D03*
Y176181D02*
D03*
X242126Y162677D02*
D03*
X254921D02*
D03*
X289370Y186024D02*
D03*
X283465D02*
D03*
X254921Y127677D02*
D03*
Y122677D02*
D03*
X316929Y102362D02*
D03*
X254921Y157677D02*
D03*
Y152677D02*
D03*
Y147677D02*
D03*
Y142677D02*
D03*
Y137677D02*
D03*
X305118Y81693D02*
D03*
X279528D02*
D03*
X334791Y122677D02*
D03*
Y137677D02*
D03*
Y172677D02*
D03*
Y167677D02*
D03*
Y152559D02*
D03*
Y117677D02*
D03*
Y132677D02*
D03*
X272638Y81693D02*
D03*
X266732D02*
D03*
X362205Y224410D02*
D03*
X389764Y262795D02*
D03*
X80374Y135020D02*
D03*
Y139350D02*
D03*
X76043D02*
D03*
Y135020D02*
D03*
D156*
X289246Y225368D02*
D03*
X274267Y279348D02*
D03*
X184055Y79724D02*
D03*
X187992D02*
D03*
X191929D02*
D03*
X184055Y83661D02*
D03*
X187992D02*
D03*
X191929D02*
D03*
X184055Y87598D02*
D03*
X187992D02*
D03*
X191929D02*
D03*
X164370Y79724D02*
D03*
X168307D02*
D03*
X172244D02*
D03*
X176181D02*
D03*
X180118D02*
D03*
X164370Y83661D02*
D03*
X168307D02*
D03*
X172244D02*
D03*
X176181D02*
D03*
X180118D02*
D03*
X168307Y95472D02*
D03*
X180118D02*
D03*
Y91535D02*
D03*
X172244D02*
D03*
X168307Y99410D02*
D03*
X164370Y91535D02*
D03*
X172244Y99410D02*
D03*
Y95472D02*
D03*
X180118Y99410D02*
D03*
X164370Y95472D02*
D03*
X176181Y99410D02*
D03*
Y95472D02*
D03*
Y91535D02*
D03*
X168307D02*
D03*
X164370Y99410D02*
D03*
X198819Y246063D02*
D03*
X247047Y250984D02*
D03*
X243110D02*
D03*
X235236D02*
D03*
X231299D02*
D03*
X239173D02*
D03*
X227362D02*
D03*
X247047Y247047D02*
D03*
X243110D02*
D03*
X235236D02*
D03*
X231299D02*
D03*
X239173D02*
D03*
X227362D02*
D03*
X239173Y243110D02*
D03*
X235236D02*
D03*
X227362D02*
D03*
X231299D02*
D03*
X239173Y239173D02*
D03*
X235236D02*
D03*
X227362D02*
D03*
X231299D02*
D03*
X239173Y235236D02*
D03*
X235236D02*
D03*
X227362D02*
D03*
X231299D02*
D03*
X239173Y231299D02*
D03*
X235236D02*
D03*
X227362D02*
D03*
X231299D02*
D03*
X247047Y227362D02*
D03*
X243110D02*
D03*
X235236D02*
D03*
X231299D02*
D03*
X239173D02*
D03*
X227362D02*
D03*
X247047Y223425D02*
D03*
X243110D02*
D03*
X235236D02*
D03*
X231299D02*
D03*
X239173D02*
D03*
X227362D02*
D03*
Y219488D02*
D03*
X239173D02*
D03*
X231299D02*
D03*
X235236D02*
D03*
X243110D02*
D03*
X247047D02*
D03*
X264764Y264764D02*
D03*
Y260827D02*
D03*
Y256890D02*
D03*
Y252953D02*
D03*
Y249016D02*
D03*
X268701Y264764D02*
D03*
Y260827D02*
D03*
Y256890D02*
D03*
Y252953D02*
D03*
Y249016D02*
D03*
X292323D02*
D03*
X288386D02*
D03*
X284449D02*
D03*
X280512D02*
D03*
X276575D02*
D03*
X272638D02*
D03*
X478440Y123359D02*
D03*
X272638Y260827D02*
D03*
Y256890D02*
D03*
Y252953D02*
D03*
X276575Y260827D02*
D03*
Y256890D02*
D03*
Y252953D02*
D03*
X280512Y264764D02*
D03*
Y260827D02*
D03*
Y256890D02*
D03*
Y252953D02*
D03*
X284449Y264764D02*
D03*
Y260827D02*
D03*
Y256890D02*
D03*
Y252953D02*
D03*
X288386Y264764D02*
D03*
Y260827D02*
D03*
Y256890D02*
D03*
Y252953D02*
D03*
X292323D02*
D03*
Y256890D02*
D03*
Y260827D02*
D03*
Y264764D02*
D03*
X326611Y303465D02*
D03*
X312617Y289470D02*
D03*
X164370Y87598D02*
D03*
X168307D02*
D03*
X172244D02*
D03*
X176181D02*
D03*
X180118D02*
D03*
X26575Y212598D02*
D03*
X45728Y124390D02*
D03*
Y128327D02*
D03*
Y120453D02*
D03*
Y116516D02*
D03*
X49665Y124390D02*
D03*
Y128327D02*
D03*
Y120453D02*
D03*
Y116516D02*
D03*
X53602Y124390D02*
D03*
Y128327D02*
D03*
Y120453D02*
D03*
Y116516D02*
D03*
X57539Y124390D02*
D03*
Y128327D02*
D03*
Y120453D02*
D03*
Y116516D02*
D03*
X73287D02*
D03*
Y120453D02*
D03*
Y124390D02*
D03*
X69350Y116516D02*
D03*
X65413D02*
D03*
X61476D02*
D03*
Y120453D02*
D03*
X65413D02*
D03*
X69350D02*
D03*
X61476Y128327D02*
D03*
Y124390D02*
D03*
X69350D02*
D03*
Y128327D02*
D03*
X65413Y124390D02*
D03*
Y128327D02*
D03*
X95268Y128134D02*
D03*
X87394Y124197D02*
D03*
X91331D02*
D03*
X95268Y124198D02*
D03*
X91331Y128134D02*
D03*
X87394D02*
D03*
D157*
X56945Y62547D02*
D03*
X45305Y51210D02*
D03*
X18701Y79724D02*
D03*
X45578Y94717D02*
D03*
M02*
