G04*
G04 #@! TF.GenerationSoftware,Altium Limited,Altium Designer,24.5.2 (23)*
G04*
G04 Layer_Color=255*
%FSLAX25Y25*%
%MOIN*%
G70*
G04*
G04 #@! TF.SameCoordinates,326569EC-AB97-4657-8C9B-8E87E8CDC543*
G04*
G04*
G04 #@! TF.FilePolarity,Positive*
G04*
G01*
G75*
%ADD17C,0.03937*%
%ADD135C,0.05906*%
%ADD136R,0.05906X0.05906*%
%ADD137C,0.05118*%
%ADD138C,0.13780*%
%ADD139C,0.06496*%
%ADD140R,0.06496X0.06496*%
%ADD141R,0.11811X0.11811*%
%ADD142C,0.11811*%
%ADD143R,0.19685X0.07874*%
%ADD144R,0.07874X0.19685*%
%ADD145C,0.07874*%
%ADD146R,0.07874X0.07874*%
D17*
X47244Y11811D02*
D03*
X527559Y259842D02*
D03*
X11811Y220472D02*
D03*
X240158Y316122D02*
D03*
D135*
X228346Y205354D02*
D03*
Y195354D02*
D03*
Y185354D02*
D03*
Y175354D02*
D03*
Y165354D02*
D03*
X174213Y110236D02*
D03*
X193898D02*
D03*
X157980Y329224D02*
D03*
Y309539D02*
D03*
X16732Y252953D02*
D03*
X36417D02*
D03*
D136*
X228346Y155354D02*
D03*
D137*
X240158Y286634D02*
D03*
D138*
X98110Y194882D02*
D03*
X118110D02*
D03*
X138110D02*
D03*
D139*
X484055Y48228D02*
D03*
X474055D02*
D03*
X464055D02*
D03*
X454055D02*
D03*
X444055D02*
D03*
X434055D02*
D03*
D140*
X494055D02*
D03*
D141*
X191890Y36417D02*
D03*
X103661D02*
D03*
D142*
X171890D02*
D03*
X151890D02*
D03*
X131890D02*
D03*
X83661D02*
D03*
X63661D02*
D03*
D143*
X70866Y285433D02*
D03*
Y309842D02*
D03*
D144*
X52362Y298031D02*
D03*
D145*
X104724Y328346D02*
D03*
X131496Y281890D02*
D03*
X112205Y292520D02*
D03*
Y305118D02*
D03*
Y317717D02*
D03*
X124016Y292520D02*
D03*
Y305118D02*
D03*
D146*
Y317717D02*
D03*
M02*
