G04*
G04 #@! TF.GenerationSoftware,Altium Limited,Altium Designer,24.5.2 (23)*
G04*
G04 Layer_Physical_Order=2*
G04 Layer_Color=6736896*
%FSLAX25Y25*%
%MOIN*%
G70*
G04*
G04 #@! TF.SameCoordinates,BE9660E5-E2A0-4720-87AB-8DA6D5481385*
G04*
G04*
G04 #@! TF.FilePolarity,Positive*
G04*
G01*
G75*
%ADD23C,0.03937*%
%ADD142C,0.05906*%
%ADD143R,0.05906X0.05906*%
%ADD144C,0.05118*%
%ADD145C,0.13780*%
%ADD146C,0.06496*%
%ADD147R,0.06496X0.06496*%
%ADD148R,0.11811X0.11811*%
%ADD149C,0.11811*%
%ADD150R,0.19685X0.07874*%
%ADD151R,0.07874X0.19685*%
%ADD152C,0.07874*%
%ADD153R,0.07874X0.07874*%
%ADD154C,0.02000*%
%ADD155C,0.02756*%
%ADD156C,0.03150*%
%ADD157C,0.04724*%
G36*
X39370Y340312D02*
X499315D01*
X499300D01*
X499315Y340312D01*
X500000Y340312D01*
X500657Y340207D01*
X500672Y340204D01*
X501241Y339824D01*
X501622Y339254D01*
X501625Y339239D01*
X501729Y338583D01*
X501741Y338523D01*
X501741Y337883D01*
X501743Y308057D01*
X501756Y307988D01*
X501736Y307571D01*
X501920Y303834D01*
X502469Y300132D01*
X503378Y296502D01*
X504638Y292979D01*
X506238Y289597D01*
X508162Y286387D01*
X510391Y283381D01*
X512904Y280609D01*
X515677Y278096D01*
X518682Y275867D01*
X521892Y273943D01*
X525275Y272343D01*
X528798Y271082D01*
X532428Y270173D01*
X536129Y269624D01*
X537162Y269573D01*
Y181735D01*
X533465D01*
X533465Y181735D01*
Y181735D01*
X533380Y181719D01*
X531827Y181596D01*
X530231Y181213D01*
X528713Y180585D01*
X527313Y179727D01*
X526064Y178660D01*
X524998Y177411D01*
X524140Y176011D01*
X523511Y174494D01*
X523128Y172897D01*
X522999Y171260D01*
X523128Y169623D01*
X523511Y168026D01*
X524140Y166509D01*
X524998Y165109D01*
X526064Y163860D01*
X527313Y162793D01*
X528713Y161935D01*
X530231Y161307D01*
X531827Y160923D01*
X533380Y160801D01*
X533465Y160784D01*
X537162D01*
Y72948D01*
X536130Y72897D01*
X532429Y72348D01*
X528798Y71439D01*
X525275Y70178D01*
X521892Y68578D01*
X518682Y66654D01*
X515676Y64425D01*
X512903Y61912D01*
X510390Y59139D01*
X508161Y56133D01*
X506237Y52923D01*
X504637Y49540D01*
X503376Y46016D01*
X502467Y42386D01*
X501918Y38685D01*
X501734Y34947D01*
X501755Y34530D01*
X501741Y34461D01*
Y3996D01*
X501729Y3937D01*
X501729D01*
X501625Y3280D01*
X501622Y3265D01*
X501241Y2696D01*
X500672Y2315D01*
X500066Y2195D01*
X500000Y2208D01*
X39370D01*
X39304Y2195D01*
X38698Y2315D01*
X38129Y2696D01*
X37748Y3265D01*
X37745Y3280D01*
X37641Y3937D01*
X37641D01*
X37629Y3996D01*
Y34461D01*
X37615Y34530D01*
X37636Y34947D01*
X37452Y38685D01*
X36903Y42386D01*
X35994Y46016D01*
X34733Y49540D01*
X33133Y52923D01*
X31209Y56133D01*
X28980Y59139D01*
X26467Y61912D01*
X23694Y64425D01*
X20688Y66654D01*
X17478Y68578D01*
X14095Y70178D01*
X10572Y71439D01*
X6942Y72348D01*
X3240Y72897D01*
X2208Y72948D01*
Y160784D01*
X5906D01*
X5906Y160784D01*
Y160784D01*
X5990Y160801D01*
X7543Y160923D01*
X9139Y161307D01*
X10657Y161935D01*
X12057Y162793D01*
X13306Y163860D01*
X14372Y165109D01*
X15230Y166509D01*
X15859Y168026D01*
X16242Y169623D01*
X16371Y171260D01*
X16242Y172897D01*
X15859Y174494D01*
X15230Y176011D01*
X14372Y177411D01*
X13306Y178660D01*
X12057Y179727D01*
X10657Y180585D01*
X9139Y181213D01*
X7543Y181596D01*
X5990Y181719D01*
X5906Y181735D01*
X2196D01*
Y269571D01*
X3240Y269623D01*
X6942Y270172D01*
X10572Y271081D01*
X14095Y272342D01*
X17478Y273942D01*
X20688Y275866D01*
X23694Y278095D01*
X26467Y280608D01*
X28980Y283381D01*
X31209Y286387D01*
X33133Y289597D01*
X34733Y292980D01*
X35994Y296503D01*
X36903Y300133D01*
X37452Y303835D01*
X37636Y307573D01*
X37615Y307990D01*
X37629Y308059D01*
Y338523D01*
X37641Y338583D01*
X37641D01*
X37745Y339239D01*
X37748Y339254D01*
X38129Y339824D01*
X38698Y340205D01*
X39304Y340325D01*
X39370Y340312D01*
D02*
G37*
%LPC*%
G36*
X158501Y333177D02*
X158480D01*
Y329724D01*
X161933D01*
Y329745D01*
X161664Y330750D01*
X161143Y331651D01*
X160407Y332387D01*
X159506Y332908D01*
X158501Y333177D01*
D02*
G37*
G36*
X157480D02*
X157460D01*
X156455Y332908D01*
X155553Y332387D01*
X154817Y331651D01*
X154297Y330750D01*
X154028Y329745D01*
Y329724D01*
X157480D01*
Y333177D01*
D02*
G37*
G36*
X105374Y333283D02*
X105225D01*
Y328846D01*
X109661D01*
Y328996D01*
X109325Y330252D01*
X108675Y331378D01*
X107756Y332297D01*
X106630Y332947D01*
X105374Y333283D01*
D02*
G37*
G36*
X104225D02*
X104074D01*
X102819Y332947D01*
X101693Y332297D01*
X100774Y331378D01*
X100124Y330252D01*
X99787Y328996D01*
Y328846D01*
X104225D01*
Y333283D01*
D02*
G37*
G36*
X161933Y328724D02*
X158480D01*
Y325272D01*
X158501D01*
X159506Y325541D01*
X160407Y326061D01*
X161143Y326797D01*
X161664Y327699D01*
X161933Y328704D01*
Y328724D01*
D02*
G37*
G36*
X157480D02*
X154028D01*
Y328704D01*
X154297Y327699D01*
X154817Y326797D01*
X155553Y326061D01*
X156455Y325541D01*
X157460Y325272D01*
X157480D01*
Y328724D01*
D02*
G37*
G36*
X104225Y327846D02*
X99787D01*
Y327696D01*
X100124Y326441D01*
X100774Y325315D01*
X101693Y324396D01*
X102819Y323746D01*
X104074Y323409D01*
X104225D01*
Y327846D01*
D02*
G37*
G36*
X240548Y319091D02*
X239767D01*
X239012Y318888D01*
X238335Y318497D01*
X237782Y317945D01*
X237391Y317268D01*
X237189Y316513D01*
Y315731D01*
X237391Y314976D01*
X237782Y314299D01*
X238335Y313747D01*
X239012Y313356D01*
X239767Y313154D01*
X240548D01*
X241303Y313356D01*
X241980Y313747D01*
X242533Y314299D01*
X242924Y314976D01*
X243126Y315731D01*
Y316513D01*
X242924Y317268D01*
X242533Y317945D01*
X241980Y318497D01*
X241303Y318888D01*
X240548Y319091D01*
D02*
G37*
G36*
X81709Y314779D02*
X71366D01*
Y310343D01*
X81709D01*
Y314779D01*
D02*
G37*
G36*
Y309343D02*
X71366D01*
Y304906D01*
X81709D01*
Y309343D01*
D02*
G37*
G36*
X158659Y316429D02*
X157302D01*
X155971Y316164D01*
X154717Y315645D01*
X153588Y314891D01*
X152629Y313931D01*
X151875Y312803D01*
X151355Y311549D01*
X151091Y310218D01*
Y308861D01*
X151355Y307530D01*
X151875Y306276D01*
X152629Y305147D01*
X153588Y304188D01*
X154717Y303434D01*
X155971Y302914D01*
X157302Y302650D01*
X158659D01*
X159990Y302914D01*
X161244Y303434D01*
X162372Y304188D01*
X163332Y305147D01*
X164086Y306276D01*
X164605Y307530D01*
X164870Y308861D01*
Y310218D01*
X164605Y311549D01*
X164086Y312803D01*
X163332Y313931D01*
X162372Y314891D01*
X161244Y315645D01*
X159990Y316164D01*
X158659Y316429D01*
D02*
G37*
G36*
X418090Y303113D02*
Y301655D01*
X419548D01*
X419286Y302288D01*
X418723Y302850D01*
X418090Y303113D01*
D02*
G37*
G36*
X417090D02*
X416457Y302850D01*
X415895Y302288D01*
X415590Y301553D01*
X415570Y301539D01*
X415524Y301558D01*
Y299600D01*
Y297642D01*
X416157Y297905D01*
X416720Y298467D01*
X417025Y299202D01*
X417045Y299216D01*
X417090Y299197D01*
Y301155D01*
Y303113D01*
D02*
G37*
G36*
X408891Y302908D02*
X408258Y302645D01*
X407695Y302083D01*
X407433Y301450D01*
X408891D01*
Y302908D01*
D02*
G37*
G36*
X414525Y301558D02*
X413892Y301296D01*
X413483Y300887D01*
X413159Y301211D01*
X412526Y301473D01*
Y299516D01*
Y297558D01*
X413159Y297820D01*
X413567Y298229D01*
X413892Y297905D01*
X414525Y297642D01*
Y299600D01*
Y301558D01*
D02*
G37*
G36*
X327078Y307008D02*
X326145D01*
X325244Y306766D01*
X324436Y306300D01*
X323776Y305640D01*
X323310Y304832D01*
X323068Y303931D01*
Y302998D01*
X323310Y302097D01*
X323776Y301289D01*
X324436Y300629D01*
X325244Y300163D01*
X326145Y299921D01*
X327078D01*
X327979Y300163D01*
X328787Y300629D01*
X329447Y301289D01*
X329913Y302097D01*
X330155Y302998D01*
Y303931D01*
X329913Y304832D01*
X329447Y305640D01*
X328787Y306300D01*
X327979Y306766D01*
X327078Y307008D01*
D02*
G37*
G36*
X419548Y300655D02*
X418090D01*
Y299197D01*
X418723Y299459D01*
X419286Y300022D01*
X419548Y300655D01*
D02*
G37*
G36*
X408891Y300450D02*
X407433D01*
X407695Y299817D01*
X408258Y299254D01*
X408891Y298992D01*
Y300450D01*
D02*
G37*
G36*
X409891Y302908D02*
Y300950D01*
Y298992D01*
X410050Y299058D01*
X410330Y298383D01*
X410893Y297820D01*
X411526Y297558D01*
Y299516D01*
Y301473D01*
X411366Y301407D01*
X411086Y302083D01*
X410524Y302645D01*
X409891Y302908D01*
D02*
G37*
G36*
X313083Y293013D02*
X312150D01*
X311249Y292772D01*
X310441Y292305D01*
X309782Y291646D01*
X309315Y290838D01*
X309074Y289936D01*
Y289003D01*
X309315Y288102D01*
X309782Y287294D01*
X310441Y286635D01*
X311249Y286168D01*
X312150Y285927D01*
X313083D01*
X313984Y286168D01*
X314792Y286635D01*
X315452Y287294D01*
X315919Y288102D01*
X316160Y289003D01*
Y289936D01*
X315919Y290838D01*
X315452Y291646D01*
X314792Y292305D01*
X313984Y292772D01*
X313083Y293013D01*
D02*
G37*
G36*
X240626Y290193D02*
X239689D01*
X238784Y289950D01*
X237972Y289482D01*
X237310Y288819D01*
X236841Y288008D01*
X236598Y287102D01*
Y286165D01*
X236841Y285260D01*
X237310Y284449D01*
X237972Y283786D01*
X238784Y283317D01*
X239689Y283075D01*
X240626D01*
X241531Y283317D01*
X242343Y283786D01*
X243005Y284449D01*
X243474Y285260D01*
X243717Y286165D01*
Y287102D01*
X243474Y288008D01*
X243005Y288819D01*
X242343Y289482D01*
X241531Y289950D01*
X240626Y290193D01*
D02*
G37*
G36*
X132146Y286827D02*
X131996D01*
Y282390D01*
X136433D01*
Y282540D01*
X136097Y283795D01*
X135447Y284921D01*
X134527Y285840D01*
X133402Y286490D01*
X132146Y286827D01*
D02*
G37*
G36*
X109661Y327846D02*
X105225D01*
Y323409D01*
X105374D01*
X105918Y323555D01*
X106280Y322927D01*
X106089Y322736D01*
X105227Y321446D01*
X104633Y320013D01*
X104331Y318492D01*
Y316941D01*
X104633Y315420D01*
X105227Y313987D01*
X106089Y312697D01*
X106900Y311886D01*
X107105Y311417D01*
X106900Y310949D01*
X106089Y310138D01*
X105227Y308848D01*
X104633Y307415D01*
X104331Y305894D01*
Y304343D01*
X104633Y302821D01*
X105227Y301388D01*
X106089Y300099D01*
X106900Y299287D01*
X107105Y298819D01*
X106900Y298351D01*
X106089Y297539D01*
X105227Y296249D01*
X104633Y294816D01*
X104331Y293295D01*
Y291744D01*
X104633Y290223D01*
X105227Y288790D01*
X106089Y287500D01*
X107185Y286403D01*
X108475Y285542D01*
X109908Y284948D01*
X111429Y284646D01*
X112980D01*
X114502Y284948D01*
X115935Y285542D01*
X117224Y286403D01*
X118110Y287290D01*
X118996Y286403D01*
X120286Y285542D01*
X121719Y284948D01*
X123240Y284646D01*
X124791D01*
X126312Y284948D01*
X126891Y285188D01*
X127379Y284632D01*
X126895Y283795D01*
X126559Y282540D01*
Y282390D01*
X130996D01*
Y286827D01*
X130846D01*
X130303Y286681D01*
X129940Y287309D01*
X130132Y287500D01*
X130994Y288790D01*
X131587Y290223D01*
X131890Y291744D01*
Y293295D01*
X131587Y294816D01*
X130994Y296249D01*
X130132Y297539D01*
X129320Y298351D01*
X129115Y298819D01*
X129320Y299287D01*
X130132Y300099D01*
X130994Y301388D01*
X131587Y302821D01*
X131890Y304343D01*
Y305894D01*
X131587Y307415D01*
X130994Y308848D01*
X130742Y309225D01*
X131071Y309842D01*
X131890D01*
Y325590D01*
X116142D01*
Y325366D01*
X115442Y324899D01*
X114502Y325288D01*
X112980Y325590D01*
X111429D01*
X109908Y325288D01*
X109329Y325048D01*
X108842Y325604D01*
X109325Y326441D01*
X109661Y327696D01*
Y327846D01*
D02*
G37*
G36*
X70366Y314779D02*
X60024D01*
Y311811D01*
X44488D01*
Y284252D01*
X57087D01*
Y277559D01*
X84646D01*
Y293307D01*
X60236D01*
Y304906D01*
X70366D01*
Y309842D01*
Y314779D01*
D02*
G37*
G36*
X136433Y281390D02*
X131996D01*
Y276953D01*
X132146D01*
X133402Y277289D01*
X134527Y277939D01*
X135447Y278858D01*
X136097Y279984D01*
X136433Y281240D01*
Y281390D01*
D02*
G37*
G36*
X130996D02*
X126559D01*
Y281240D01*
X126895Y279984D01*
X127545Y278858D01*
X128465Y277939D01*
X129590Y277289D01*
X130846Y276953D01*
X130996D01*
Y281390D01*
D02*
G37*
G36*
X274733Y282892D02*
X273800D01*
X272899Y282650D01*
X272091Y282184D01*
X271431Y281524D01*
X270965Y280716D01*
X270723Y279815D01*
Y278882D01*
X270965Y277981D01*
X271431Y277173D01*
X272091Y276513D01*
X272899Y276046D01*
X273800Y275805D01*
X274733D01*
X275634Y276046D01*
X276442Y276513D01*
X277102Y277173D01*
X277568Y277981D01*
X277810Y278882D01*
Y279815D01*
X277568Y280716D01*
X277102Y281524D01*
X276442Y282184D01*
X275634Y282650D01*
X274733Y282892D01*
D02*
G37*
G36*
X292789Y268307D02*
X291856D01*
X290955Y268066D01*
X290354Y267719D01*
X289754Y268066D01*
X288852Y268307D01*
X287919D01*
X287018Y268066D01*
X286417Y267719D01*
X285817Y268066D01*
X284915Y268307D01*
X283982D01*
X283081Y268066D01*
X282480Y267719D01*
X281879Y268066D01*
X280978Y268307D01*
X280045D01*
X279144Y268066D01*
X278336Y267599D01*
X277677Y266939D01*
X277210Y266131D01*
X276969Y265230D01*
Y264370D01*
X276108D01*
X275207Y264129D01*
X274606Y263782D01*
X274006Y264129D01*
X273104Y264370D01*
X272244D01*
Y265230D01*
X272003Y266131D01*
X271536Y266939D01*
X270876Y267599D01*
X270068Y268066D01*
X269167Y268307D01*
X268234D01*
X267333Y268066D01*
X266732Y267719D01*
X266131Y268066D01*
X265230Y268307D01*
X264297D01*
X263396Y268066D01*
X262588Y267599D01*
X261928Y266939D01*
X261462Y266131D01*
X261221Y265230D01*
Y264297D01*
X261462Y263396D01*
X261809Y262795D01*
X261462Y262194D01*
X261221Y261293D01*
Y260360D01*
X261462Y259459D01*
X261809Y258858D01*
X261462Y258257D01*
X261221Y257356D01*
Y256423D01*
X261462Y255522D01*
X261809Y254921D01*
X261462Y254320D01*
X261221Y253419D01*
Y252486D01*
X261462Y251585D01*
X261809Y250984D01*
X261462Y250383D01*
X261221Y249482D01*
Y248549D01*
X261462Y247648D01*
X261928Y246840D01*
X262588Y246180D01*
X263396Y245714D01*
X264297Y245472D01*
X265230D01*
X266131Y245714D01*
X266732Y246061D01*
X267333Y245714D01*
X268234Y245472D01*
X269167D01*
X270068Y245714D01*
X270669Y246061D01*
X271270Y245714D01*
X272171Y245472D01*
X273104D01*
X274006Y245714D01*
X274606Y246061D01*
X275207Y245714D01*
X276108Y245472D01*
X277041D01*
X277942Y245714D01*
X278543Y246061D01*
X279144Y245714D01*
X280045Y245472D01*
X280978D01*
X281879Y245714D01*
X282480Y246061D01*
X283081Y245714D01*
X283982Y245472D01*
X284915D01*
X285817Y245714D01*
X286417Y246061D01*
X287018Y245714D01*
X287919Y245472D01*
X288852D01*
X289754Y245714D01*
X290354Y246061D01*
X290955Y245714D01*
X291856Y245472D01*
X292789D01*
X293690Y245714D01*
X294498Y246180D01*
X295158Y246840D01*
X295560Y247536D01*
X295956Y247526D01*
X296260Y247413D01*
Y246529D01*
X296528Y245528D01*
X297046Y244630D01*
X297779Y243897D01*
X298677Y243378D01*
X299678Y243110D01*
X300715D01*
X301716Y243378D01*
X302614Y243897D01*
X303347Y244630D01*
X303866Y245528D01*
X304134Y246529D01*
Y247566D01*
X303866Y248567D01*
X303347Y249465D01*
X302614Y250198D01*
X301716Y250716D01*
X300715Y250984D01*
X299678D01*
X298677Y250716D01*
X297779Y250198D01*
X297046Y249465D01*
X296528Y248567D01*
X295866Y248766D01*
Y249482D01*
X295625Y250383D01*
X295278Y250984D01*
X295625Y251585D01*
X295866Y252486D01*
Y253419D01*
X295625Y254320D01*
X295278Y254921D01*
X295625Y255522D01*
X295866Y256423D01*
Y257356D01*
X295625Y258257D01*
X295278Y258858D01*
X295625Y259459D01*
X295866Y260360D01*
Y261293D01*
X295625Y262194D01*
X295278Y262795D01*
X295625Y263396D01*
X295866Y264297D01*
Y265230D01*
X295625Y266131D01*
X295158Y266939D01*
X294498Y267599D01*
X293690Y268066D01*
X292789Y268307D01*
D02*
G37*
G36*
X231818Y273622D02*
X230781D01*
X229780Y273354D01*
X228882Y272835D01*
X228149Y272102D01*
X227630Y271205D01*
X227362Y270203D01*
Y269167D01*
X227630Y268165D01*
X228149Y267268D01*
X228882Y266535D01*
X229780Y266016D01*
X230781Y265748D01*
X231818D01*
X232819Y266016D01*
X233717Y266535D01*
X234450Y267268D01*
X234968Y268165D01*
X235236Y269167D01*
Y270203D01*
X234968Y271205D01*
X234450Y272102D01*
X233717Y272835D01*
X232819Y273354D01*
X231818Y273622D01*
D02*
G37*
G36*
X390204Y266142D02*
X389323D01*
X388472Y265914D01*
X387709Y265473D01*
X387086Y264850D01*
X386645Y264087D01*
X386417Y263236D01*
Y262355D01*
X386645Y261504D01*
X387086Y260740D01*
X387709Y260118D01*
X388472Y259677D01*
X389323Y259449D01*
X390204D01*
X391055Y259677D01*
X391819Y260118D01*
X392442Y260740D01*
X392882Y261504D01*
X393110Y262355D01*
Y263236D01*
X392882Y264087D01*
X392442Y264850D01*
X391819Y265473D01*
X391055Y265914D01*
X390204Y266142D01*
D02*
G37*
G36*
X247514Y254528D02*
X246581D01*
X245680Y254286D01*
X245079Y253939D01*
X244478Y254286D01*
X243577Y254528D01*
X242644D01*
X241743Y254286D01*
X241142Y253939D01*
X240541Y254286D01*
X239640Y254528D01*
X238707D01*
X237806Y254286D01*
X237205Y253939D01*
X236604Y254286D01*
X235703Y254528D01*
X234770D01*
X233869Y254286D01*
X233268Y253939D01*
X232667Y254286D01*
X231766Y254528D01*
X230833D01*
X229932Y254286D01*
X229331Y253939D01*
X228730Y254286D01*
X227829Y254528D01*
X226896D01*
X225994Y254286D01*
X225187Y253820D01*
X224527Y253160D01*
X224060Y252352D01*
X223819Y251451D01*
Y250518D01*
X224060Y249617D01*
X224407Y249016D01*
X224060Y248415D01*
X223819Y247514D01*
Y246581D01*
X224060Y245680D01*
X224407Y245079D01*
X224060Y244478D01*
X223819Y243577D01*
Y242644D01*
X224060Y241743D01*
X224407Y241142D01*
X224060Y240541D01*
X223819Y239640D01*
Y238707D01*
X224060Y237806D01*
X224407Y237205D01*
X224060Y236604D01*
X223819Y235703D01*
Y234770D01*
X224060Y233869D01*
X224407Y233268D01*
X224060Y232667D01*
X223819Y231766D01*
Y230833D01*
X224060Y229932D01*
X224407Y229331D01*
X224060Y228730D01*
X223819Y227829D01*
Y226896D01*
X224060Y225994D01*
X224407Y225394D01*
X224060Y224793D01*
X223819Y223892D01*
Y222959D01*
X224060Y222058D01*
X224407Y221457D01*
X224060Y220856D01*
X223819Y219955D01*
Y219022D01*
X224060Y218121D01*
X224527Y217313D01*
X225187Y216653D01*
X225994Y216186D01*
X226896Y215945D01*
X227829D01*
X228730Y216186D01*
X229331Y216533D01*
X229932Y216186D01*
X230833Y215945D01*
X231766D01*
X232667Y216186D01*
X233268Y216533D01*
X233869Y216186D01*
X234770Y215945D01*
X235703D01*
X236604Y216186D01*
X237205Y216533D01*
X237806Y216186D01*
X238707Y215945D01*
X239640D01*
X240541Y216186D01*
X241142Y216533D01*
X241743Y216186D01*
X242644Y215945D01*
X243577D01*
X244478Y216186D01*
X245079Y216533D01*
X245680Y216186D01*
X246581Y215945D01*
X247514D01*
X248415Y216186D01*
X249223Y216653D01*
X249883Y217313D01*
X250349Y218121D01*
X250590Y219022D01*
Y219955D01*
X250349Y220856D01*
X250002Y221457D01*
X250349Y222058D01*
X250590Y222959D01*
Y223892D01*
X250349Y224793D01*
X250002Y225394D01*
X250349Y225994D01*
X250590Y226896D01*
Y227829D01*
X250349Y228730D01*
X249883Y229538D01*
X249223Y230198D01*
X248415Y230664D01*
X247514Y230906D01*
X246581D01*
X245680Y230664D01*
X245079Y230317D01*
X244478Y230664D01*
X243577Y230906D01*
X242717D01*
Y231766D01*
X242475Y232667D01*
X242128Y233268D01*
X242475Y233869D01*
X242717Y234770D01*
Y235703D01*
X242475Y236604D01*
X242128Y237205D01*
X242475Y237806D01*
X242717Y238707D01*
Y239640D01*
X242475Y240541D01*
X242128Y241142D01*
X242475Y241743D01*
X242717Y242644D01*
Y243504D01*
X243577D01*
X244478Y243745D01*
X245079Y244092D01*
X245680Y243745D01*
X246581Y243504D01*
X247514D01*
X248415Y243745D01*
X249223Y244212D01*
X249883Y244872D01*
X250349Y245680D01*
X250590Y246581D01*
Y247514D01*
X250349Y248415D01*
X250002Y249016D01*
X250349Y249617D01*
X250590Y250518D01*
Y251451D01*
X250349Y252352D01*
X249883Y253160D01*
X249223Y253820D01*
X248415Y254286D01*
X247514Y254528D01*
D02*
G37*
G36*
X17253Y256906D02*
X17232D01*
Y253453D01*
X20685D01*
Y253473D01*
X20416Y254479D01*
X19895Y255380D01*
X19159Y256116D01*
X18258Y256636D01*
X17253Y256906D01*
D02*
G37*
G36*
X16232D02*
X16212D01*
X15207Y256636D01*
X14305Y256116D01*
X13569Y255380D01*
X13049Y254479D01*
X12779Y253473D01*
Y253453D01*
X16232D01*
Y256906D01*
D02*
G37*
G36*
X20685Y252453D02*
X17232D01*
Y249000D01*
X17253D01*
X18258Y249269D01*
X19159Y249790D01*
X19895Y250526D01*
X20416Y251427D01*
X20685Y252432D01*
Y252453D01*
D02*
G37*
G36*
X16232D02*
X12779D01*
Y252432D01*
X13049Y251427D01*
X13569Y250526D01*
X14305Y249790D01*
X15207Y249269D01*
X16212Y249000D01*
X16232D01*
Y252453D01*
D02*
G37*
G36*
X37096Y259842D02*
X35739D01*
X34408Y259578D01*
X33154Y259058D01*
X32025Y258304D01*
X31066Y257345D01*
X30312Y256216D01*
X29792Y254962D01*
X29528Y253631D01*
Y252274D01*
X29792Y250943D01*
X30312Y249689D01*
X31066Y248561D01*
X32025Y247601D01*
X33154Y246847D01*
X34408Y246328D01*
X35739Y246063D01*
X37096D01*
X38427Y246328D01*
X39681Y246847D01*
X40809Y247601D01*
X41769Y248561D01*
X42523Y249689D01*
X43042Y250943D01*
X43307Y252274D01*
Y253631D01*
X43042Y254962D01*
X42523Y256216D01*
X41769Y257345D01*
X40809Y258304D01*
X39681Y259058D01*
X38427Y259578D01*
X37096Y259842D01*
D02*
G37*
G36*
X199285Y249606D02*
X198352D01*
X197451Y249365D01*
X196643Y248898D01*
X195984Y248239D01*
X195517Y247431D01*
X195276Y246530D01*
Y245597D01*
X195517Y244695D01*
X195984Y243887D01*
X196643Y243228D01*
X197451Y242761D01*
X198352Y242520D01*
X199285D01*
X200187Y242761D01*
X200994Y243228D01*
X201654Y243887D01*
X202121Y244695D01*
X202362Y245597D01*
Y246530D01*
X202121Y247431D01*
X201654Y248239D01*
X200994Y248898D01*
X200187Y249365D01*
X199285Y249606D01*
D02*
G37*
G36*
X321385Y247047D02*
X320348D01*
X319346Y246779D01*
X318449Y246261D01*
X317716Y245528D01*
X317197Y244630D01*
X316929Y243629D01*
Y242592D01*
X317197Y241591D01*
X317716Y240693D01*
X318449Y239960D01*
X319346Y239441D01*
X320348Y239173D01*
X321385D01*
X322386Y239441D01*
X323284Y239960D01*
X324016Y240693D01*
X324535Y241591D01*
X324803Y242592D01*
Y243629D01*
X324535Y244630D01*
X324016Y245528D01*
X323284Y246261D01*
X322386Y246779D01*
X321385Y247047D01*
D02*
G37*
G36*
X289712Y228911D02*
X288779D01*
X287878Y228670D01*
X287070Y228203D01*
X286410Y227543D01*
X285944Y226735D01*
X285702Y225834D01*
Y224901D01*
X285944Y224000D01*
X286410Y223192D01*
X287070Y222532D01*
X287878Y222066D01*
X288779Y221824D01*
X289712D01*
X290613Y222066D01*
X291421Y222532D01*
X292081Y223192D01*
X292547Y224000D01*
X292789Y224901D01*
Y225834D01*
X292547Y226735D01*
X292081Y227543D01*
X291421Y228203D01*
X290613Y228670D01*
X289712Y228911D01*
D02*
G37*
G36*
X362645Y227756D02*
X361764D01*
X360913Y227528D01*
X360150Y227087D01*
X359527Y226464D01*
X359086Y225701D01*
X358858Y224850D01*
Y223969D01*
X359086Y223118D01*
X359527Y222355D01*
X360150Y221732D01*
X360913Y221291D01*
X361764Y221063D01*
X362645D01*
X363496Y221291D01*
X364260Y221732D01*
X364882Y222355D01*
X365323Y223118D01*
X365551Y223969D01*
Y224850D01*
X365323Y225701D01*
X364882Y226464D01*
X364260Y227087D01*
X363496Y227528D01*
X362645Y227756D01*
D02*
G37*
G36*
X511345Y219535D02*
X510308D01*
X509307Y219267D01*
X508409Y218749D01*
X507676Y218016D01*
X507158Y217118D01*
X506890Y216117D01*
Y215080D01*
X507158Y214079D01*
X507676Y213181D01*
X508409Y212448D01*
X509307Y211930D01*
X510308Y211661D01*
X511345D01*
X512346Y211930D01*
X513244Y212448D01*
X513977Y213181D01*
X514496Y214079D01*
X514764Y215080D01*
Y216117D01*
X514496Y217118D01*
X513977Y218016D01*
X513244Y218749D01*
X512346Y219267D01*
X511345Y219535D01*
D02*
G37*
G36*
X319416Y214567D02*
X318379D01*
X317378Y214299D01*
X316480Y213780D01*
X315747Y213047D01*
X315229Y212150D01*
X314961Y211148D01*
Y210112D01*
X315229Y209110D01*
X315747Y208213D01*
X316480Y207480D01*
X317378Y206961D01*
X318379Y206693D01*
X319416D01*
X320417Y206961D01*
X321315Y207480D01*
X322048Y208213D01*
X322566Y209110D01*
X322835Y210112D01*
Y211148D01*
X322566Y212150D01*
X322048Y213047D01*
X321315Y213780D01*
X320417Y214299D01*
X319416Y214567D01*
D02*
G37*
G36*
X118887Y202772D02*
X118610D01*
Y195382D01*
X126000D01*
Y195659D01*
X125697Y197183D01*
X125102Y198619D01*
X124239Y199911D01*
X123140Y201010D01*
X121847Y201874D01*
X120412Y202468D01*
X118887Y202772D01*
D02*
G37*
G36*
X117610D02*
X117333D01*
X115809Y202468D01*
X114373Y201874D01*
X113081Y201010D01*
X111982Y199911D01*
X111118Y198619D01*
X110524Y197183D01*
X110221Y195659D01*
Y195382D01*
X117610D01*
Y202772D01*
D02*
G37*
G36*
X343286Y200000D02*
X342250D01*
X341248Y199732D01*
X340351Y199213D01*
X339618Y198480D01*
X339099Y197583D01*
X338831Y196581D01*
Y195545D01*
X339099Y194543D01*
X339618Y193646D01*
X340351Y192913D01*
X341248Y192394D01*
X342250Y192126D01*
X343286D01*
X344288Y192394D01*
X345185Y192913D01*
X345918Y193646D01*
X346437Y194543D01*
X346705Y195545D01*
Y196581D01*
X346437Y197583D01*
X345918Y198480D01*
X345185Y199213D01*
X344288Y199732D01*
X343286Y200000D01*
D02*
G37*
G36*
X314495Y198819D02*
X313458D01*
X312457Y198551D01*
X311559Y198032D01*
X310826Y197299D01*
X310308Y196402D01*
X310039Y195400D01*
Y194364D01*
X310308Y193362D01*
X310826Y192464D01*
X311559Y191732D01*
X312457Y191213D01*
X313458Y190945D01*
X314495D01*
X315496Y191213D01*
X316394Y191732D01*
X317127Y192464D01*
X317645Y193362D01*
X317913Y194364D01*
Y195400D01*
X317645Y196402D01*
X317127Y197299D01*
X316394Y198032D01*
X315496Y198551D01*
X314495Y198819D01*
D02*
G37*
G36*
X511345Y196484D02*
X510308D01*
X509307Y196216D01*
X508409Y195698D01*
X507676Y194965D01*
X507158Y194067D01*
X506890Y193066D01*
Y192029D01*
X507158Y191028D01*
X507676Y190130D01*
X508409Y189397D01*
X509307Y188879D01*
X510308Y188610D01*
X511345D01*
X512346Y188879D01*
X513244Y189397D01*
X513977Y190130D01*
X514496Y191028D01*
X514764Y192029D01*
Y193066D01*
X514496Y194067D01*
X513977Y194965D01*
X513244Y195698D01*
X512346Y196216D01*
X511345Y196484D01*
D02*
G37*
G36*
X289811Y189370D02*
X288930D01*
X288078Y189142D01*
X287315Y188701D01*
X286856Y188242D01*
X286417Y188142D01*
X285979Y188242D01*
X285519Y188701D01*
X284756Y189142D01*
X283905Y189370D01*
X283024D01*
X282173Y189142D01*
X281410Y188701D01*
X280787Y188078D01*
X280346Y187315D01*
X280118Y186464D01*
Y185583D01*
X280346Y184732D01*
X280787Y183969D01*
X281410Y183346D01*
X282173Y182905D01*
X283024Y182677D01*
X283905D01*
X284756Y182905D01*
X285519Y183346D01*
X285979Y183805D01*
X286417Y183906D01*
X286856Y183805D01*
X287315Y183346D01*
X288078Y182905D01*
X288930Y182677D01*
X289811D01*
X290662Y182905D01*
X291425Y183346D01*
X292048Y183969D01*
X292489Y184732D01*
X292717Y185583D01*
Y186464D01*
X292489Y187315D01*
X292048Y188078D01*
X291425Y188701D01*
X290662Y189142D01*
X289811Y189370D01*
D02*
G37*
G36*
X126000Y194382D02*
X118610D01*
Y186992D01*
X118887D01*
X120412Y187295D01*
X121847Y187890D01*
X123140Y188753D01*
X124239Y189852D01*
X125102Y191145D01*
X125697Y192580D01*
X126000Y194105D01*
Y194382D01*
D02*
G37*
G36*
X117610D02*
X110221D01*
Y194105D01*
X110524Y192580D01*
X111118Y191145D01*
X111982Y189852D01*
X113081Y188753D01*
X114373Y187890D01*
X115809Y187295D01*
X117333Y186992D01*
X117610D01*
Y194382D01*
D02*
G37*
G36*
X138962Y205709D02*
X137258D01*
X135575Y205442D01*
X133954Y204915D01*
X132436Y204142D01*
X131057Y203140D01*
X129852Y201935D01*
X128850Y200556D01*
X128077Y199038D01*
X127550Y197417D01*
X127284Y195734D01*
Y194030D01*
X127550Y192347D01*
X128077Y190726D01*
X128850Y189207D01*
X129852Y187829D01*
X131057Y186624D01*
X132436Y185622D01*
X133954Y184848D01*
X135575Y184322D01*
X137258Y184055D01*
X138962D01*
X140646Y184322D01*
X142266Y184848D01*
X143785Y185622D01*
X145163Y186624D01*
X146368Y187829D01*
X147370Y189207D01*
X148144Y190726D01*
X148670Y192347D01*
X148937Y194030D01*
Y195734D01*
X148670Y197417D01*
X148144Y199038D01*
X147370Y200556D01*
X146368Y201935D01*
X145163Y203140D01*
X143785Y204142D01*
X142266Y204915D01*
X140646Y205442D01*
X138962Y205709D01*
D02*
G37*
G36*
X98962D02*
X97258D01*
X95575Y205442D01*
X93954Y204915D01*
X92436Y204142D01*
X91057Y203140D01*
X89852Y201935D01*
X88850Y200556D01*
X88077Y199038D01*
X87550Y197417D01*
X87283Y195734D01*
Y194030D01*
X87550Y192347D01*
X88077Y190726D01*
X88850Y189207D01*
X89852Y187829D01*
X91057Y186624D01*
X92436Y185622D01*
X93954Y184848D01*
X95575Y184322D01*
X97258Y184055D01*
X98962D01*
X100645Y184322D01*
X102266Y184848D01*
X103785Y185622D01*
X105163Y186624D01*
X106368Y187829D01*
X107370Y189207D01*
X108144Y190726D01*
X108670Y192347D01*
X108937Y194030D01*
Y195734D01*
X108670Y197417D01*
X108144Y199038D01*
X107370Y200556D01*
X106368Y201935D01*
X105163Y203140D01*
X103785Y204142D01*
X102266Y204915D01*
X100645Y205442D01*
X98962Y205709D01*
D02*
G37*
G36*
X216976Y179527D02*
X216095D01*
X215244Y179299D01*
X214481Y178859D01*
X213858Y178236D01*
X213417Y177473D01*
X213189Y176622D01*
Y175741D01*
X213417Y174889D01*
X213858Y174126D01*
X214481Y173503D01*
X215244Y173063D01*
X216095Y172835D01*
X216976D01*
X217827Y173063D01*
X218590Y173503D01*
X219213Y174126D01*
X219654Y174889D01*
X219882Y175741D01*
Y176622D01*
X219654Y177473D01*
X219213Y178236D01*
X218590Y178859D01*
X217827Y179299D01*
X216976Y179527D01*
D02*
G37*
G36*
X79711Y174587D02*
X78675D01*
X77673Y174318D01*
X76775Y173800D01*
X76042Y173067D01*
X75524Y172169D01*
X75256Y171168D01*
Y170131D01*
X75524Y169130D01*
X76042Y168232D01*
X76775Y167499D01*
X77673Y166981D01*
X78675Y166713D01*
X79711D01*
X80712Y166981D01*
X81610Y167499D01*
X82343Y168232D01*
X82862Y169130D01*
X83130Y170131D01*
Y171168D01*
X82862Y172169D01*
X82343Y173067D01*
X81610Y173800D01*
X80712Y174318D01*
X79711Y174587D01*
D02*
G37*
G36*
X229025Y212244D02*
X227668D01*
X226337Y211979D01*
X225083Y211460D01*
X223955Y210706D01*
X222995Y209746D01*
X222241Y208618D01*
X221722Y207364D01*
X221457Y206033D01*
Y204676D01*
X221722Y203345D01*
X222241Y202091D01*
X222995Y200962D01*
X223603Y200354D01*
X222995Y199746D01*
X222241Y198618D01*
X221722Y197364D01*
X221457Y196033D01*
Y194676D01*
X221722Y193345D01*
X222241Y192091D01*
X222995Y190962D01*
X223603Y190354D01*
X222995Y189746D01*
X222241Y188618D01*
X221722Y187364D01*
X221457Y186033D01*
Y184676D01*
X221722Y183345D01*
X222241Y182091D01*
X222995Y180962D01*
X223603Y180354D01*
X222995Y179746D01*
X222241Y178618D01*
X221722Y177364D01*
X221457Y176033D01*
Y174676D01*
X221722Y173345D01*
X222241Y172091D01*
X222995Y170962D01*
X223955Y170003D01*
X225083Y169249D01*
X225539Y169060D01*
X225656Y168254D01*
X225184Y167781D01*
X224663Y166880D01*
X224394Y165875D01*
Y165854D01*
X228346D01*
X232299D01*
Y165875D01*
X232030Y166880D01*
X231509Y167781D01*
X231037Y168254D01*
X231154Y169060D01*
X231610Y169249D01*
X232738Y170003D01*
X233698Y170962D01*
X234452Y172091D01*
X234971Y173345D01*
X235236Y174676D01*
Y176033D01*
X234971Y177364D01*
X234452Y178618D01*
X233698Y179746D01*
X233090Y180354D01*
X233698Y180962D01*
X234452Y182091D01*
X234971Y183345D01*
X235236Y184676D01*
Y186033D01*
X234971Y187364D01*
X234452Y188618D01*
X233698Y189746D01*
X233090Y190354D01*
X233698Y190962D01*
X234452Y192091D01*
X234971Y193345D01*
X235236Y194676D01*
Y196033D01*
X234971Y197364D01*
X234452Y198618D01*
X233698Y199746D01*
X233090Y200354D01*
X233698Y200962D01*
X234452Y202091D01*
X234971Y203345D01*
X235236Y204676D01*
Y206033D01*
X234971Y207364D01*
X234452Y208618D01*
X233698Y209746D01*
X232738Y210706D01*
X231610Y211460D01*
X230356Y211979D01*
X229025Y212244D01*
D02*
G37*
G36*
X413904Y178150D02*
X412867D01*
X411866Y177881D01*
X410968Y177363D01*
X410236Y176630D01*
X409717Y175732D01*
X409449Y174731D01*
Y173694D01*
X409596Y173143D01*
X408914Y172960D01*
X408016Y172442D01*
X407283Y171709D01*
X406764Y170811D01*
X406496Y169810D01*
Y168773D01*
X406764Y167772D01*
X407283Y166874D01*
X408016Y166141D01*
X408914Y165623D01*
X409915Y165354D01*
X410951D01*
X411953Y165623D01*
X412850Y166141D01*
X413583Y166874D01*
X414102Y167772D01*
X414370Y168773D01*
Y169810D01*
X414222Y170361D01*
X414906Y170544D01*
X415803Y171062D01*
X416536Y171795D01*
X417055Y172693D01*
X417323Y173694D01*
Y174731D01*
X417055Y175732D01*
X416536Y176630D01*
X415803Y177363D01*
X414906Y177881D01*
X413904Y178150D01*
D02*
G37*
G36*
X335232Y176024D02*
X334351D01*
X333500Y175796D01*
X332737Y175355D01*
X332114Y174732D01*
X331673Y173969D01*
X331445Y173118D01*
Y172237D01*
X331673Y171386D01*
X332114Y170622D01*
X332559Y170177D01*
X332114Y169732D01*
X331673Y168969D01*
X331445Y168118D01*
Y167237D01*
X331673Y166385D01*
X332114Y165622D01*
X332737Y164999D01*
X333500Y164559D01*
X334351Y164331D01*
X335232D01*
X336083Y164559D01*
X336846Y164999D01*
X337469Y165622D01*
X337910Y166385D01*
X338138Y167237D01*
Y168118D01*
X337910Y168969D01*
X337469Y169732D01*
X337024Y170177D01*
X337469Y170622D01*
X337910Y171386D01*
X338138Y172237D01*
Y173118D01*
X337910Y173969D01*
X337469Y174732D01*
X336846Y175355D01*
X336083Y175796D01*
X335232Y176024D01*
D02*
G37*
G36*
X453274Y169291D02*
X452238D01*
X451236Y169023D01*
X450339Y168505D01*
X449606Y167772D01*
X449087Y166874D01*
X448819Y165873D01*
Y164836D01*
X449087Y163835D01*
X449606Y162937D01*
X450339Y162204D01*
X451236Y161686D01*
X452238Y161417D01*
X453274D01*
X454276Y161686D01*
X455173Y162204D01*
X455906Y162937D01*
X456425Y163835D01*
X456693Y164836D01*
Y165873D01*
X456425Y166874D01*
X455906Y167772D01*
X455173Y168505D01*
X454276Y169023D01*
X453274Y169291D01*
D02*
G37*
G36*
X242566Y166024D02*
X241685D01*
X240834Y165796D01*
X240071Y165355D01*
X239448Y164732D01*
X239008Y163969D01*
X238779Y163118D01*
Y162237D01*
X239008Y161386D01*
X239448Y160622D01*
X240071Y159999D01*
X240834Y159559D01*
X241685Y159331D01*
X242566D01*
X243418Y159559D01*
X244181Y159999D01*
X244804Y160622D01*
X245244Y161386D01*
X245472Y162237D01*
Y163118D01*
X245244Y163969D01*
X244804Y164732D01*
X244181Y165355D01*
X243418Y165796D01*
X242566Y166024D01*
D02*
G37*
G36*
X49444Y161791D02*
X48408D01*
X47406Y161523D01*
X46509Y161005D01*
X45776Y160272D01*
X45257Y159374D01*
X44989Y158373D01*
Y157336D01*
X45257Y156335D01*
X45776Y155437D01*
X46509Y154704D01*
X47406Y154186D01*
X48408Y153917D01*
X49444D01*
X50446Y154186D01*
X51343Y154704D01*
X52076Y155437D01*
X52595Y156335D01*
X52863Y157336D01*
Y158373D01*
X52595Y159374D01*
X52076Y160272D01*
X51343Y161005D01*
X50446Y161523D01*
X49444Y161791D01*
D02*
G37*
G36*
X74790Y160807D02*
X73753D01*
X72752Y160539D01*
X71854Y160020D01*
X71121Y159287D01*
X70603Y158390D01*
X70335Y157388D01*
Y156352D01*
X70603Y155350D01*
X71121Y154453D01*
X71854Y153720D01*
X72752Y153201D01*
X73753Y152933D01*
X74790D01*
X75791Y153201D01*
X76689Y153720D01*
X77422Y154453D01*
X77940Y155350D01*
X78209Y156352D01*
Y157388D01*
X77940Y158390D01*
X77422Y159287D01*
X76689Y160020D01*
X75791Y160539D01*
X74790Y160807D01*
D02*
G37*
G36*
X402093Y153543D02*
X401056D01*
X400055Y153275D01*
X399157Y152757D01*
X398564Y152163D01*
X398130Y152080D01*
X397696Y152163D01*
X397102Y152757D01*
X396205Y153275D01*
X395203Y153543D01*
X394167D01*
X393165Y153275D01*
X392268Y152757D01*
X391674Y152163D01*
X391240Y152080D01*
X390807Y152163D01*
X390213Y152757D01*
X389315Y153275D01*
X388314Y153543D01*
X387277D01*
X386276Y153275D01*
X385378Y152757D01*
X384784Y152163D01*
X384350Y152080D01*
X383917Y152163D01*
X383323Y152757D01*
X382425Y153275D01*
X381424Y153543D01*
X380387D01*
X379386Y153275D01*
X378488Y152757D01*
X377755Y152024D01*
X377237Y151126D01*
X376969Y150125D01*
Y149088D01*
X377237Y148087D01*
X377755Y147189D01*
X378488Y146456D01*
X379386Y145938D01*
X380387Y145669D01*
X381424D01*
X382425Y145938D01*
X383323Y146456D01*
X383917Y147050D01*
X384350Y147133D01*
X384784Y147050D01*
X385378Y146456D01*
X386276Y145938D01*
X387277Y145669D01*
X388314D01*
X389315Y145938D01*
X390213Y146456D01*
X390807Y147050D01*
X391240Y147133D01*
X391674Y147050D01*
X392268Y146456D01*
X393165Y145938D01*
X394167Y145669D01*
X395203D01*
X396205Y145938D01*
X397102Y146456D01*
X397696Y147050D01*
X398130Y147133D01*
X398564Y147050D01*
X399157Y146456D01*
X400055Y145938D01*
X401056Y145669D01*
X402093D01*
X403094Y145938D01*
X403992Y146456D01*
X404725Y147189D01*
X405243Y148087D01*
X405512Y149088D01*
Y150125D01*
X405243Y151126D01*
X404725Y152024D01*
X403992Y152757D01*
X403094Y153275D01*
X402093Y153543D01*
D02*
G37*
G36*
X421778Y159449D02*
X420742D01*
X419740Y159180D01*
X418843Y158662D01*
X418110Y157929D01*
X417591Y157031D01*
X417323Y156030D01*
Y154993D01*
X417591Y153992D01*
X418110Y153094D01*
X418843Y152361D01*
X419740Y151843D01*
X420742Y151575D01*
X421778D01*
X422780Y151843D01*
X423677Y152361D01*
X424410Y153094D01*
X424929Y153992D01*
X425197Y154993D01*
Y156030D01*
X424929Y157031D01*
X424410Y157929D01*
X423677Y158662D01*
X422780Y159180D01*
X421778Y159449D01*
D02*
G37*
G36*
X335232Y155905D02*
X334351D01*
X333500Y155677D01*
X332737Y155237D01*
X332114Y154614D01*
X331673Y153851D01*
X331445Y153000D01*
Y152119D01*
X331673Y151267D01*
X332114Y150504D01*
X332737Y149881D01*
X333500Y149441D01*
X334351Y149213D01*
X335232D01*
X336083Y149441D01*
X336846Y149881D01*
X337469Y150504D01*
X337910Y151267D01*
X338138Y152119D01*
Y153000D01*
X337910Y153851D01*
X337469Y154614D01*
X336846Y155237D01*
X336083Y155677D01*
X335232Y155905D01*
D02*
G37*
G36*
X232299Y164854D02*
X228346D01*
X224394D01*
Y164834D01*
X224663Y163829D01*
X225184Y162927D01*
X225220Y162891D01*
X224952Y162244D01*
X221457D01*
Y148465D01*
X235236D01*
Y162244D01*
X231741D01*
X231473Y162891D01*
X231509Y162927D01*
X232030Y163829D01*
X232299Y164834D01*
Y164854D01*
D02*
G37*
G36*
X65932Y154902D02*
X64895D01*
X63894Y154633D01*
X62996Y154115D01*
X62263Y153382D01*
X61745Y152484D01*
X61476Y151483D01*
Y150446D01*
X61745Y149445D01*
X62263Y148547D01*
X62996Y147814D01*
X63894Y147296D01*
X64895Y147028D01*
X65932D01*
X66933Y147296D01*
X67831Y147814D01*
X68564Y148547D01*
X69082Y149445D01*
X69350Y150446D01*
Y151483D01*
X69082Y152484D01*
X68564Y153382D01*
X67831Y154115D01*
X66933Y154633D01*
X65932Y154902D01*
D02*
G37*
G36*
X497192Y148622D02*
X496155D01*
X495154Y148354D01*
X494256Y147835D01*
X493523Y147102D01*
X493005Y146205D01*
X492736Y145203D01*
Y144167D01*
X493005Y143165D01*
X493523Y142268D01*
X494256Y141535D01*
X495154Y141016D01*
X496155Y140748D01*
X497192D01*
X498193Y141016D01*
X499091Y141535D01*
X499824Y142268D01*
X500342Y143165D01*
X500610Y144167D01*
Y145203D01*
X500342Y146205D01*
X499824Y147102D01*
X499091Y147835D01*
X498193Y148354D01*
X497192Y148622D01*
D02*
G37*
G36*
X443432Y147638D02*
X442395D01*
X441394Y147370D01*
X440496Y146851D01*
X439763Y146118D01*
X439245Y145220D01*
X438976Y144219D01*
Y143183D01*
X439245Y142181D01*
X439763Y141283D01*
X440496Y140550D01*
X441394Y140032D01*
X442395Y139764D01*
X443432D01*
X444433Y140032D01*
X445331Y140550D01*
X446064Y141283D01*
X446582Y142181D01*
X446850Y143183D01*
Y144219D01*
X446582Y145220D01*
X446064Y146118D01*
X445331Y146851D01*
X444433Y147370D01*
X443432Y147638D01*
D02*
G37*
G36*
X255362Y166024D02*
X254481D01*
X253630Y165796D01*
X252867Y165355D01*
X252243Y164732D01*
X251803Y163969D01*
X251575Y163118D01*
Y162237D01*
X251803Y161386D01*
X252243Y160622D01*
X252689Y160177D01*
X252243Y159732D01*
X251803Y158969D01*
X251575Y158118D01*
Y157237D01*
X251803Y156386D01*
X252243Y155622D01*
X252689Y155177D01*
X252243Y154732D01*
X251803Y153969D01*
X251575Y153118D01*
Y152237D01*
X251803Y151385D01*
X252243Y150622D01*
X252689Y150177D01*
X252243Y149732D01*
X251803Y148969D01*
X251575Y148118D01*
Y147237D01*
X251803Y146386D01*
X252243Y145622D01*
X252689Y145177D01*
X252243Y144732D01*
X251803Y143969D01*
X251575Y143118D01*
Y142237D01*
X251803Y141385D01*
X252243Y140622D01*
X252689Y140177D01*
X252243Y139732D01*
X251803Y138969D01*
X251575Y138118D01*
Y137237D01*
X251803Y136386D01*
X252243Y135622D01*
X252867Y134999D01*
X253630Y134559D01*
X254481Y134331D01*
X255362D01*
X256213Y134559D01*
X256976Y134999D01*
X257599Y135622D01*
X258040Y136386D01*
X258268Y137237D01*
Y138118D01*
X258040Y138969D01*
X257599Y139732D01*
X257154Y140177D01*
X257599Y140622D01*
X258040Y141385D01*
X258268Y142237D01*
Y143118D01*
X258040Y143969D01*
X257599Y144732D01*
X257154Y145177D01*
X257599Y145622D01*
X258040Y146386D01*
X258268Y147237D01*
Y148118D01*
X258040Y148969D01*
X257599Y149732D01*
X257154Y150177D01*
X257599Y150622D01*
X258040Y151385D01*
X258268Y152237D01*
Y153118D01*
X258040Y153969D01*
X257599Y154732D01*
X257154Y155177D01*
X257599Y155622D01*
X258040Y156386D01*
X258268Y157237D01*
Y158118D01*
X258040Y158969D01*
X257599Y159732D01*
X257154Y160177D01*
X257599Y160622D01*
X258040Y161386D01*
X258268Y162237D01*
Y163118D01*
X258040Y163969D01*
X257599Y164732D01*
X256976Y165355D01*
X256213Y165796D01*
X255362Y166024D01*
D02*
G37*
G36*
X49444Y148012D02*
X48408D01*
X47406Y147743D01*
X46509Y147225D01*
X45776Y146492D01*
X45257Y145595D01*
X44989Y144593D01*
Y143556D01*
X45257Y142555D01*
X45776Y141657D01*
X46509Y140925D01*
X47347Y140440D01*
X47474Y140260D01*
X47618Y139722D01*
X47499Y139602D01*
X46981Y138705D01*
X46713Y137703D01*
Y136667D01*
X46981Y135665D01*
X47499Y134768D01*
X48232Y134035D01*
X49130Y133516D01*
X50131Y133248D01*
X51168D01*
X52169Y133516D01*
X53067Y134035D01*
X53800Y134768D01*
X54318Y135665D01*
X54587Y136667D01*
Y137703D01*
X54318Y138705D01*
X53800Y139602D01*
X53067Y140335D01*
X52228Y140820D01*
X52101Y141000D01*
X51957Y141538D01*
X52076Y141657D01*
X52595Y142555D01*
X52863Y143556D01*
Y144593D01*
X52595Y145595D01*
X52076Y146492D01*
X51343Y147225D01*
X50446Y147743D01*
X49444Y148012D01*
D02*
G37*
G36*
X394219Y135827D02*
X393182D01*
X392181Y135558D01*
X391283Y135040D01*
X390550Y134307D01*
X390032Y133409D01*
X389764Y132408D01*
Y131998D01*
X389315Y131653D01*
X388278D01*
X387502Y131445D01*
X387214Y131436D01*
X386695Y131857D01*
X386543Y132425D01*
X386024Y133323D01*
X385291Y134056D01*
X384394Y134574D01*
X383392Y134843D01*
X382356D01*
X381354Y134574D01*
X380457Y134056D01*
X379724Y133323D01*
X379205Y132425D01*
X378937Y131424D01*
Y130387D01*
X379205Y129386D01*
X379724Y128488D01*
X380457Y127755D01*
X381354Y127237D01*
X382356Y126969D01*
X383392D01*
X384168Y127176D01*
X384457Y127185D01*
X384976Y126765D01*
X385128Y126197D01*
X385646Y125299D01*
X386379Y124566D01*
X387277Y124048D01*
X388278Y123779D01*
X389315D01*
X390316Y124048D01*
X391214Y124566D01*
X391947Y125299D01*
X392465Y126197D01*
X392734Y127198D01*
Y127608D01*
X393182Y127953D01*
X394219D01*
X395220Y128221D01*
X395303Y128269D01*
X396154Y128026D01*
X396456Y127504D01*
X397189Y126771D01*
X398087Y126253D01*
X399088Y125984D01*
X400125D01*
X401126Y126253D01*
X402024Y126771D01*
X402757Y127504D01*
X403275Y128402D01*
X403543Y129403D01*
Y130440D01*
X403275Y131441D01*
X402757Y132339D01*
X402024Y133072D01*
X401126Y133590D01*
X400125Y133858D01*
X399088D01*
X398087Y133590D01*
X398004Y133542D01*
X397153Y133785D01*
X396851Y134307D01*
X396118Y135040D01*
X395220Y135558D01*
X394219Y135827D01*
D02*
G37*
G36*
X69817Y131870D02*
X68884D01*
X67983Y131629D01*
X67382Y131282D01*
X66781Y131629D01*
X65880Y131870D01*
X64947D01*
X64046Y131629D01*
X63445Y131282D01*
X62844Y131629D01*
X61943Y131870D01*
X61010D01*
X60109Y131629D01*
X59508Y131282D01*
X58907Y131629D01*
X58006Y131870D01*
X57073D01*
X56172Y131629D01*
X55571Y131282D01*
X54970Y131629D01*
X54069Y131870D01*
X53136D01*
X52235Y131629D01*
X51634Y131282D01*
X51033Y131629D01*
X50132Y131870D01*
X49199D01*
X48298Y131629D01*
X47697Y131282D01*
X47096Y131629D01*
X46195Y131870D01*
X45262D01*
X44361Y131629D01*
X43553Y131162D01*
X42893Y130502D01*
X42426Y129694D01*
X42185Y128793D01*
Y127860D01*
X42426Y126959D01*
X42773Y126358D01*
X42426Y125757D01*
X42185Y124856D01*
Y123923D01*
X42426Y123022D01*
X42773Y122421D01*
X42426Y121820D01*
X42185Y120919D01*
Y119986D01*
X42426Y119085D01*
X42773Y118484D01*
X42426Y117883D01*
X42185Y116982D01*
Y116049D01*
X42426Y115148D01*
X42893Y114340D01*
X43553Y113680D01*
X44361Y113214D01*
X45262Y112972D01*
X46195D01*
X47096Y113214D01*
X47697Y113561D01*
X48298Y113214D01*
X49199Y112972D01*
X50132D01*
X51033Y113214D01*
X51634Y113561D01*
X52235Y113214D01*
X53136Y112972D01*
X54069D01*
X54970Y113214D01*
X55571Y113561D01*
X56172Y113214D01*
X57073Y112972D01*
X58006D01*
X58907Y113214D01*
X59508Y113561D01*
X60109Y113214D01*
X61010Y112972D01*
X61943D01*
X62844Y113214D01*
X63445Y113561D01*
X64046Y113214D01*
X64947Y112972D01*
X65880D01*
X66781Y113214D01*
X67382Y113561D01*
X67983Y113214D01*
X68884Y112972D01*
X69817D01*
X70718Y113214D01*
X71319Y113561D01*
X71920Y113214D01*
X72821Y112972D01*
X73754D01*
X74655Y113214D01*
X75463Y113680D01*
X76123Y114340D01*
X76589Y115148D01*
X76831Y116049D01*
Y116982D01*
X76589Y117883D01*
X76242Y118484D01*
X76589Y119085D01*
X76831Y119986D01*
Y120919D01*
X76589Y121820D01*
X76242Y122421D01*
X76589Y123022D01*
X76831Y123923D01*
Y124856D01*
X76589Y125757D01*
X76123Y126565D01*
X75463Y127225D01*
X74655Y127692D01*
X73754Y127933D01*
X72894D01*
Y128793D01*
X72652Y129694D01*
X72186Y130502D01*
X71526Y131162D01*
X70718Y131629D01*
X69817Y131870D01*
D02*
G37*
G36*
X95734Y131677D02*
X94801D01*
X93900Y131436D01*
X93299Y131089D01*
X92698Y131436D01*
X91797Y131677D01*
X90864D01*
X89963Y131436D01*
X89362Y131089D01*
X88761Y131436D01*
X87860Y131677D01*
X86927D01*
X86026Y131436D01*
X85218Y130969D01*
X84558Y130309D01*
X84092Y129501D01*
X83850Y128600D01*
Y127667D01*
X84092Y126766D01*
X84439Y126165D01*
X84092Y125565D01*
X83850Y124663D01*
Y123730D01*
X84092Y122829D01*
X84558Y122021D01*
X85218Y121361D01*
X86026Y120895D01*
X86927Y120653D01*
X87860D01*
X88761Y120895D01*
X89362Y121242D01*
X89963Y120895D01*
X90864Y120653D01*
X91797D01*
X92698Y120895D01*
X93300Y121242D01*
X93900Y120896D01*
X94801Y120654D01*
X95734D01*
X96635Y120896D01*
X97443Y121362D01*
X98103Y122022D01*
X98570Y122830D01*
X98811Y123731D01*
Y124664D01*
X98570Y125565D01*
X98223Y126166D01*
X98570Y126766D01*
X98811Y127667D01*
Y128600D01*
X98570Y129501D01*
X98103Y130309D01*
X97443Y130969D01*
X96635Y131436D01*
X95734Y131677D01*
D02*
G37*
G36*
X335232Y141024D02*
X334351D01*
X333500Y140796D01*
X332737Y140355D01*
X332114Y139732D01*
X331673Y138969D01*
X331445Y138118D01*
Y137237D01*
X331673Y136386D01*
X332114Y135622D01*
X332559Y135177D01*
X332114Y134732D01*
X331673Y133969D01*
X331445Y133118D01*
Y132237D01*
X331673Y131386D01*
X332114Y130622D01*
X332737Y129999D01*
X333500Y129559D01*
X334351Y129331D01*
X335232D01*
X336083Y129559D01*
X336846Y129999D01*
X337469Y130622D01*
X337910Y131386D01*
X338138Y132237D01*
Y133118D01*
X337910Y133969D01*
X337469Y134732D01*
X337024Y135177D01*
X337469Y135622D01*
X337910Y136386D01*
X338138Y137237D01*
Y138118D01*
X337910Y138969D01*
X337469Y139732D01*
X336846Y140355D01*
X336083Y140796D01*
X335232Y141024D01*
D02*
G37*
G36*
X255362Y131024D02*
X254481D01*
X253630Y130796D01*
X252867Y130355D01*
X252243Y129732D01*
X251803Y128969D01*
X251575Y128118D01*
Y127237D01*
X251803Y126385D01*
X252243Y125622D01*
X252689Y125177D01*
X252243Y124732D01*
X251803Y123969D01*
X251575Y123118D01*
Y122237D01*
X251803Y121386D01*
X252243Y120622D01*
X252867Y119999D01*
X253630Y119559D01*
X254481Y119331D01*
X255362D01*
X256213Y119559D01*
X256976Y119999D01*
X257599Y120622D01*
X258040Y121386D01*
X258268Y122237D01*
Y123118D01*
X258040Y123969D01*
X257599Y124732D01*
X257154Y125177D01*
X257599Y125622D01*
X258040Y126385D01*
X258268Y127237D01*
Y128118D01*
X258040Y128969D01*
X257599Y129732D01*
X256976Y130355D01*
X256213Y130796D01*
X255362Y131024D01*
D02*
G37*
G36*
X228132Y125438D02*
X227095D01*
X226094Y125170D01*
X225196Y124652D01*
X224463Y123919D01*
X223945Y123021D01*
X223676Y122020D01*
Y120983D01*
X223945Y119982D01*
X224463Y119084D01*
X225196Y118351D01*
X226094Y117833D01*
X227095Y117564D01*
X228132D01*
X229133Y117833D01*
X230031Y118351D01*
X230633Y118954D01*
X231423Y118986D01*
X231487Y118876D01*
X232220Y118142D01*
X233118Y117624D01*
X234119Y117356D01*
X235156D01*
X236157Y117624D01*
X237055Y118142D01*
X237788Y118876D01*
X238306Y119773D01*
X238574Y120774D01*
Y121811D01*
X238306Y122812D01*
X237788Y123710D01*
X237055Y124443D01*
X236157Y124962D01*
X235156Y125230D01*
X234119D01*
X233118Y124962D01*
X232220Y124443D01*
X231617Y123840D01*
X230828Y123808D01*
X230764Y123919D01*
X230031Y124652D01*
X229133Y125170D01*
X228132Y125438D01*
D02*
G37*
G36*
X335232Y126024D02*
X334351D01*
X333500Y125796D01*
X332737Y125355D01*
X332114Y124732D01*
X331673Y123969D01*
X331445Y123118D01*
Y122237D01*
X331673Y121386D01*
X332114Y120622D01*
X332559Y120177D01*
X332114Y119732D01*
X331673Y118969D01*
X331445Y118118D01*
Y117237D01*
X331673Y116385D01*
X332114Y115622D01*
X332737Y114999D01*
X333500Y114559D01*
X334351Y114331D01*
X335232D01*
X336083Y114559D01*
X336846Y114999D01*
X337469Y115622D01*
X337910Y116385D01*
X338138Y117237D01*
Y118118D01*
X337910Y118969D01*
X337469Y119732D01*
X337024Y120177D01*
X337469Y120622D01*
X337910Y121386D01*
X338138Y122237D01*
Y123118D01*
X337910Y123969D01*
X337469Y124732D01*
X336846Y125355D01*
X336083Y125796D01*
X335232Y126024D01*
D02*
G37*
G36*
X529062Y150402D02*
X528025D01*
X527024Y150133D01*
X526126Y149615D01*
X525393Y148882D01*
X524875Y147984D01*
X524606Y146983D01*
Y145946D01*
X524875Y144945D01*
X525393Y144047D01*
X526126Y143314D01*
X526417Y143146D01*
Y142338D01*
X526126Y142170D01*
X525393Y141437D01*
X524875Y140539D01*
X524606Y139538D01*
Y138501D01*
X524875Y137500D01*
X525393Y136602D01*
X526087Y135908D01*
X526166Y135756D01*
Y135236D01*
X526087Y135084D01*
X525393Y134390D01*
X524875Y133492D01*
X524606Y132491D01*
Y131454D01*
X524875Y130453D01*
X525393Y129555D01*
X526126Y128822D01*
X526408Y128659D01*
Y127959D01*
X526126Y127796D01*
X525393Y127063D01*
X524875Y126165D01*
X524606Y125164D01*
Y124127D01*
X524875Y123126D01*
X525393Y122228D01*
X526126Y121495D01*
X526245Y121427D01*
Y120727D01*
X526126Y120658D01*
X525393Y119925D01*
X524875Y119027D01*
X524606Y118026D01*
Y116990D01*
X524875Y115988D01*
X525393Y115091D01*
X526126Y114357D01*
X527024Y113839D01*
X528025Y113571D01*
X529062D01*
X530063Y113839D01*
X530961Y114357D01*
X531694Y115091D01*
X532212Y115988D01*
X532480Y116990D01*
Y118026D01*
X532212Y119027D01*
X531694Y119925D01*
X530961Y120658D01*
X530842Y120727D01*
Y121427D01*
X530961Y121495D01*
X531694Y122228D01*
X532212Y123126D01*
X532480Y124127D01*
Y125164D01*
X532212Y126165D01*
X531694Y127063D01*
X530961Y127796D01*
X530678Y127959D01*
Y128659D01*
X530961Y128822D01*
X531694Y129555D01*
X532212Y130453D01*
X532480Y131454D01*
Y132491D01*
X532212Y133492D01*
X531694Y134390D01*
X531000Y135084D01*
X530920Y135236D01*
Y135756D01*
X531000Y135908D01*
X531694Y136602D01*
X532212Y137500D01*
X532480Y138501D01*
Y139538D01*
X532212Y140539D01*
X531694Y141437D01*
X530961Y142170D01*
X530670Y142338D01*
Y143146D01*
X530961Y143314D01*
X531694Y144047D01*
X532212Y144945D01*
X532480Y145946D01*
Y146983D01*
X532212Y147984D01*
X531694Y148882D01*
X530961Y149615D01*
X530063Y150133D01*
X529062Y150402D01*
D02*
G37*
G36*
X511345D02*
X510308D01*
X509307Y150133D01*
X508409Y149615D01*
X507676Y148882D01*
X507158Y147984D01*
X506890Y146983D01*
Y145946D01*
X507158Y144945D01*
X507676Y144047D01*
X508409Y143314D01*
X508700Y143146D01*
Y142338D01*
X508409Y142170D01*
X507676Y141437D01*
X507158Y140539D01*
X506890Y139538D01*
Y138501D01*
X507158Y137500D01*
X507676Y136602D01*
X508370Y135908D01*
X508450Y135756D01*
Y135236D01*
X508370Y135084D01*
X507676Y134390D01*
X507158Y133492D01*
X506890Y132491D01*
Y131454D01*
X507158Y130453D01*
X507676Y129555D01*
X508409Y128822D01*
X508692Y128659D01*
Y127959D01*
X508409Y127796D01*
X507676Y127063D01*
X507158Y126165D01*
X506890Y125164D01*
Y124127D01*
X507158Y123126D01*
X507676Y122228D01*
X508409Y121495D01*
X508528Y121427D01*
Y120727D01*
X508409Y120658D01*
X507676Y119925D01*
X507158Y119027D01*
X506890Y118026D01*
Y116990D01*
X507158Y115988D01*
X507676Y115091D01*
X508409Y114357D01*
X509307Y113839D01*
X510308Y113571D01*
X511345D01*
X512346Y113839D01*
X513244Y114357D01*
X513977Y115091D01*
X514496Y115988D01*
X514764Y116990D01*
Y118026D01*
X514496Y119027D01*
X513977Y119925D01*
X513244Y120658D01*
X513126Y120727D01*
Y121427D01*
X513244Y121495D01*
X513977Y122228D01*
X514496Y123126D01*
X514764Y124127D01*
Y125164D01*
X514496Y126165D01*
X513977Y127063D01*
X513244Y127796D01*
X512962Y127959D01*
Y128659D01*
X513244Y128822D01*
X513977Y129555D01*
X514496Y130453D01*
X514764Y131454D01*
Y132491D01*
X514496Y133492D01*
X513977Y134390D01*
X513283Y135084D01*
X513204Y135236D01*
Y135756D01*
X513283Y135908D01*
X513977Y136602D01*
X514496Y137500D01*
X514764Y138501D01*
Y139538D01*
X514496Y140539D01*
X513977Y141437D01*
X513244Y142170D01*
X512953Y142338D01*
Y143146D01*
X513244Y143314D01*
X513977Y144047D01*
X514496Y144945D01*
X514764Y145946D01*
Y146983D01*
X514496Y147984D01*
X513977Y148882D01*
X513244Y149615D01*
X512346Y150133D01*
X511345Y150402D01*
D02*
G37*
G36*
X194418Y114189D02*
X194398D01*
Y110736D01*
X197850D01*
Y110757D01*
X197581Y111762D01*
X197061Y112663D01*
X196325Y113399D01*
X195423Y113920D01*
X194418Y114189D01*
D02*
G37*
G36*
X193398D02*
X193377D01*
X192372Y113920D01*
X191471Y113399D01*
X190735Y112663D01*
X190214Y111762D01*
X189945Y110757D01*
Y110736D01*
X193398D01*
Y114189D01*
D02*
G37*
G36*
X466070Y116142D02*
X465033D01*
X464032Y115873D01*
X463134Y115355D01*
X462401Y114622D01*
X461882Y113724D01*
X461614Y112723D01*
Y111686D01*
X461882Y110685D01*
X462401Y109787D01*
X463134Y109054D01*
X464032Y108536D01*
X465033Y108268D01*
X466070D01*
X467071Y108536D01*
X467969Y109054D01*
X468702Y109787D01*
X469220Y110685D01*
X469488Y111686D01*
Y112723D01*
X469220Y113724D01*
X468702Y114622D01*
X467969Y115355D01*
X467071Y115873D01*
X466070Y116142D01*
D02*
G37*
G36*
X486739Y114173D02*
X485702D01*
X484701Y113905D01*
X483803Y113387D01*
X483070Y112654D01*
X482552Y111756D01*
X482283Y110755D01*
Y109718D01*
X482552Y108717D01*
X483070Y107819D01*
X483803Y107086D01*
X484701Y106568D01*
X485702Y106299D01*
X486739D01*
X487740Y106568D01*
X488638Y107086D01*
X489371Y107819D01*
X489889Y108717D01*
X490158Y109718D01*
Y110755D01*
X489889Y111756D01*
X489371Y112654D01*
X488638Y113387D01*
X487740Y113905D01*
X486739Y114173D01*
D02*
G37*
G36*
X197850Y109736D02*
X194398D01*
Y106283D01*
X194418D01*
X195423Y106553D01*
X196325Y107073D01*
X197061Y107809D01*
X197581Y108711D01*
X197850Y109716D01*
Y109736D01*
D02*
G37*
G36*
X193398D02*
X189945D01*
Y109716D01*
X190214Y108711D01*
X190735Y107809D01*
X191471Y107073D01*
X192372Y106553D01*
X193377Y106283D01*
X193398D01*
Y109736D01*
D02*
G37*
G36*
X174891Y117126D02*
X173534D01*
X172203Y116861D01*
X170949Y116342D01*
X169821Y115588D01*
X168861Y114628D01*
X168107Y113500D01*
X167588Y112246D01*
X167323Y110915D01*
Y109558D01*
X167588Y108227D01*
X168107Y106973D01*
X168861Y105844D01*
X169821Y104885D01*
X170949Y104131D01*
X172203Y103611D01*
X172024Y102953D01*
X171778D01*
X170876Y102711D01*
X170276Y102364D01*
X169675Y102711D01*
X168774Y102953D01*
X167841D01*
X166939Y102711D01*
X166339Y102364D01*
X165738Y102711D01*
X164837Y102953D01*
X163904D01*
X163002Y102711D01*
X162195Y102245D01*
X161535Y101585D01*
X161068Y100777D01*
X160827Y99876D01*
Y98943D01*
X161068Y98042D01*
X161415Y97441D01*
X161068Y96840D01*
X160827Y95939D01*
Y95006D01*
X161068Y94105D01*
X161415Y93504D01*
X161068Y92903D01*
X160827Y92002D01*
Y91069D01*
X161068Y90168D01*
X161415Y89567D01*
X161068Y88966D01*
X160827Y88065D01*
Y87132D01*
X161068Y86231D01*
X161415Y85630D01*
X161068Y85029D01*
X160827Y84128D01*
Y83195D01*
X161068Y82294D01*
X161415Y81693D01*
X161068Y81092D01*
X160827Y80191D01*
Y79258D01*
X161068Y78357D01*
X161535Y77549D01*
X162195Y76889D01*
X163002Y76423D01*
X163904Y76181D01*
X164837D01*
X165738Y76423D01*
X166339Y76770D01*
X166939Y76423D01*
X167841Y76181D01*
X168774D01*
X169675Y76423D01*
X170276Y76770D01*
X170876Y76423D01*
X171778Y76181D01*
X172711D01*
X173612Y76423D01*
X174213Y76770D01*
X174813Y76423D01*
X175715Y76181D01*
X176648D01*
X177549Y76423D01*
X178150Y76770D01*
X178751Y76423D01*
X179652Y76181D01*
X180585D01*
X181486Y76423D01*
X182087Y76770D01*
X182687Y76423D01*
X183589Y76181D01*
X184522D01*
X185423Y76423D01*
X186024Y76770D01*
X186625Y76423D01*
X187526Y76181D01*
X188459D01*
X189360Y76423D01*
X189961Y76770D01*
X190561Y76423D01*
X191463Y76181D01*
X192396D01*
X193297Y76423D01*
X194105Y76889D01*
X194764Y77549D01*
X195231Y78357D01*
X195472Y79258D01*
Y80191D01*
X195231Y81092D01*
X194884Y81693D01*
X195231Y82294D01*
X195472Y83195D01*
Y84128D01*
X195231Y85029D01*
X194884Y85630D01*
X195231Y86231D01*
X195472Y87132D01*
Y88065D01*
X195231Y88966D01*
X194764Y89774D01*
X194105Y90434D01*
X193297Y90900D01*
X192396Y91142D01*
X191463D01*
X190561Y90900D01*
X189961Y90553D01*
X189360Y90900D01*
X188459Y91142D01*
X187526D01*
X186625Y90900D01*
X186024Y90553D01*
X185423Y90900D01*
X184522Y91142D01*
X183661D01*
Y92002D01*
X183420Y92903D01*
X183073Y93504D01*
X183420Y94105D01*
X183661Y95006D01*
Y95939D01*
X183420Y96840D01*
X183073Y97441D01*
X183420Y98042D01*
X183661Y98943D01*
Y99876D01*
X183420Y100777D01*
X182953Y101585D01*
X182294Y102245D01*
X181486Y102711D01*
X180585Y102953D01*
X179652D01*
X178751Y102711D01*
X178150Y102364D01*
X177549Y102711D01*
X176648Y102953D01*
X176401D01*
X176222Y103611D01*
X177476Y104131D01*
X178605Y104885D01*
X179564Y105844D01*
X180318Y106973D01*
X180838Y108227D01*
X181102Y109558D01*
Y110915D01*
X180838Y112246D01*
X180318Y113500D01*
X179564Y114628D01*
X178605Y115588D01*
X177476Y116342D01*
X176222Y116861D01*
X174891Y117126D01*
D02*
G37*
G36*
X317370Y105709D02*
X316489D01*
X315637Y105481D01*
X314874Y105040D01*
X314251Y104417D01*
X313811Y103654D01*
X313583Y102803D01*
Y101922D01*
X313811Y101070D01*
X314251Y100307D01*
X314874Y99684D01*
X315637Y99244D01*
X316489Y99016D01*
X317370D01*
X318221Y99244D01*
X318984Y99684D01*
X319607Y100307D01*
X320047Y101070D01*
X320276Y101922D01*
Y102803D01*
X320047Y103654D01*
X319607Y104417D01*
X318984Y105040D01*
X318221Y105481D01*
X317370Y105709D01*
D02*
G37*
G36*
X28077Y103347D02*
X27041D01*
X26039Y103078D01*
X25142Y102560D01*
X24409Y101827D01*
X23890Y100929D01*
X23622Y99928D01*
Y98891D01*
X23890Y97890D01*
X24409Y96992D01*
X25142Y96259D01*
X26039Y95741D01*
X27041Y95473D01*
X28077D01*
X29079Y95741D01*
X29976Y96259D01*
X30709Y96992D01*
X31228Y97890D01*
X31496Y98891D01*
Y99928D01*
X31228Y100929D01*
X30709Y101827D01*
X29976Y102560D01*
X29079Y103078D01*
X28077Y103347D01*
D02*
G37*
G36*
X231818D02*
X230781D01*
X229780Y103078D01*
X228882Y102560D01*
X228149Y101827D01*
X227630Y100929D01*
X227362Y99928D01*
Y98891D01*
X227630Y97890D01*
X228149Y96992D01*
X228882Y96259D01*
X229780Y95741D01*
X230781Y95473D01*
X231818D01*
X232160Y95564D01*
X232985Y95193D01*
X233503Y94295D01*
X234236Y93562D01*
X235134Y93044D01*
X236135Y92776D01*
X237172D01*
X238173Y93044D01*
X239071Y93562D01*
X239804Y94295D01*
X240322Y95193D01*
X240590Y96194D01*
Y97231D01*
X240322Y98232D01*
X239804Y99130D01*
X239071Y99863D01*
X238173Y100381D01*
X237172Y100650D01*
X236135D01*
X235792Y100558D01*
X234968Y100929D01*
X234450Y101827D01*
X233717Y102560D01*
X232819Y103078D01*
X231818Y103347D01*
D02*
G37*
G36*
X46148Y99048D02*
X45008D01*
X43906Y98753D01*
X42919Y98183D01*
X42112Y97377D01*
X41542Y96389D01*
X41247Y95288D01*
Y94147D01*
X41542Y93046D01*
X42112Y92058D01*
X42919Y91252D01*
X43906Y90682D01*
X45008Y90387D01*
X46148D01*
X47249Y90682D01*
X48237Y91252D01*
X49043Y92058D01*
X49613Y93046D01*
X49908Y94147D01*
Y95288D01*
X49613Y96389D01*
X49043Y97377D01*
X48237Y98183D01*
X47249Y98753D01*
X46148Y99048D01*
D02*
G37*
G36*
X279968Y85039D02*
X279087D01*
X278236Y84811D01*
X277473Y84371D01*
X276850Y83748D01*
X276458Y83069D01*
X276083Y83023D01*
X275707Y83069D01*
X275316Y83748D01*
X274693Y84371D01*
X273930Y84811D01*
X273078Y85039D01*
X272197D01*
X271346Y84811D01*
X270583Y84371D01*
X270124Y83912D01*
X269685Y83811D01*
X269246Y83912D01*
X268787Y84371D01*
X268024Y84811D01*
X267173Y85039D01*
X266292D01*
X265441Y84811D01*
X264678Y84371D01*
X264054Y83748D01*
X263614Y82985D01*
X263386Y82134D01*
Y81252D01*
X263614Y80401D01*
X264054Y79638D01*
X264678Y79015D01*
X265441Y78575D01*
X266292Y78347D01*
X267173D01*
X268024Y78575D01*
X268787Y79015D01*
X269246Y79474D01*
X269685Y79575D01*
X270124Y79474D01*
X270583Y79015D01*
X271346Y78575D01*
X272197Y78347D01*
X273078D01*
X273930Y78575D01*
X274693Y79015D01*
X275316Y79638D01*
X275707Y80316D01*
X276083Y80363D01*
X276458Y80316D01*
X276850Y79638D01*
X277473Y79015D01*
X278236Y78575D01*
X279087Y78347D01*
X279968D01*
X280819Y78575D01*
X281582Y79015D01*
X282205Y79638D01*
X282646Y80401D01*
X282874Y81252D01*
Y82134D01*
X282646Y82985D01*
X282205Y83748D01*
X281582Y84371D01*
X280819Y84811D01*
X279968Y85039D01*
D02*
G37*
G36*
X237233Y83786D02*
X236197D01*
X235196Y83518D01*
X234298Y82999D01*
X233565Y82266D01*
X233391Y81966D01*
X232583D01*
X232481Y82142D01*
X231748Y82875D01*
X230850Y83393D01*
X229849Y83661D01*
X228812D01*
X227811Y83393D01*
X226913Y82875D01*
X226180Y82142D01*
X225662Y81244D01*
X225394Y80243D01*
Y79206D01*
X225662Y78205D01*
X226180Y77307D01*
X226913Y76574D01*
X227811Y76056D01*
X228812Y75787D01*
X229849D01*
X230850Y76056D01*
X231748Y76574D01*
X232481Y77307D01*
X232655Y77608D01*
X233463D01*
X233565Y77432D01*
X234298Y76699D01*
X235196Y76180D01*
X236197Y75912D01*
X237233D01*
X238235Y76180D01*
X239133Y76699D01*
X239866Y77432D01*
X240384Y78329D01*
X240652Y79331D01*
Y80367D01*
X240384Y81369D01*
X239866Y82266D01*
X239133Y82999D01*
X238235Y83518D01*
X237233Y83786D01*
D02*
G37*
G36*
X305559Y85039D02*
X304678D01*
X303826Y84811D01*
X303063Y84371D01*
X302440Y83748D01*
X302000Y82985D01*
X301772Y82134D01*
Y81252D01*
X302000Y80401D01*
X302440Y79638D01*
X303063Y79015D01*
X303826Y78575D01*
X304678Y78347D01*
X305559D01*
X306410Y78575D01*
X307173Y79015D01*
X307796Y79638D01*
X308237Y80401D01*
X308465Y81252D01*
Y82134D01*
X308237Y82985D01*
X307796Y83748D01*
X307173Y84371D01*
X306410Y84811D01*
X305559Y85039D01*
D02*
G37*
G36*
X19271Y84055D02*
X18131D01*
X17029Y83760D01*
X16042Y83190D01*
X15235Y82384D01*
X14665Y81396D01*
X14370Y80295D01*
Y79154D01*
X14665Y78053D01*
X15235Y77065D01*
X16042Y76259D01*
X17029Y75689D01*
X18131Y75394D01*
X19271D01*
X20372Y75689D01*
X21360Y76259D01*
X22166Y77065D01*
X22736Y78053D01*
X23031Y79154D01*
Y80295D01*
X22736Y81396D01*
X22166Y82384D01*
X21360Y83190D01*
X20372Y83760D01*
X19271Y84055D01*
D02*
G37*
G36*
X507408Y113189D02*
X506371D01*
X505370Y112921D01*
X504472Y112402D01*
X503739Y111669D01*
X503221Y110772D01*
X502953Y109770D01*
Y108734D01*
X503221Y107732D01*
X503739Y106835D01*
X504472Y106102D01*
X505163Y105703D01*
X505207Y105563D01*
Y105066D01*
X505163Y104927D01*
X504472Y104528D01*
X503739Y103795D01*
X503221Y102898D01*
X502953Y101896D01*
Y100860D01*
X503221Y99858D01*
X503739Y98961D01*
X504472Y98228D01*
X505163Y97829D01*
X505207Y97689D01*
Y97192D01*
X505163Y97053D01*
X504472Y96654D01*
X503739Y95921D01*
X503221Y95024D01*
X502953Y94022D01*
Y92986D01*
X503221Y91984D01*
X503739Y91087D01*
X504472Y90354D01*
X505163Y89955D01*
X505207Y89815D01*
Y89318D01*
X505163Y89179D01*
X504472Y88780D01*
X503739Y88047D01*
X503221Y87150D01*
X502953Y86148D01*
Y85112D01*
X503221Y84110D01*
X503739Y83213D01*
X504472Y82480D01*
X505163Y82081D01*
X505207Y81941D01*
Y81444D01*
X505163Y81305D01*
X504472Y80906D01*
X503739Y80173D01*
X503221Y79276D01*
X502953Y78274D01*
Y77238D01*
X503221Y76236D01*
X503739Y75339D01*
X504472Y74606D01*
X505370Y74087D01*
X506371Y73819D01*
X507408D01*
X508409Y74087D01*
X509307Y74606D01*
X510040Y75339D01*
X510559Y76236D01*
X510827Y77238D01*
Y78274D01*
X510559Y79276D01*
X510040Y80173D01*
X509307Y80906D01*
X508616Y81305D01*
X508572Y81444D01*
Y81941D01*
X508616Y82081D01*
X509307Y82480D01*
X510040Y83213D01*
X510559Y84110D01*
X510827Y85112D01*
Y86148D01*
X510559Y87150D01*
X510040Y88047D01*
X509307Y88780D01*
X508616Y89179D01*
X508572Y89318D01*
Y89815D01*
X508616Y89955D01*
X509307Y90354D01*
X510040Y91087D01*
X510559Y91984D01*
X510827Y92986D01*
Y94022D01*
X510559Y95024D01*
X510040Y95921D01*
X509307Y96654D01*
X508616Y97053D01*
X508572Y97192D01*
Y97689D01*
X508616Y97829D01*
X509307Y98228D01*
X510040Y98961D01*
X510559Y99858D01*
X510827Y100860D01*
Y101896D01*
X510559Y102898D01*
X510040Y103795D01*
X509307Y104528D01*
X508616Y104927D01*
X508572Y105066D01*
Y105563D01*
X508616Y105703D01*
X509307Y106102D01*
X510040Y106835D01*
X510559Y107732D01*
X510827Y108734D01*
Y109770D01*
X510559Y110772D01*
X510040Y111669D01*
X509307Y112402D01*
X508409Y112921D01*
X507408Y113189D01*
D02*
G37*
G36*
X57515Y66878D02*
X56375D01*
X55273Y66583D01*
X54286Y66013D01*
X53479Y65206D01*
X52909Y64219D01*
X52614Y63117D01*
Y61977D01*
X52909Y60875D01*
X53479Y59888D01*
X54286Y59082D01*
X55273Y58512D01*
X56375Y58216D01*
X57515D01*
X58617Y58512D01*
X59604Y59082D01*
X60410Y59888D01*
X60980Y60875D01*
X61276Y61977D01*
Y63117D01*
X60980Y64219D01*
X60410Y65206D01*
X59604Y66013D01*
X58617Y66583D01*
X57515Y66878D01*
D02*
G37*
G36*
X356818Y58071D02*
X355781D01*
X354780Y57803D01*
X354331Y57543D01*
X353882Y57803D01*
X352881Y58071D01*
X351844D01*
X350843Y57803D01*
X350394Y57543D01*
X349945Y57803D01*
X348943Y58071D01*
X347907D01*
X346906Y57803D01*
X346457Y57543D01*
X346008Y57803D01*
X345006Y58071D01*
X343970D01*
X342969Y57803D01*
X342520Y57543D01*
X342071Y57803D01*
X341070Y58071D01*
X340033D01*
X339032Y57803D01*
X338134Y57284D01*
X337401Y56551D01*
X336882Y55654D01*
X336614Y54652D01*
Y53615D01*
X336882Y52614D01*
X337142Y52165D01*
X336882Y51717D01*
X336614Y50715D01*
Y49679D01*
X336882Y48677D01*
X337142Y48228D01*
X336882Y47780D01*
X336614Y46778D01*
Y45742D01*
X336882Y44740D01*
X337142Y44291D01*
X336882Y43843D01*
X336614Y42841D01*
Y41805D01*
X336882Y40803D01*
X337401Y39906D01*
X338134Y39172D01*
X339032Y38654D01*
X340033Y38386D01*
X341070D01*
X342071Y38654D01*
X342520Y38913D01*
X342969Y38654D01*
X343970Y38386D01*
X345006D01*
X346008Y38654D01*
X346457Y38913D01*
X346906Y38654D01*
X347907Y38386D01*
X348943D01*
X349945Y38654D01*
X350394Y38913D01*
X350843Y38654D01*
X351844Y38386D01*
X352881D01*
X353882Y38654D01*
X354331Y38913D01*
X354780Y38654D01*
X355781Y38386D01*
X356818D01*
X357819Y38654D01*
X358717Y39172D01*
X359450Y39906D01*
X359968Y40803D01*
X360236Y41805D01*
Y42841D01*
X359968Y43843D01*
X359709Y44291D01*
X359968Y44740D01*
X360236Y45742D01*
Y46778D01*
X359968Y47780D01*
X359709Y48228D01*
X359968Y48677D01*
X360236Y49679D01*
Y50715D01*
X359968Y51717D01*
X359709Y52165D01*
X359968Y52614D01*
X360236Y53615D01*
Y54652D01*
X359968Y55654D01*
X359450Y56551D01*
X358717Y57284D01*
X357819Y57803D01*
X356818Y58071D01*
D02*
G37*
G36*
X474763Y55413D02*
X473348D01*
X471959Y55137D01*
X470652Y54596D01*
X469475Y53809D01*
X469055Y53390D01*
X468635Y53809D01*
X467458Y54596D01*
X466151Y55137D01*
X464763Y55413D01*
X463347D01*
X461959Y55137D01*
X460652Y54596D01*
X459475Y53809D01*
X459055Y53390D01*
X458635Y53809D01*
X457458Y54596D01*
X456151Y55137D01*
X454763Y55413D01*
X453347D01*
X451959Y55137D01*
X450652Y54596D01*
X449475Y53809D01*
X449055Y53390D01*
X448635Y53809D01*
X447459Y54596D01*
X446151Y55137D01*
X444763Y55413D01*
X443348D01*
X441959Y55137D01*
X440652Y54596D01*
X439475Y53809D01*
X439055Y53390D01*
X438635Y53809D01*
X437459Y54596D01*
X436151Y55137D01*
X434763Y55413D01*
X433348D01*
X431959Y55137D01*
X430652Y54596D01*
X429475Y53809D01*
X428474Y52809D01*
X427688Y51632D01*
X427146Y50324D01*
X426870Y48936D01*
Y47521D01*
X427146Y46132D01*
X427688Y44825D01*
X428474Y43648D01*
X429475Y42647D01*
X430652Y41861D01*
X431959Y41319D01*
X433348Y41043D01*
X434763D01*
X436151Y41319D01*
X437459Y41861D01*
X438635Y42647D01*
X439055Y43067D01*
X439475Y42647D01*
X440652Y41861D01*
X441959Y41319D01*
X443348Y41043D01*
X444763D01*
X446151Y41319D01*
X447459Y41861D01*
X448635Y42647D01*
X449055Y43067D01*
X449475Y42647D01*
X450652Y41861D01*
X451959Y41319D01*
X453347Y41043D01*
X454763D01*
X456151Y41319D01*
X457458Y41861D01*
X458635Y42647D01*
X459055Y43067D01*
X459475Y42647D01*
X460652Y41861D01*
X461959Y41319D01*
X463347Y41043D01*
X464763D01*
X466151Y41319D01*
X467458Y41861D01*
X468635Y42647D01*
X469055Y43067D01*
X469475Y42647D01*
X470652Y41861D01*
X471959Y41319D01*
X473348Y41043D01*
X474763D01*
X476151Y41319D01*
X477458Y41861D01*
X478635Y42647D01*
X479636Y43648D01*
X480422Y44825D01*
X480483Y44970D01*
X481169Y45107D01*
X481447Y44829D01*
X482415Y44270D01*
X483496Y43980D01*
X483555D01*
Y48228D01*
Y52476D01*
X483496D01*
X482415Y52187D01*
X481447Y51628D01*
X481169Y51350D01*
X480483Y51486D01*
X480422Y51632D01*
X479636Y52809D01*
X478635Y53809D01*
X477458Y54596D01*
X476151Y55137D01*
X474763Y55413D01*
D02*
G37*
G36*
X501240D02*
X486870D01*
Y52317D01*
X486170Y51912D01*
X485695Y52187D01*
X484614Y52476D01*
X484555D01*
Y48228D01*
Y43980D01*
X484614D01*
X485695Y44270D01*
X486170Y44544D01*
X486870Y44140D01*
Y41043D01*
X501240D01*
Y55413D01*
D02*
G37*
G36*
X322369Y57087D02*
X321332D01*
X320331Y56818D01*
X319433Y56300D01*
X318700Y55567D01*
X318182Y54669D01*
X317913Y53668D01*
Y52631D01*
X318182Y51630D01*
X318700Y50732D01*
X319433Y49999D01*
X320331Y49481D01*
X321332Y49213D01*
X322369D01*
X323370Y49481D01*
X324268Y49999D01*
X325001Y50732D01*
X325519Y51630D01*
X325787Y52631D01*
Y53668D01*
X325519Y54669D01*
X325001Y55567D01*
X324268Y56300D01*
X323370Y56818D01*
X322369Y57087D01*
D02*
G37*
G36*
X178874Y55489D02*
X177838D01*
X176836Y55220D01*
X175938Y54702D01*
X175205Y53969D01*
X174687Y53071D01*
X174419Y52070D01*
Y51033D01*
X174687Y50032D01*
X175205Y49134D01*
X175938Y48401D01*
X176836Y47883D01*
X177838Y47615D01*
X178874D01*
X179876Y47883D01*
X180773Y48401D01*
X181506Y49134D01*
X182025Y50032D01*
X182293Y51033D01*
Y52070D01*
X182025Y53071D01*
X181506Y53969D01*
X180773Y54702D01*
X179876Y55220D01*
X178874Y55489D01*
D02*
G37*
G36*
X158532Y55181D02*
X157495D01*
X156494Y54913D01*
X155596Y54395D01*
X154863Y53662D01*
X154345Y52764D01*
X154077Y51763D01*
Y50726D01*
X154345Y49725D01*
X154863Y48827D01*
X155596Y48094D01*
X156494Y47576D01*
X157495Y47307D01*
X158532D01*
X159533Y47576D01*
X160431Y48094D01*
X161164Y48827D01*
X161682Y49725D01*
X161951Y50726D01*
Y51763D01*
X161682Y52764D01*
X161164Y53662D01*
X160431Y54395D01*
X159533Y54913D01*
X158532Y55181D01*
D02*
G37*
G36*
X45875Y55541D02*
X44735D01*
X43633Y55246D01*
X42646Y54676D01*
X41840Y53870D01*
X41269Y52882D01*
X40974Y51781D01*
Y50640D01*
X41269Y49539D01*
X41840Y48551D01*
X42646Y47745D01*
X43633Y47175D01*
X44735Y46880D01*
X45875D01*
X46977Y47175D01*
X47964Y47745D01*
X48770Y48551D01*
X49341Y49539D01*
X49636Y50640D01*
Y51781D01*
X49341Y52882D01*
X48770Y53870D01*
X47964Y54676D01*
X46977Y55246D01*
X45875Y55541D01*
D02*
G37*
G36*
X92054Y50197D02*
X91017D01*
X90016Y49929D01*
X89118Y49410D01*
X88385Y48677D01*
X87867Y47780D01*
X87598Y46778D01*
Y46198D01*
X86904Y45728D01*
X86532Y45882D01*
X84631Y46260D01*
X82692D01*
X80791Y45882D01*
X78999Y45140D01*
X77387Y44063D01*
X76016Y42692D01*
X74939Y41080D01*
X74197Y39288D01*
X73819Y37387D01*
Y35448D01*
X74197Y33546D01*
X74939Y31755D01*
X76016Y30143D01*
X77387Y28772D01*
X78999Y27695D01*
X80791Y26953D01*
X82692Y26575D01*
X84631D01*
X86532Y26953D01*
X88324Y27695D01*
X89936Y28772D01*
X91307Y30143D01*
X92384Y31755D01*
X93126Y33546D01*
X93819Y33443D01*
Y26575D01*
X113504D01*
Y46260D01*
X95472D01*
Y46778D01*
X95204Y47780D01*
X94686Y48677D01*
X93953Y49410D01*
X93055Y49929D01*
X92054Y50197D01*
D02*
G37*
G36*
X281030Y52165D02*
X279994D01*
X278992Y51897D01*
X278094Y51379D01*
X277361Y50646D01*
X276843Y49748D01*
X276575Y48747D01*
Y47710D01*
X276843Y46709D01*
X277361Y45811D01*
X278094Y45078D01*
X278992Y44560D01*
X279994Y44291D01*
X281030D01*
X282031Y44560D01*
X282929Y45078D01*
X283662Y45811D01*
X284180Y46709D01*
X284449Y47710D01*
Y48747D01*
X284180Y49748D01*
X283662Y50646D01*
X282929Y51379D01*
X282031Y51897D01*
X281030Y52165D01*
D02*
G37*
G36*
X201732Y46260D02*
X182047D01*
Y39391D01*
X181354Y39288D01*
X180612Y41080D01*
X179535Y42692D01*
X178164Y44063D01*
X176552Y45140D01*
X174761Y45882D01*
X172859Y46260D01*
X170920D01*
X169019Y45882D01*
X167228Y45140D01*
X165615Y44063D01*
X164245Y42692D01*
X163167Y41080D01*
X162425Y39288D01*
X162247Y38389D01*
X161533D01*
X161354Y39288D01*
X160612Y41080D01*
X159535Y42692D01*
X158164Y44063D01*
X156552Y45140D01*
X154761Y45882D01*
X152859Y46260D01*
X150920D01*
X149019Y45882D01*
X147228Y45140D01*
X145615Y44063D01*
X144245Y42692D01*
X143167Y41080D01*
X142426Y39288D01*
X142047Y37387D01*
Y35448D01*
X142426Y33546D01*
X143167Y31755D01*
X144245Y30143D01*
X145615Y28772D01*
X147228Y27695D01*
X149019Y26953D01*
X150920Y26575D01*
X152859D01*
X154761Y26953D01*
X156552Y27695D01*
X158164Y28772D01*
X159535Y30143D01*
X160612Y31755D01*
X161354Y33546D01*
X161533Y34446D01*
X162247D01*
X162425Y33546D01*
X163167Y31755D01*
X164245Y30143D01*
X165615Y28772D01*
X167228Y27695D01*
X169019Y26953D01*
X170920Y26575D01*
X172859D01*
X174761Y26953D01*
X176552Y27695D01*
X178164Y28772D01*
X179535Y30143D01*
X180612Y31755D01*
X181354Y33546D01*
X182047Y33443D01*
Y26575D01*
X201732D01*
Y46260D01*
D02*
G37*
G36*
X64341Y43323D02*
X64161D01*
Y36917D01*
X70567D01*
Y37097D01*
X70302Y38432D01*
X69781Y39688D01*
X69025Y40819D01*
X68063Y41781D01*
X66932Y42537D01*
X65676Y43058D01*
X64341Y43323D01*
D02*
G37*
G36*
X132570D02*
X132390D01*
Y36917D01*
X138795D01*
Y37097D01*
X138530Y38432D01*
X138009Y39688D01*
X137254Y40819D01*
X136292Y41781D01*
X135161Y42537D01*
X133904Y43058D01*
X132570Y43323D01*
D02*
G37*
G36*
X131390D02*
X131210D01*
X129876Y43058D01*
X128619Y42537D01*
X127488Y41781D01*
X126526Y40819D01*
X125770Y39688D01*
X125250Y38432D01*
X124984Y37097D01*
Y36917D01*
X131390D01*
Y43323D01*
D02*
G37*
G36*
X63161D02*
X62981D01*
X61647Y43058D01*
X60390Y42537D01*
X59259Y41781D01*
X58298Y40819D01*
X57542Y39688D01*
X57021Y38432D01*
X56756Y37097D01*
Y36917D01*
X63161D01*
Y43323D01*
D02*
G37*
G36*
X138795Y35917D02*
X132390D01*
Y29512D01*
X132570D01*
X133904Y29777D01*
X135161Y30298D01*
X136292Y31054D01*
X137254Y32015D01*
X138009Y33146D01*
X138530Y34403D01*
X138795Y35737D01*
Y35917D01*
D02*
G37*
G36*
X131390D02*
X124984D01*
Y35737D01*
X125250Y34403D01*
X125770Y33146D01*
X126526Y32015D01*
X127488Y31054D01*
X128619Y30298D01*
X129876Y29777D01*
X131210Y29512D01*
X131390D01*
Y35917D01*
D02*
G37*
G36*
X70567D02*
X64161D01*
Y29512D01*
X64341D01*
X65676Y29777D01*
X66932Y30298D01*
X68063Y31054D01*
X69025Y32015D01*
X69781Y33146D01*
X70302Y34403D01*
X70567Y35737D01*
Y35917D01*
D02*
G37*
G36*
X63161D02*
X56756D01*
Y35737D01*
X57021Y34403D01*
X57542Y33146D01*
X58298Y32015D01*
X59259Y31054D01*
X60390Y30298D01*
X61647Y29777D01*
X62981Y29512D01*
X63161D01*
Y35917D01*
D02*
G37*
%LPD*%
D23*
X240158Y316122D02*
D03*
X374114Y78651D02*
D03*
X313976Y194882D02*
D03*
X178356Y51552D02*
D03*
X158014Y51244D02*
D03*
X91535Y46260D02*
D03*
X348425Y230315D02*
D03*
X341535D02*
D03*
X348425Y236221D02*
D03*
X341535D02*
D03*
X342768Y196063D02*
D03*
X231299Y99410D02*
D03*
X510827Y117508D02*
D03*
Y124646D02*
D03*
Y131972D02*
D03*
Y146465D02*
D03*
Y139020D02*
D03*
X410433Y169291D02*
D03*
X413386Y174213D02*
D03*
X506890Y109252D02*
D03*
Y101378D02*
D03*
Y93504D02*
D03*
Y85630D02*
D03*
Y77756D02*
D03*
X528543Y117508D02*
D03*
Y124646D02*
D03*
Y131972D02*
D03*
Y139020D02*
D03*
Y146465D02*
D03*
X27559Y99410D02*
D03*
X8858Y104331D02*
D03*
X236715Y79849D02*
D03*
X229331Y79724D02*
D03*
X387028Y74240D02*
D03*
X318898Y210630D02*
D03*
X380906Y149606D02*
D03*
X387795D02*
D03*
X394685D02*
D03*
X401575D02*
D03*
X388797Y127716D02*
D03*
X399606Y129921D02*
D03*
X393701Y131890D02*
D03*
X382874Y130905D02*
D03*
X321850Y53150D02*
D03*
X280512Y48228D02*
D03*
X236653Y96713D02*
D03*
X227613Y121502D02*
D03*
X234637Y121293D02*
D03*
X231299Y269685D02*
D03*
X340551Y54134D02*
D03*
X344488D02*
D03*
X348425D02*
D03*
X352362D02*
D03*
X356299D02*
D03*
X340551Y50197D02*
D03*
X344488D02*
D03*
X348425D02*
D03*
X352362D02*
D03*
X356299D02*
D03*
X340551Y46260D02*
D03*
X344488D02*
D03*
X348425D02*
D03*
X352362D02*
D03*
X356299D02*
D03*
Y42323D02*
D03*
X352362D02*
D03*
X348425D02*
D03*
X344488D02*
D03*
X340551D02*
D03*
X300197Y247047D02*
D03*
X320866Y243110D02*
D03*
X510827Y192547D02*
D03*
Y215598D02*
D03*
X486221Y110236D02*
D03*
X421260Y155512D02*
D03*
X496673Y144685D02*
D03*
X452756Y165354D02*
D03*
X476318Y147074D02*
D03*
X463522D02*
D03*
X442913Y143701D02*
D03*
X465551Y112205D02*
D03*
X74272Y156870D02*
D03*
X48926Y157854D02*
D03*
X79193Y170650D02*
D03*
X50650Y137185D02*
D03*
X48926Y144075D02*
D03*
X65413Y150965D02*
D03*
D142*
X228346Y205354D02*
D03*
Y195354D02*
D03*
Y185354D02*
D03*
Y175354D02*
D03*
Y165354D02*
D03*
X174213Y110236D02*
D03*
X193898D02*
D03*
X157980Y329224D02*
D03*
Y309539D02*
D03*
X16732Y252953D02*
D03*
X36417D02*
D03*
D143*
X228346Y155354D02*
D03*
D144*
X240158Y286634D02*
D03*
D145*
X98110Y194882D02*
D03*
X118110D02*
D03*
X138110D02*
D03*
D146*
X484055Y48228D02*
D03*
X474055D02*
D03*
X464055D02*
D03*
X454055D02*
D03*
X444055D02*
D03*
X434055D02*
D03*
D147*
X494055D02*
D03*
D148*
X191890Y36417D02*
D03*
X103661D02*
D03*
D149*
X171890D02*
D03*
X151890D02*
D03*
X131890D02*
D03*
X83661D02*
D03*
X63661D02*
D03*
D150*
X70866Y285433D02*
D03*
Y309842D02*
D03*
D151*
X52362Y298031D02*
D03*
D152*
X104724Y328346D02*
D03*
X131496Y281890D02*
D03*
X112205Y292520D02*
D03*
Y305118D02*
D03*
Y317717D02*
D03*
X124016Y292520D02*
D03*
Y305118D02*
D03*
D153*
Y317717D02*
D03*
D154*
X409391Y300950D02*
D03*
X412026Y299516D02*
D03*
X415025Y299600D02*
D03*
X417590Y301155D02*
D03*
D155*
X216535Y150591D02*
D03*
Y176181D02*
D03*
X242126Y162677D02*
D03*
X254921D02*
D03*
X289370Y186024D02*
D03*
X283465D02*
D03*
X254921Y127677D02*
D03*
Y122677D02*
D03*
X316929Y102362D02*
D03*
X254921Y157677D02*
D03*
Y152677D02*
D03*
Y147677D02*
D03*
Y142677D02*
D03*
Y137677D02*
D03*
X305118Y81693D02*
D03*
X279528D02*
D03*
X334791Y122677D02*
D03*
Y137677D02*
D03*
Y172677D02*
D03*
Y167677D02*
D03*
Y152559D02*
D03*
Y117677D02*
D03*
Y132677D02*
D03*
X272638Y81693D02*
D03*
X266732D02*
D03*
X362205Y224410D02*
D03*
X389764Y262795D02*
D03*
X80374Y135020D02*
D03*
Y139350D02*
D03*
X76043D02*
D03*
Y135020D02*
D03*
D156*
X289246Y225368D02*
D03*
X274267Y279348D02*
D03*
X184055Y79724D02*
D03*
X187992D02*
D03*
X191929D02*
D03*
X184055Y83661D02*
D03*
X187992D02*
D03*
X191929D02*
D03*
X184055Y87598D02*
D03*
X187992D02*
D03*
X191929D02*
D03*
X164370Y79724D02*
D03*
X168307D02*
D03*
X172244D02*
D03*
X176181D02*
D03*
X180118D02*
D03*
X164370Y83661D02*
D03*
X168307D02*
D03*
X172244D02*
D03*
X176181D02*
D03*
X180118D02*
D03*
X168307Y95472D02*
D03*
X180118D02*
D03*
Y91535D02*
D03*
X172244D02*
D03*
X168307Y99410D02*
D03*
X164370Y91535D02*
D03*
X172244Y99410D02*
D03*
Y95472D02*
D03*
X180118Y99410D02*
D03*
X164370Y95472D02*
D03*
X176181Y99410D02*
D03*
Y95472D02*
D03*
Y91535D02*
D03*
X168307D02*
D03*
X164370Y99410D02*
D03*
X198819Y246063D02*
D03*
X247047Y250984D02*
D03*
X243110D02*
D03*
X235236D02*
D03*
X231299D02*
D03*
X239173D02*
D03*
X227362D02*
D03*
X247047Y247047D02*
D03*
X243110D02*
D03*
X235236D02*
D03*
X231299D02*
D03*
X239173D02*
D03*
X227362D02*
D03*
X239173Y243110D02*
D03*
X235236D02*
D03*
X227362D02*
D03*
X231299D02*
D03*
X239173Y239173D02*
D03*
X235236D02*
D03*
X227362D02*
D03*
X231299D02*
D03*
X239173Y235236D02*
D03*
X235236D02*
D03*
X227362D02*
D03*
X231299D02*
D03*
X239173Y231299D02*
D03*
X235236D02*
D03*
X227362D02*
D03*
X231299D02*
D03*
X247047Y227362D02*
D03*
X243110D02*
D03*
X235236D02*
D03*
X231299D02*
D03*
X239173D02*
D03*
X227362D02*
D03*
X247047Y223425D02*
D03*
X243110D02*
D03*
X235236D02*
D03*
X231299D02*
D03*
X239173D02*
D03*
X227362D02*
D03*
Y219488D02*
D03*
X239173D02*
D03*
X231299D02*
D03*
X235236D02*
D03*
X243110D02*
D03*
X247047D02*
D03*
X264764Y264764D02*
D03*
Y260827D02*
D03*
Y256890D02*
D03*
Y252953D02*
D03*
Y249016D02*
D03*
X268701Y264764D02*
D03*
Y260827D02*
D03*
Y256890D02*
D03*
Y252953D02*
D03*
Y249016D02*
D03*
X292323D02*
D03*
X288386D02*
D03*
X284449D02*
D03*
X280512D02*
D03*
X276575D02*
D03*
X272638D02*
D03*
X478440Y123359D02*
D03*
X272638Y260827D02*
D03*
Y256890D02*
D03*
Y252953D02*
D03*
X276575Y260827D02*
D03*
Y256890D02*
D03*
Y252953D02*
D03*
X280512Y264764D02*
D03*
Y260827D02*
D03*
Y256890D02*
D03*
Y252953D02*
D03*
X284449Y264764D02*
D03*
Y260827D02*
D03*
Y256890D02*
D03*
Y252953D02*
D03*
X288386Y264764D02*
D03*
Y260827D02*
D03*
Y256890D02*
D03*
Y252953D02*
D03*
X292323D02*
D03*
Y256890D02*
D03*
Y260827D02*
D03*
Y264764D02*
D03*
X326611Y303465D02*
D03*
X312617Y289470D02*
D03*
X164370Y87598D02*
D03*
X168307D02*
D03*
X172244D02*
D03*
X176181D02*
D03*
X180118D02*
D03*
X26575Y212598D02*
D03*
X45728Y124390D02*
D03*
Y128327D02*
D03*
Y120453D02*
D03*
Y116516D02*
D03*
X49665Y124390D02*
D03*
Y128327D02*
D03*
Y120453D02*
D03*
Y116516D02*
D03*
X53602Y124390D02*
D03*
Y128327D02*
D03*
Y120453D02*
D03*
Y116516D02*
D03*
X57539Y124390D02*
D03*
Y128327D02*
D03*
Y120453D02*
D03*
Y116516D02*
D03*
X73287D02*
D03*
Y120453D02*
D03*
Y124390D02*
D03*
X69350Y116516D02*
D03*
X65413D02*
D03*
X61476D02*
D03*
Y120453D02*
D03*
X65413D02*
D03*
X69350D02*
D03*
X61476Y128327D02*
D03*
Y124390D02*
D03*
X69350D02*
D03*
Y128327D02*
D03*
X65413Y124390D02*
D03*
Y128327D02*
D03*
X95268Y128134D02*
D03*
X87394Y124197D02*
D03*
X91331D02*
D03*
X95268Y124198D02*
D03*
X91331Y128134D02*
D03*
X87394D02*
D03*
D157*
X56945Y62547D02*
D03*
X45305Y51210D02*
D03*
X18701Y79724D02*
D03*
X45578Y94717D02*
D03*
M02*
